<svg viewBox="0 0 144 218.4" xmlns="http://www.w3.org/2000/svg" xmlns:xlink="http://www.w3.org/1999/xlink"><linearGradient id="a"><stop offset="0" stop-color="#b77737"/><stop offset="1" stop-color="#965923"/></linearGradient><linearGradient id="b" gradientTransform="matrix(-1 0 0 1 1203.087 0)" gradientUnits="userSpaceOnUse" x1="1157.718" x2="1149.777" xlink:href="#a" y1="118.566" y2="109.181"/><linearGradient id="c" gradientTransform="matrix(-.7033947 .71079947 .71079947 .7033947 1100.689006 170.551091)" gradientUnits="userSpaceOnUse" x1="659.649" x2="661.643" xlink:href="#a" y1="-747.669" y2="-756.059"/><linearGradient id="d"><stop offset="0" stop-color="#b77737"/><stop offset="1" stop-color="#332114"/></linearGradient><linearGradient id="e" gradientTransform="matrix(-.87285395 .48798154 .48798154 .87285395 1044.903385 77.5601)" gradientUnits="userSpaceOnUse" x1="877.052" x2="885.721" xlink:href="#d" y1="-488.175" y2="-498.518"/><linearGradient id="f" gradientTransform="matrix(-1 0 0 1 1203.087 0)" gradientUnits="userSpaceOnUse" x1="1112.518" x2="1116.625" xlink:href="#d" y1="58.907" y2="55.865"/><linearGradient id="g" gradientTransform="matrix(-.97470271 -.2235053 -.2235053 .97470271 1263.554896 -23.228255)" gradientUnits="userSpaceOnUse" x1="1114.954" x2="1119.061" xlink:href="#d" y1="335.734" y2="332.692"/><circle cx="70.84" cy="71.84" fill="#fff" r="64.97"/><path d="m72 .39c-39.76 0-72 32.24-72 72 0 3.01.18 5.97.56 8.88 6.45 49.35 71.44 104.74 71.44 104.74s65.24-54.8 71.35-104.03c.42-3.14.65-6.34.65-9.59 0-39.77-32.24-72-72-72zm-.69 130.69c-33.97 0-61.51-27.54-61.51-61.51s27.54-61.51 61.51-61.51 61.51 27.54 61.51 61.51-27.54 61.51-61.51 61.51zm-50.8 62.63h102.98v24.3h-102.98z" fill="#00c4ff"/><path d="m38.89 205.73c0 3.42-2.41 6.03-6.24 6.03h-5v-12h5c3.83.01 6.24 2.52 6.24 5.97zm-6.58 2.68c1.66 0 2.76-.93 2.76-2.68s-1.1-2.68-2.76-2.68h-.9v5.35h.9zm13.77 3.48c-3.41 0-6.19-2.56-6.19-6.17s2.78-6.15 6.19-6.15c3.42 0 6.15 2.54 6.15 6.15s-2.76 6.17-6.15 6.17zm0-3.51c1.51 0 2.34-1.07 2.34-2.66 0-1.63-.83-2.68-2.34-2.68-1.54 0-2.36 1.05-2.36 2.68.01 1.59.82 2.66 2.36 2.66zm18.82-4.51h-3.97c-.29-.46-.83-.75-1.61-.75-1.46 0-2.27 1.03-2.27 2.63 0 1.86.85 2.8 2.69 2.8.85 0 1.54-.31 2.1-1.05h-3v-2.66h6.12v3.76c-.83 1.44-2.52 3.25-5.63 3.25-3.78 0-6.1-2.53-6.1-6.1 0-3.58 2.31-6.1 6.07-6.1 3.19 0 5.24 1.66 5.6 4.22zm9.55 4.08h-1.49v3.81h-3.76v-12h5.25c3.02 0 4.56 1.69 4.56 4.12 0 2.23-1.55 4.07-4.56 4.07zm-.43-2.96c.85 0 1.17-.44 1.17-1.1s-.32-1.1-1.17-1.1h-1.07v2.2zm13.86 4.96h-4l-.59 1.81h-3.95l4.39-12h4.34l4.37 12h-3.97zm-2-6.17-1.08 3.34h2.17zm12.99-4.01c3.02 0 4.56 1.73 4.56 3.93 0 1.58-.88 2.92-2.59 3.47l2.61 4.59h-4.13l-2.25-4.31h-.02v4.31h-3.76v-12h5.58zm-.34 3.15h-1.49v2.03h1.49c.71 0 1.08-.31 1.08-1.02 0-.6-.37-1.01-1.08-1.01zm9.85 3.64v5.2h-3.76v-12h3.76v5.05l3.44-5.05h4.25l-4.14 5.75 4.41 6.25h-4.47z" fill="#fff"/><path d="m27.01 50.2c1.35 3.33 4.38 5.36 8.99 6.01 5.56.79 11.4 1.33 17.06 1.86 14.06 1.31 27.33 2.54 30.06 7.13.66 1.12.65 2.43-.03 4.02-1.79 4.18-2.02 7.88-.68 11.01 1.82 4.24 5.87 5.79 6.04 5.86l.62-1.67c-.03-.01-3.5-1.34-5.02-4.89-1.14-2.66-.91-5.89.68-9.6.91-2.12.88-4.02-.08-5.63-3.2-5.37-16.28-6.59-31.43-7.99-5.63-.52-11.46-1.07-16.97-1.85-4-.57-6.48-2.18-7.59-4.91-3.79-9.36 9.44-28.7 13.6-34.43-1.25.66-2.48 1.35-3.67 2.09-5.51 8.02-15.19 24.08-11.58 32.99z" fill="#231f20"/><path d="m35.04 116.37c1.58-2.31 6.89-9.65 8.44-10.16.14-.05.32-.07.51-.08 2.14-1.4 6.35-4 7.43-4.19 1.29-.23 12.85 3.04 13.61 6.39.76 3.36-4.34 7.15-9.43 7.38-3.19.14-4.71-.28-6.19-.54-1.4.03-2.95.15-3.68.58-1.48.87-6.02 6.54-6.02 6.54s1.29 2.35-.2 3.65-4.7-1.87-5.53-3.89c-.82-2.02-.52-3.38 1.06-5.68z" fill="url(#b)"/><path d="m92.48 98.4s4.48 6.65 5.96 8.75c1.48 2.11 11.01 8.12 11.01 8.12s6.45-.89 6.74 1.73c.35 3.19-4.16 3.76-6.46 3.46-8.44-1.08-18.12-7.78-19.95-9.6-1.84-1.81 1.59-12.34 2.7-12.46z" fill="url(#c)"/><path d="m46.54 110.05c2.43 1.03 5.37 1.95 8.89 2.84 13.03 3.28 32.39.08 38.1-4.61 1.71-1.4 2.84-3.66 3.67-6.4.95-3.15 1.51-6.94 2.09-10.82.31-2.06.08-3.72.32-4.95.25-1.19.38-1.88.38-1.88s1.86-13.01-.67-19.33c-2.53-6.31-4.34-8.64-5.82-7.39-.53.45-.95 1.89-1.35 3.86-.78 3.93-1.48 9.98-2.87 14.44-.61 1.95-1.36 3.59-2.3 4.63-3.7 4.05-10.88 5.92-19.05 5.2-1.05-.09-2.13-.22-3.22-.41-4.84-.81-8.85-2.14-12.13-3.09-3.14-.91-5.6-1.48-7.47-.93-3.81 1.14-7.68 7.44-7.8 16.07-.09 6.29 2.66 9.97 9.23 12.77z" fill="#b77737"/><path d="m50.6 86.14c-.37 3.43 4.18 7.92 8.04 6.74 3.27-1 6.78-5.39 9.33-7.1-1.06-.09-2.13-.23-3.22-.41-4.84-.81-8.86-2.14-12.13-3.09-.91.9-1.84 2.19-2.02 3.86zm23.35 5.12c2.13 1.93-.01 7.46-4.03 5.44-4-2.03 1.07-8.13 4.03-5.44z" fill="#332114"/><path d="m132.27 88.92s-4.36 5.07-9.03 5.27c-4.66.2-13.91-3.82-13.91-3.82l-.9-3.89 19.67.61z" fill="#965923"/><path d="m109.5 90.39s-4.41-1.77-6.54-.56c-2.13 1.22-3.45 2.43-3.45 2.43s-1.93-3.65-1.62-3.96c.3-.3 5.07-5.37 5.98-5.48.91-.1 5.07 2.18 5.07 2.18z" fill="#b77737"/><path d="m109.15 87.34c.15.1 1.22 4.97-.66 7.55-1.88 2.59-3.4 2.18-5.78 4.41s0 7.4 4.01 6.59 6.03-2.94 7.25-6.19c1.33-3.55.41-9.58.41-9.58z" fill="#db370b"/><path d="m111.14 87.95s1.23 4.06.4 7.24-3.61 5.67-3.61 5.67 3.79-1.41 4.64-5 .08-7.03.08-7.03z" fill="#bc1f00"/><path d="m107.63 54.23c-4.59-1.34-11.36-1.01-13.39 1.83s-1.12 10.14-2.84 15.31-3.04 7.91-3.04 7.91 1.83 8.11 5.07 10.65c3.25 2.54 5.12 3.3 5.12 3.3l6.44-7.15s6.39 5.37 15.41 6.29c3.54.36 7.1-3.25 8.32-3.35s3.28 1.33 5.07.81c3.85-1.12 6.49-8.82 6.39-14.3s-4.66-7.61-8.82-8.62-13.79-3.04-16.53-4.77c-2.74-1.72-4.77-7.2-7.2-7.91z" fill="#b77737"/><path d="m109.41 88.95s-3.13-1.48-6.83-5.16c-4.06-4.03-5.55-10.32-5.55-10.32s.96 7.33 5.07 11.43c4.11 4.11 7.45 5.55 7.45 5.55z" fill="#965923"/><path d="m110.35 59.32c-2.71.43-.23 5.52 1.39 5.14 1.62-.39.25-5.4-1.39-5.14zm-8.04 1.44c-1.94.3-.58 5.4 1.19 5.12s.34-5.35-1.19-5.12z" fill="#332114"/><path d="m88.36 78.26s-2.14-.5-2.64.61.55 4.92 5.95 9.62 10.39 5.74 10.99 4.68c.59-1.06-.88-2.59-.88-2.59l-1.42.96s-3.66-.57-7.5-3.87-5.65-7.46-5.65-7.46.48-.64.62-.87c.15-.26.53-1.08.53-1.08z" fill="#7f1206"/><path d="m85.71 78.87s-.98 1.53-1.98 2.5-2.47 1.54-2.47 1.54.39 5.54 7.42 10.5 10.78 5.57 10.78 5.57.76-1.64 1.58-3.02 1.58-2.73 1.58-2.73-3.25 1.36-10.01-3.97c-7.12-5.62-6.9-10.39-6.9-10.39z" fill="#d61c03"/><path d="m42.78 83.98s-9.08-2.94-12.42-7.35-6.87-16.03-9.8-15.03-5.16 9.68 1.99 18.64 20.12 6.18 20.12 6.18z" fill="url(#e)"/><path d="m101.83 53.2c.64 1.29-.87 1.73-1.98 2.91s-1.11 2.1-1.98 1.73-.62-2.23.25-3.47c.86-1.23 3.15-2.28 3.71-1.17z" fill="#56280a"/><path d="m46.54 110.05c2.43 1.03 5.37 1.95 8.89 2.84 13.03 3.28 32.39.08 38.1-4.61 1.71-1.4 2.84-3.66 3.67-6.4-.29-.95-.96-1.53-2.05-1.05-1.87.83-2.3 7.69-12.66 9.39s-19.68 1.12-25.07-.12-7.57-4.54-9.43-2.13c-.59.77-1.11 1.44-1.45 2.08z" fill="#f4d592"/><path d="m86.47 105.33s.82 3.21 1.76 5.06 9.27 10.76 9.27 10.76 7.18-.14 7.43 3.26c.16 2.08-4.11 2.69-7.9 2.6-3.11-.07-14.95-7.29-16.74-9.36s-2.57-6.43-2.7-7.78c-.12-1.34 5.85-9.14 8.88-4.54zm-40.64 4.58c-8.1 1.62-12.72-2.29-14.83-1.38s-7.22 7.17-7.22 7.17 1.03 2.53-.63 3.86-6.69-1.91-6-5.69 10.24-15.08 12.32-16.28 6.89-3.09 10.24-4.88 12.71.79 13.61 6.73-2 9.38-7.49 10.47z" fill="#b77737"/><path d="m95.38 58.44c-1.51 1.09-1.75-1.29-6.16-1.9s-9.51.15-14.45-2.13-5.63-7.61-1.14-7.99 6.24 1.83 9.89 2.89c2.58.75 7.45 1.98 9.81 4.26 2.35 2.29 3.42 3.88 2.05 4.87z" fill="url(#f)"/><path d="m106.54 55.44c-1.71.72-1.42-1.65-5.58-3.23s-9.3-1.98-13.61-5.31-3.79-8.67.67-8.04 5.67 3.17 8.99 5.03c2.35 1.31 6.82 3.59 8.61 6.34 1.79 2.76 2.47 4.55.92 5.21z" fill="url(#g)"/><path d="m106.36 65.64s-1.47-1.32-3.45-1.17-2.94 1.98-2.94 1.98l3.04.91zm3.14-.86s0-1.47 1.67-1.77 3.3.71 3.3.71l-1.37 1.42-2.59.35z" fill="#b77737"/><path d="m106.81 53.25c-.05 1.36 1.42 1.16 2.84 1.74s1.78 1.38 2.39.73c.6-.66-.33-2.17-1.56-2.9-1.23-.74-3.62-.75-3.67.43z" fill="#56280a"/><path d="m117.22 75.04c.04.67 1.18 1.88 2.77 3.09 1.46 1.12 3.3 2.23 5.05 2.95 1.39.57 2.72.88 3.75.74 1.07-.15 2.26-.81 3.42-1.74 1.37-1.09 2.69-2.56 3.64-3.99 1.09-1.62 1.72-3.18 1.48-4.11-.49-1.9-5.28-1.1-9.86-.7-4.59.4-10.36 2-10.25 3.76z" fill="#63381b"/><path d="m119.98 78.13c1.46 1.12 3.3 2.23 5.05 2.95.48-.56 1.02-1.56.12-2.74-1.38-1.83-4.18-2.03-4.78-.97-.17.29-.29.55-.39.76zm10.99-.09c-.01.87.65 1.58 1.23 2.04 1.37-1.09 2.69-2.56 3.64-3.99-.11-.49-.43-1.05-1.31-1.17-1.53-.22-3.54 1.59-3.56 3.12z" fill="#332114"/></svg>