<svg enable-background="new 0 0 157.74 231.07" viewBox="0 0 157.74 231.07" xmlns="http://www.w3.org/2000/svg" xmlns:xlink="http://www.w3.org/1999/xlink"><linearGradient id="a"><stop offset="0" stop-color="#b5643a"/><stop offset="1" stop-color="#894233"/></linearGradient><linearGradient id="b" gradientUnits="userSpaceOnUse" x1="19.6329" x2="13.3162" xlink:href="#a" y1="103.3911" y2="103.3911"/><linearGradient id="c"><stop offset="0" stop-color="#994a22"/><stop offset="1" stop-color="#691d13"/></linearGradient><linearGradient id="d" gradientUnits="userSpaceOnUse" x1="10.3605" x2="19.1967" xlink:href="#c" y1="104.2711" y2="104.2711"/><linearGradient id="e" gradientUnits="userSpaceOnUse" x1="29.3969" x2="40.3501" y1="115.8189" y2="96.8473"><stop offset="0" stop-color="#512332"/><stop offset="1" stop-color="#3d1123"/></linearGradient><linearGradient id="f" gradientUnits="userSpaceOnUse" x1="58.5758" x2="53.0936" xlink:href="#a" y1="133.0761" y2="133.0761"/><linearGradient id="g" gradientUnits="userSpaceOnUse" x1="50.4721" x2="58.0395" xlink:href="#c" y1="132.2061" y2="132.2061"/><linearGradient id="h" gradientUnits="userSpaceOnUse" x1="32.8789" x2="46.2769" xlink:href="#c" y1="106.1087" y2="82.9028"/><linearGradient id="i" gradientUnits="userSpaceOnUse" x1="33.6675" x2="46.9716" xlink:href="#c" y1="106.4557" y2="83.4124"/><linearGradient id="j" gradientUnits="userSpaceOnUse" x1="98.229" x2="82.0715" y1="15.0282" y2="41.9188"><stop offset="0" stop-color="#7e2f21"/><stop offset="1" stop-color="#da5e27"/></linearGradient><linearGradient id="k" gradientUnits="userSpaceOnUse" x1="48.3833" x2="54.9798" y1="25.9057" y2="37.3312"><stop offset="0" stop-color="#4e1212"/><stop offset="1" stop-color="#371212"/></linearGradient><linearGradient id="l" gradientUnits="userSpaceOnUse" x1="28.7393" x2="31.5389" xlink:href="#c" y1="137.5573" y2="132.7083"/><linearGradient id="m" gradientUnits="userSpaceOnUse" x1="43.6588" x2="49.1433" xlink:href="#a" y1="142.5811" y2="142.5811"/><linearGradient id="n" gradientUnits="userSpaceOnUse" x1="63.6928" x2="98.5763" xlink:href="#c" y1="97.6675" y2="158.0874"/><linearGradient id="o"><stop offset="0" stop-color="#835d60"/><stop offset="1" stop-color="#715255"/></linearGradient><linearGradient id="p" gradientUnits="userSpaceOnUse" x1="15.6555" x2="16.5551" xlink:href="#o" y1="103.9099" y2="105.5329"/><linearGradient id="q" gradientUnits="userSpaceOnUse" x1="40.4903" x2="38.9934" xlink:href="#o" y1="108.4516" y2="106.2323"/><linearGradient id="r" gradientUnits="userSpaceOnUse" x1="39.8466" x2="40.806" xlink:href="#o" y1="106.9863" y2="108.7171"/><linearGradient id="s" gradientUnits="userSpaceOnUse" x1="17.9222" x2="20.7288" xlink:href="#a" y1="83.114" y2="76.8104"/><linearGradient id="t" gradientUnits="userSpaceOnUse" x1="25.0516" x2="27.8582" xlink:href="#a" y1="87.2304" y2="80.9267"/><linearGradient id="u" gradientUnits="userSpaceOnUse" x1="32.1811" x2="34.9877" xlink:href="#a" y1="91.3465" y2="85.0429"/><linearGradient id="v" gradientUnits="userSpaceOnUse" x1="39.3123" x2="42.119" xlink:href="#a" y1="95.4637" y2="89.1601"/><linearGradient id="w"><stop offset="0" stop-color="#b2908d"/><stop offset="1" stop-color="#4e1212"/></linearGradient><linearGradient id="x" gradientUnits="userSpaceOnUse" x1="99.5534" x2="89.5909" xlink:href="#w" y1="97.3075" y2="80.0518"/><linearGradient id="y" gradientUnits="userSpaceOnUse" x1="96.3086" x2="81.9296" xlink:href="#w" y1="101.0761" y2="101.0761"/><linearGradient id="z" gradientUnits="userSpaceOnUse" x1="75.444" x2="61.3159" y1="32.6321" y2="56.1451"><stop offset="0" stop-color="#b19385"/><stop offset="1" stop-color="#da5e27"/></linearGradient><linearGradient id="A" gradientUnits="userSpaceOnUse" x1="90.3302" x2="98.7678" y1="33.499" y2="48.1134"><stop offset="0" stop-color="#876965"/><stop offset="1" stop-color="#7a2516"/></linearGradient><linearGradient id="B" gradientUnits="userSpaceOnUse" x1="82.8636" x2="88.4687" y1="39.8856" y2="64.1641"><stop offset="0" stop-color="#756062"/><stop offset="1" stop-color="#644b4c"/></linearGradient><linearGradient id="C"><stop offset="0" stop-color="#ffd76c"/><stop offset=".57" stop-color="#dd9d55"/><stop offset="1" stop-color="#af5c35"/></linearGradient><linearGradient id="D" gradientUnits="userSpaceOnUse" x1="17.7229" x2="19.6164" xlink:href="#C" y1="63.4836" y2="66.8996"/><linearGradient id="E"><stop offset="0" stop-color="#b5643a"/><stop offset="1" stop-color="#7a2516"/></linearGradient><linearGradient id="F" gradientUnits="userSpaceOnUse" x1="16.3127" x2="17.781" xlink:href="#E" y1="69.2111" y2="69.2111"/><linearGradient id="G" gradientUnits="userSpaceOnUse" x1="16.3127" x2="17.781" xlink:href="#E" y1="64.9711" y2="64.9711"/><linearGradient id="H" gradientUnits="userSpaceOnUse" x1="17.4768" x2="17.8206" xlink:href="#E" y1="66.6346" y2="65.1453"/><linearGradient id="I" gradientUnits="userSpaceOnUse" x1="61.3792" x2="63.2728" xlink:href="#C" y1="88.6871" y2="92.1032"/><linearGradient id="J" gradientUnits="userSpaceOnUse" x1="59.9676" x2="61.4359" xlink:href="#E" y1="94.4111" y2="94.4111"/><linearGradient id="K" gradientUnits="userSpaceOnUse" x1="59.9676" x2="61.4359" xlink:href="#E" y1="90.1811" y2="90.1811"/><linearGradient id="L" gradientUnits="userSpaceOnUse" x1="61.1367" x2="61.4806" xlink:href="#E" y1="91.84" y2="90.3507"/><linearGradient id="M" gradientUnits="userSpaceOnUse" x1="25.3858" x2="26.8541" xlink:href="#E" y1="68.3361" y2="68.3361"/><linearGradient id="N" gradientUnits="userSpaceOnUse" x1="22.8544" x2="24.3227" xlink:href="#E" y1="68.5311" y2="68.5311"/><linearGradient id="O" gradientUnits="userSpaceOnUse" x1="24.2785" x2="25.6224" xlink:href="#E" y1="70.4262" y2="68.3569"/><linearGradient id="P" gradientUnits="userSpaceOnUse" x1="25.2415" x2="26.7098" xlink:href="#E" y1="71.5411" y2="71.5411"/><linearGradient id="Q" gradientUnits="userSpaceOnUse" x1="22.8544" x2="24.3227" xlink:href="#E" y1="71.7761" y2="71.7761"/><linearGradient id="R" gradientUnits="userSpaceOnUse" x1="24.3262" x2="25.7692" xlink:href="#E" y1="73.7464" y2="71.5243"/><linearGradient id="S" gradientUnits="userSpaceOnUse" x1="25.3858" x2="26.8541" xlink:href="#E" y1="74.8911" y2="74.8911"/><linearGradient id="T" gradientUnits="userSpaceOnUse" x1="31.359" x2="32.8625" xlink:href="#E" y1="71.8661" y2="71.8661"/><linearGradient id="U" gradientUnits="userSpaceOnUse" x1="29.7509" x2="31.2039" xlink:href="#E" y1="75.1361" y2="75.1361"/><linearGradient id="V" gradientUnits="userSpaceOnUse" x1="38.6026" x2="40.0234" xlink:href="#C" y1="79.2662" y2="81.8294"/><linearGradient id="W" gradientUnits="userSpaceOnUse" x1="38.082" x2="39.3183" xlink:href="#E" y1="78.2329" y2="76.6505"/><linearGradient id="X" gradientUnits="userSpaceOnUse" x1="39.1236" x2="41.7615" xlink:href="#E" y1="76.8861" y2="76.8861"/><linearGradient id="Y" gradientUnits="userSpaceOnUse" x1="43.1596" x2="44.9154" xlink:href="#E" y1="79.3111" y2="79.3111"/><linearGradient id="Z" gradientUnits="userSpaceOnUse" x1="44.2229" x2="44.4116" xlink:href="#E" y1="81.3905" y2="79.8536"/><linearGradient id="aa" gradientUnits="userSpaceOnUse" x1="47.7888" x2="49.5752" xlink:href="#E" y1="84.5711" y2="84.5711"/><linearGradient id="ab" gradientUnits="userSpaceOnUse" x1="43.1655" x2="44.9094" xlink:href="#E" y1="84.3861" y2="84.3861"/><linearGradient id="ac" gradientUnits="userSpaceOnUse" x1="54.1575" x2="55.8811" xlink:href="#C" y1="86.0794" y2="89.9507"/><linearGradient id="ad" gradientUnits="userSpaceOnUse" x1="51.235" x2="53.7833" xlink:href="#E" y1="87.7372" y2="86.0182"/><linearGradient id="ae"><stop offset="0" stop-color="#f9f4df"/><stop offset=".18" stop-color="#f9f4df"/><stop offset=".46" stop-color="#eddac9"/><stop offset=".69" stop-color="#c99b8a"/><stop offset="1" stop-color="#ac6c5a"/></linearGradient><linearGradient id="af" gradientUnits="userSpaceOnUse" x1="36.442" x2="38.9549" xlink:href="#ae" y1="54.8222" y2="59.1746"/><linearGradient id="ag" gradientUnits="userSpaceOnUse" x1="32.9984" x2="35.4066" xlink:href="#ae" y1="58.0678" y2="62.2388"/><linearGradient id="ah" gradientUnits="userSpaceOnUse" x1="42.2892" x2="44.6122" xlink:href="#ae" y1="58.1719" y2="62.1956"/><linearGradient id="ai" gradientUnits="userSpaceOnUse" x1="45.79" x2="47.8599" xlink:href="#ae" y1="65.447" y2="69.0322"/><linearGradient id="aj" gradientUnits="userSpaceOnUse" x1="40.0646" x2="43.0233" y1="65.0727" y2="70.4102"><stop offset="0" stop-color="#efddcc"/><stop offset=".18" stop-color="#efddcc"/><stop offset=".46" stop-color="#eddac9"/><stop offset=".69" stop-color="#c99b8a"/><stop offset="1" stop-color="#ac6c5a"/></linearGradient><linearGradient id="ak" gradientUnits="userSpaceOnUse" x1="27.368" x2="24.6911" xlink:href="#c" y1="139.1793" y2="145.4856"/><linearGradient id="al" gradientUnits="userSpaceOnUse" x1="104.5278" x2="108.1348" y1="120.5775" y2="133.1567"><stop offset="0" stop-color="#bd6628"/><stop offset="1" stop-color="#994a22"/></linearGradient><linearGradient id="am" gradientUnits="userSpaceOnUse" x1="91.0391" x2="82.3481" xlink:href="#c" y1="124.1946" y2="124.4981"/><linearGradient id="an" gradientUnits="userSpaceOnUse" x1="72.4636" x2="92.2373" xlink:href="#c" y1="130.0638" y2="164.3128"/><linearGradient id="ao" gradientUnits="userSpaceOnUse" x1="73.492" x2="75.601" xlink:href="#c" y1="130.3911" y2="130.3911"/><linearGradient id="ap" gradientUnits="userSpaceOnUse" x1="74.9977" x2="94.7714" xlink:href="#c" y1="149.5622" y2="183.8112"/><linearGradient id="aq" gradientUnits="userSpaceOnUse" x1="76.023" x2="78.132" xlink:href="#c" y1="149.8911" y2="149.8911"/><linearGradient id="ar" gradientUnits="userSpaceOnUse" x1="6.686" x2="26.4596" xlink:href="#c" y1="108.1593" y2="142.4083"/><linearGradient id="as" gradientUnits="userSpaceOnUse" x1="7.714" x2="9.823" xlink:href="#c" y1="108.4911" y2="108.4911"/><ellipse clip-rule="evenodd" cx="78.3" cy="228.52" fill="#e51e25" fill-rule="evenodd" rx="4.61" ry="2.05"/><path d="m78.3 231.07c-2.91 0-5.11-1.1-5.11-2.55s2.2-2.55 5.11-2.55 5.11 1.1 5.11 2.55-2.19 2.55-5.11 2.55zm0-4.11c-2.55 0-4.11.9-4.11 1.55s1.56 1.55 4.11 1.55 4.11-.9 4.11-1.55-1.56-1.55-4.11-1.55z" fill="#fff"/><path clip-rule="evenodd" d="m78.3 151.05v77.47" fill="#e51e25" fill-rule="evenodd"/><path d="m77.8 151.05h1v77.46h-1z" fill="#e51e25"/><g clip-rule="evenodd" fill-rule="evenodd"><path d="m12.93 80.62 1.39 6.07 1.71 6.22 2.13 6.74 2.37 6.79 1.94 5.01-.01-.01-9.83-25.34-.34-.19v.39l10.2 26.29.12.07v1.61c0 .42.11.88.31 1.32l.65 1.68.22.43.26.4.3.36.33.31.36.25.36.16.33.07.3-.02.26-.1.22-.18.16-.25.09-.28.35.9.21.44.26.41.3.36.34.31.37.23.37.15.34.06.3-.02.26-.1.21-.17.16-.25.09-.29.35.9.22.43.26.4.3.37.33.31.36.25.36.16.33.07.3-.02.26-.1.22-.18.16-.25.09-.28.35.9.21.44.26.41.3.36.34.31.37.23.37.15.34.06.3-.02.26-.1.21-.17.16-.25.09-.29.35.9.22.43.26.4.3.37.33.31.36.25.36.16.33.07.3-.02.26-.1.22-.18.16-.25.09-.28.35.9.21.44.26.41.3.36.34.3.37.23.37.15.34.06.3-.02.26-.09.21-.17.16-.24.09-.29.35.91.22.43.26.4.3.36.33.31.36.25.36.16.33.07.3-.02.26-.1.22-.18.17-.25.09-.3.35.9.22.43.26.4.3.37.33.31.36.25.36.16.33.07.3-.02.26-.1.22-.18.16-.25.09-.3.35.9.22.43.26.4.3.37.33.31.36.25.36.16.33.07.3-.02.26-.1.22-.18.17-.25.1-.33.04-.39v-1.21-1.7l.16.09.33.19v-.39l-.1-.25-.19-.49-.08-.22-.09-.23-.09-.23-.27-.7-.09-.23-.09-.23-.09-.23-4.41-11.37-.09-.23-.09-.23-.09-.23-.09-.23-.09-.23-.09-.23-.09-.23-1.18-3.76-1.62-5.85-1.9-8.32-32.09-18.53v1.55zm11.48 36.74.65 1.68zm28.52 16.47.65 1.68z" fill="#2c111d"/><path d="m78.3 89.24 79.44-45.87-75.14-43.37-79.43 45.86 70.59 44.84z" fill="#faa62d"/><path d="m83.97 85.96 73.77-42.59-75.14-43.37-73.76 42.58z" fill="#933e2f"/><path d="m15.97 85.22 32.09 18.53v34.58l-32.09-18.52z" fill="#fec35b"/><path d="m19 93.05v28.51l-3.66-1.1-1.06-28.91v-2.57l1.69-3.76 32.09 18.53v6.07z" fill="url(#b)"/><path d="m19 88.61v29.35l27.64 15.95v-29.34z" fill="#835461"/><path d="m12.93 121.56 32.09 18.53 3.04-1.76-32.09-18.52z" fill="#957673"/><path d="m12.93 86.98-4.12 18.1 4.12 16.48 2.53-.71.51-1.04v-31.08z" fill="url(#d)"/><path d="m12.93 121.56 3.04-1.75 3.04 1.75z" fill="#984c38"/><path d="m19 90.48v29.44l26.02 15.02v-2.59z" fill="#ffd76c"/><path d="m17.39 89.55v23.1 6.34l1.61.93h3.64l.32-7.27h-1.15v-20.55z" fill="#984c38"/><path d="m18.15 89.99v28.56l26.87 15.52v-28.56z" fill="url(#e)"/><path d="m20.52 119.92 24.5 14.15v-1.69l-.03.1-.16.25-.21.17-.26.1-.3.02-.34-.06-.37-.15-.37-.23-.34-.31-.3-.36-.26-.41-.21-.44-.35-.9-.09.28-.16.25-.22.18-.26.1-.3.02-.33-.07-.36-.16-.36-.25-.33-.31-.3-.37-.26-.4-.22-.43-.35-.9-.09.29-.16.25-.21.17-.26.1-.3.02-.34-.06-.37-.15-.37-.23-.34-.3-.3-.36-.26-.41-.21-.44-.35-.9-.09.28-.16.25-.22.18-.26.1-.3.02-.33-.07-.36-.16-.36-.25-.33-.31-.3-.36-.26-.4-.22-.43-.65-1.68c-.19-.44-.31-.9-.31-1.32v-1.61l-.12-.07-7.32-18.87c-.09 1.76-.14 4.63-.14 4.34v-1.61l-.12-.07-1.85.6c-.13 3.18-.2 11.64-.2 15.28zm3.87-17.01 1.37 4.33 2.37 6.79 1.94 5.01-.01-.01-7.22-18.62c.03-.31.06-.48.1-.39l.65 1.68.22.43.26.4.3.36zm7.61 22.04.65 1.68zm-11.32-21.4 1.79-.73-1.79.75z" fill="#835461"/><path d="m52.24 154.74h6.07l10.23-11.85-16.3-1.87z" fill="#a17d86"/><path d="m68.54 119.08-13.26-7.65v41.56l13.26 7.66 1-18.87z" fill="#fec35b"/><path d="m58.31 154.74v-14.66l.08.16.26.4.3.37.33.31.36.25.36.16.33.07.3-.02.26-.1.22-.18.16-.25.1-.33.04-.39v-1.21-1.7l.16.09.33.19v-.39l-.1-.25-.19-.49-.08-.22-.09-.23-.09-.23-.27-.7-.09-.23-.09-.23-.09-.23-2.53-6.51v-4.32c.33-.17.78-.13 1.28.16.52.3.99.81 1.32 1.4.34.59.81 1.1 1.32 1.4.52.3.99.33 1.32.13.34-.2.81-.17 1.32.13.52.3.98.81 1.32 1.4s.81 1.1 1.32 1.4c.52.3.99.33 1.32.13.19-.11.41-.15.66-.11l.02-.45-1-10.39-10.23-5.91-3.04-1.75v2.57l-1.81 19.38 1.81 19.61zm.69-14.84.65 1.68z" fill="url(#f)"/><path d="m58.31 137.95v14.54l10.23 5.91v-14.54z" fill="#ffd76c"/><path d="m56.37 136.83v10.17 4.37l1.94 1.12h3.63v-5.49h-1.14v-7.62z" fill="#984c38"/><path d="m57.13 137.27v13.66l11.41 6.59v-13.66z" fill="#512332"/><path d="m59.83 141.6v10.89l8.71 5.03v-12.73l-5.59-3.23v.5l-.04.39-.1.33-.17.25-.22.18-.26.1-.3.02-.33-.07-.36-.16-.36-.25-.33-.31-.3-.37-.26-.4zm.69-.18.65 1.68z" fill="#835461"/><path d="m58.31 111.21 3.23 25.3 7 4.05v-23.44z" fill="#ffd76c"/><path d="m56.37 110.09v19.07 4.37l5.17 2.98.75-.44-.35-1.42v-5.49h-1.14v-16.51z" fill="#984c38"/><path d="m57.13 110.53v22.56l11.41 6.59v-22.56z" fill="#512332"/><path d="m59.83 117.12v12.6l2.46 6.35 6.25 3.61v-17.53z" fill="#835461"/><path d="m52.24 109.67-3.1 19.99 3.1 25.08 3.04-1.75v-1.78-18.69-21.1z" fill="url(#g)"/><path d="m78.3 169.79v-80.55l-75.13-43.38v80.55l49.07 28.33v-5.63-5.63-5.63-3.83l-.82-7.34.82-4.53v-6.83-5.63l16.3 9.41v45.07zm-65.37-82.81 32.09 18.52.56 22.25-.56 1.97v10.37l-32.09-18.53z" fill="#f8972a"/><path d="m52.24 134.01v-11.88l-1.88-4.85-.09-.23-.09-.23-.09-.23-.09-.23-.09-.23-.09-.23-.09-.23-1.18-3.76-1.62-5.85-1.9-8.32-32.09-18.53v1.43l1.39 6.07.36 1.3 30.33 17.49v24.22l.17.34.26.4.3.36.33.31.36.25.36.16.33.07.3-.02.26-.1.22-.18.17-.25.09-.3.35.9.22.43.26.4.3.37.33.31.36.25.36.16.33.07.3-.02.26-.1.22-.18.16-.25.09-.3.35.9zm-39.25-47-.06-.03v.95l-.63-1.63v-.39l.34.19z" fill="url(#h)"/><path d="m78.3 118.43 2.87-3.67-2.87-2.68-75.13-43.38 3.17 8.17c71.08 41.05 8.1 4.69 71.96 41.56z" fill="url(#i)"/><path d="m83.65 86.15 4.23.45 1.72-3.88-57.59-33.25-4.11 2.37-13.43-2.37-2.52 1.45 59.75 35.59 1.26-.36z" fill="#994a22"/><path d="m89.6 82.72-57.59-33.25-4.11 2.37-4.36-.77 60.43 34.89 3.51.96z" fill="#4e1212"/><path d="m72.96 86.15-1.58-.92-1.25 2.2 1.25 16.5 1.58.92z" fill="#994a22"/><path d="m75.13 113.92v-4.13l26.39-15.24v4.14z" fill="#7a2516"/><path d="m75.13 113.92v-4.13l-75.13-43.38v4.13z" fill="#bc5027"/><path d="m78.3 107.95-3.17 1.84-75.13-43.38 3.17-1.83z" fill="#da5e27"/><path d="m69.79 103.04 3.13 1.81h-3.13z" fill="#7a2516"/><path d="m146.4 43.37c-24.47-14.12-39.38-22.73-63.8-36.83l-68.09 39.31 63.79 36.83z" fill="url(#j)"/><path d="m86.42 16.38-3.82-9.84-68.09 39.32 6.61 3.82z" fill="url(#k)"/><path d="m21.12 49.68 3.82 2.2 61.48-35.5-3.82-2.2z" fill="#7a2516"/><path d="m24.94 51.88 53.36 30.81 61.49-35.5-53.37-30.81z" fill="#da5e27"/><path d="m36.81 58.73 41.49 23.96 2.83-1.63-41.49-23.96z" fill="#7a2516"/><path d="m10.36 34.3 59.43 34.32v36.23l-59.43-34.32z" fill="#7e2f21"/><path d="m73.9 66.24-4.11 2.38-59.43-34.32 4.11-2.37z" fill="#933e2f"/><path d="m11.51 122.63 2.49 6.42 34.95 20.19v-1.9l-2.49-6.43-13.88-6.15-21.08-14.03z" fill="url(#l)"/><path d="m43.96 142.36-15.85-7.95-19.1-12.24 1.6-.92.89-.52 34.96 20.18z" fill="#ffd76c"/><path d="m46.46 142.81-2.5 1.44v-1.9l2.5-1.44z" fill="url(#m)"/><path d="m9.01 124.07 34.95 20.18v-1.9l-34.95-20.18z" fill="#fec35b"/><path d="m45.02 140.09-22.34-11.12-9.75-7.41h6.08l26.01 15.02z" fill="#ffd76c"/><path d="m83.97 166.52v-80.56l73.77-42.58v80.55z" fill="#4e1212"/><path d="m84.36 113.24c4.48-1.24 6.16 5.18 6.16 7.35s4.67 17.84-1.75 20.95-9.7-6.05-9.7-8.23.81-18.83 5.29-20.07z" fill="#4e1212"/><path d="m84.39 113.37c4.35-1.21 5.99 5.02 5.99 7.15s4.58 17.43-1.65 20.46c-6.23 3.02-9.47-5.85-9.47-7.98-.01-2.14.78-18.42 5.13-19.63z" fill="#4c1211"/><path d="m84.42 113.5c4.22-1.18 5.82 4.86 5.82 6.94 0 2.09 4.48 17.03-1.55 19.96-6.04 2.93-9.25-5.66-9.25-7.74s.76-17.98 4.98-19.16z" fill="#4c1211"/><path d="m84.45 113.64c4.1-1.15 5.65 4.7 5.65 6.74s4.39 16.63-1.46 19.47-9.02-5.46-9.02-7.5.73-17.57 4.83-18.71z" fill="#4b1212"/><path d="m84.48 113.77c3.97-1.12 5.49 4.54 5.49 6.54s4.3 16.23-1.36 18.98-8.8-5.26-8.8-7.26.7-17.14 4.67-18.26z" fill="#4b1212"/><path d="m84.52 113.9c3.84-1.08 5.32 4.38 5.32 6.33 0 1.96 4.21 15.82-1.26 18.49-5.47 2.66-8.57-5.06-8.57-7.01-.01-1.95.66-16.72 4.51-17.81z" fill="#4b1212"/><path d="m84.55 114.04c3.72-1.05 5.15 4.22 5.15 6.13s4.12 15.42-1.16 17.99-8.34-4.86-8.34-6.77c-.01-1.91.63-16.3 4.35-17.35z" fill="#4a1212"/><path d="m84.58 114.17c3.59-1.02 4.98 4.06 4.98 5.93s4.03 15.02-1.07 17.5-8.12-4.66-8.12-6.53c0-1.86.62-15.87 4.21-16.9z" fill="#4a1212"/><path d="m84.61 114.31c3.46-.99 4.81 3.9 4.81 5.73s3.94 14.62-.97 17.01-7.89-4.46-7.89-6.29.59-15.46 4.05-16.45z" fill="#481211"/><path d="m84.64 114.44c3.33-.96 4.64 3.74 4.64 5.52s3.85 14.22-.87 16.52-7.67-4.26-7.67-6.04c.01-1.79.57-15.04 3.9-16z" fill="#471212"/><path d="m84.68 114.57c3.21-.93 4.48 3.58 4.48 5.32s3.76 13.81-.77 16.02-7.44-4.06-7.44-5.8c-.02-1.73.52-14.61 3.73-15.54z" fill="#471212"/><path d="m84.71 114.71c3.08-.9 4.31 3.42 4.31 5.12s3.66 13.41-.68 15.53-7.22-3.86-7.22-5.56.51-14.19 3.59-15.09z" fill="#461212"/><path d="m84.74 114.84c2.95-.87 4.14 3.26 4.14 4.92 0 1.65 3.57 13.01-.58 15.04s-6.99-3.66-6.99-5.32c0-1.65.48-13.77 3.43-14.64z" fill="#451212"/><path d="m84.77 114.97c2.83-.84 3.97 3.1 3.97 4.71s3.48 12.61-.48 14.55-6.77-3.46-6.77-5.07c.01-1.61.45-13.35 3.28-14.19z" fill="#451212"/><path d="m84.8 115.11c2.7-.81 3.8 2.95 3.8 4.51 0 1.57 3.39 12.2-.38 14.05-3.78 1.85-6.54-3.26-6.54-4.83s.42-12.92 3.12-13.73z" fill="#441212"/><path d="m84.83 115.24c2.57-.78 3.64 2.79 3.64 4.31s3.3 11.8-.29 13.56-6.31-3.07-6.31-4.59.39-12.5 2.96-13.28z" fill="#441212"/><path d="m84.87 115.37c2.45-.75 3.47 2.63 3.47 4.11s3.21 11.4-.19 13.07-6.09-2.87-6.09-4.35.36-12.08 2.81-12.83z" fill="#421211"/><path d="m84.9 115.51c2.32-.72 3.3 2.47 3.3 3.9 0 1.44 3.12 11-.09 12.58s-5.86-2.67-5.86-4.1c-.01-1.44.33-11.67 2.65-12.38z" fill="#421312"/><path d="m84.93 115.64c2.19-.69 3.13 2.31 3.13 3.7s3.03 10.59.01 12.08-5.64-2.47-5.64-3.86.31-11.23 2.5-11.92z" fill="#421312"/><path d="m84.96 115.77c2.06-.66 2.96 2.15 2.96 3.5s2.94 10.19.1 11.59c-2.83 1.4-5.41-2.27-5.41-3.62.01-1.34.29-10.81 2.35-11.47z" fill="#401211"/><path d="m84.99 115.91c1.94-.63 2.79 1.99 2.79 3.29 0 1.31 2.85 9.79.2 11.1-2.64 1.31-5.19-2.07-5.19-3.37.01-1.31.27-10.4 2.2-11.02z" fill="#3f1212"/><path d="m85.03 116.04c1.81-.6 2.63 1.83 2.63 3.09s2.75 9.39.3 10.61c-2.46 1.22-4.96-1.87-4.96-3.13-.01-1.27.22-9.98 2.03-10.57z" fill="#3f1212"/><path d="m85.03 116.08c1.75-.58 2.54 1.75 2.54 2.99s2.63 9.17.26 10.34c-2.36 1.18-4.76-1.79-4.76-3.03s.21-9.72 1.96-10.3z" fill="#3e1312"/><path d="m85.03 116.12c1.68-.57 2.46 1.67 2.46 2.89s2.5 8.95.23 10.08-4.57-1.71-4.57-2.93.2-9.48 1.88-10.04z" fill="#3e1312"/><path d="m85.03 116.15c1.62-.55 2.37 1.59 2.37 2.79s2.37 8.73.2 9.82-4.37-1.63-4.37-2.82c0-1.2.18-9.24 1.8-9.79z" fill="#3d1312"/><path d="m85.03 116.19c1.56-.53 2.29 1.51 2.29 2.69s2.24 8.52.16 9.56-4.18-1.54-4.18-2.72.17-8.99 1.73-9.53z" fill="#3d1312"/><path d="m85.03 116.23c1.49-.52 2.21 1.43 2.21 2.59 0 1.15 2.11 8.3.13 9.3s-3.98-1.46-3.98-2.62c-.01-1.16.15-8.75 1.64-9.27z" fill="#3c1312"/><path d="m85.03 116.27c1.43-.5 2.12 1.35 2.12 2.48s1.99 8.08.1 9.03-3.79-1.38-3.79-2.51.14-8.5 1.57-9z" fill="#3c1312"/><path d="m85.03 116.31c1.36-.49 2.04 1.27 2.04 2.38s1.86 7.87.06 8.77-3.59-1.3-3.59-2.41.13-8.25 1.49-8.74z" fill="#3b1312"/><path d="m85.03 116.35c1.3-.47 1.95 1.19 1.95 2.28s1.73 7.65.03 8.51-3.4-1.22-3.4-2.31c.01-1.09.12-8.01 1.42-8.48z" fill="#3b1312"/><path d="m85.03 116.39c1.24-.46 1.87 1.11 1.87 2.18s1.6 7.43 0 8.25c-1.61.81-3.2-1.14-3.2-2.2 0-1.08.1-7.78 1.33-8.23z" fill="#3a1312"/><path d="m85.04 116.43c1.17-.44 1.79 1.03 1.79 2.08s1.47 7.21-.04 7.98-3.01-1.05-3.01-2.1.08-7.52 1.26-7.96z" fill="#3a1312"/><path d="m85.04 116.46c1.11-.43 1.7.95 1.7 1.98 0 1.02 1.35 7-.07 7.72s-2.81-.97-2.81-2c-.01-1.02.07-7.27 1.18-7.7z" fill="#391312"/><path d="m85.04 116.5c1.05-.41 1.62.87 1.62 1.88 0 1 1.22 6.78-.1 7.46s-2.62-.89-2.62-1.89c-.01-1.01.05-7.04 1.1-7.45z" fill="#391312"/><path d="m85.04 116.54c.98-.4 1.53.79 1.53 1.77s1.09 6.56-.14 7.2c-1.23.63-2.42-.81-2.42-1.79s.05-6.78 1.03-7.18z" fill="#381313"/><path d="m85.04 116.58c.92-.38 1.45.71 1.45 1.67s.96 6.34-.17 6.93c-1.14.59-2.23-.73-2.23-1.69 0-.95.03-6.53.95-6.91z" fill="#381313"/><path d="m85.04 116.62c.86-.37 1.36.64 1.36 1.57 0 .94.84 6.13-.21 6.67-1.04.54-2.03-.65-2.03-1.58.01-.94.02-6.3.88-6.66z" fill="#371212"/><path d="m85.04 116.66c.79-.35 1.28.56 1.28 1.47 0 .92.71 5.91-.24 6.41s-1.84-.57-1.84-1.48c.01-.92.01-6.05.8-6.4z" fill="#371212"/><path d="m85.04 116.7c.73-.34 1.2.48 1.2 1.37s.58 5.69-.27 6.15c-.85.45-1.64-.48-1.64-1.38s-.02-5.81.71-6.14z" fill="#361212"/><path d="m85.04 116.73c.67-.32 1.11.4 1.11 1.27s.45 5.47-.31 5.88-1.45-.4-1.45-1.27c.01-.87-.01-5.56.65-5.88z" fill="#361212"/><path d="m85.04 116.77c.6-.3 1.03.32 1.03 1.17s.32 5.26-.34 5.62-1.25-.32-1.25-1.17-.04-5.31.56-5.62z" fill="#351212"/><path d="m85.05 116.81c.54-.29.94.24.94 1.07s.2 5.04-.37 5.36-1.06-.24-1.06-1.07-.05-5.07.49-5.36z" fill="#351212"/><path d="m85.05 116.85c.48-.27.86.16.86.96 0 .81.07 4.82-.41 5.1-.48.27-.86-.16-.86-.96 0-.81-.07-4.83.41-5.1z" fill="#351212"/><path d="m78.3 169.79v-80.55l5.67-3.28v80.56z" fill="url(#n)"/><path d="m2.05 91.73.34.2 10.2-5.89-.34-.2z" fill="#cbae9b"/><path d="m2.39 91.93 10.2-5.89v.38l-10.2 5.89z" fill="url(#p)"/><path d="m2.05 91.73.63.37v.39l-.63-.37z" fill="#b99e8d"/><path d="m3.02 91.91-.34.19-.63-.37.34-.19z" fill="#cbae9b"/><path d="m39.52 107.14-27.3-14.92-4.79-3.61 1.98-2.31 24.66 12.82 7.43 5.71z" fill="#933e2f"/><path d="m37.32 109.02-32.09-18.52 2.2-1.89 32.09 18.53z" fill="#933e2f"/><path d="m41.5 104.83-32.09-18.53 1.61-2.59 25.24 12.54 6.85 5.99z" fill="#933e2f"/><path d="m31.76 108.88v1.25 1.21l-.04.39-.1.33-.17.25-.22.18-.67.39c-.32.19-.77.16-1.26-.12-.98-.57-1.78-1.96-1.78-3.09v-1.21l.67-.39 2.9 1.67v-1.25zm-7.13-2.86v1.21l-.04.39-.1.33-.17.25-.22.18-.67.39c-.32.19-.77.16-1.26-.12-.98-.57-1.78-1.96-1.78-3.09v-1.21l.67-.39zm-7.13-4.12v1.21l-.04.39-.1.33-.17.25-.22.18-.67.39c-.32.19-.77.16-1.26-.12-.98-.57-1.78-1.96-1.78-3.09v-1.21l.67-.39zm-7.13-4.12v1.21l-.04.39-.1.33-.17.25-.22.18-.67.39c-.32.19-.77.16-1.26-.12-.98-.57-1.78-1.96-1.78-3.09v-1.21l.67-.39z" fill="#af5c35"/><path d="m43.11 102.24-32.09-18.53 1.91-4.52 32.09 18.53z" fill="#933e2f"/><path d="m44.63 98.65-32.09-18.52.39-.94 32.09 18.53z" fill="#4e1212"/><path d="m45.02 99.13-1.38 3.26-.03.06-.03.05-1.67 2.69-.03.05-.04.05-2.05 2.4-.03.04-.04.04-2.29 1.95-.04.03-.04.02-2.03 1.17v1.25 1.21l-.04.39-.1.33-.17.25-.22.18-.67.39c-.32.19-.77.16-1.26-.12-.98-.57-1.78-1.96-1.78-3.09v-1.21l.67-.39 2.9 1.67v-1.25l2.66-1.54 2.21-1.88 1.98-2.32 1.61-2.59 1.91-4.52zm-16.83 8.95v1.21l-.04.39-.1.33-.17.25-.22.18-.67.39c-.32.19-.77.16-1.26-.12-.98-.57-1.78-1.96-1.78-3.09v-1.21l.67-.39zm-7.13-4.12v1.21l-.04.39-.1.33-.16.25-.22.18-.67.39c-.32.19-.77.16-1.26-.12-.98-.57-1.78-1.96-1.78-3.09v-1.21l.67-.39zm-7.13-4.12v1.21l-.04.39-.1.33-.16.25-.22.18-.67.39c-.32.19-.77.16-1.26-.12-.98-.57-1.78-1.96-1.78-3.09v-1.21l.67-.39zm-7.13-4.11v1.21l-.04.39-.1.33-.17.25-.21.18-.67.39c-.32.19-.77.16-1.26-.12-.98-.57-1.78-1.96-1.78-3.09v-1.21l.67-.39z" fill="#4e1212"/><path d="m35.16 110.46-.34.19v.39l.34-.19z" fill="#e6e7e7"/><path d="m34.82 110.65.64.37v.39l-.34-.2z" fill="#b99e8d"/><path d="m35.79 110.83-.33.19-.64-.37.34-.19z" fill="#cbae9b"/><path d="m35.12 110.83.34.19 6.13-3.54-.27-.15-2.02 1.09z" fill="#cbae9b"/><path d="m35.16 110.46.11.06-.33.19.19.5-.3-.17v-.39zm4.14-2.04 6.03-3.48.33.19-1.33.93-2.74 1.42-1.22.44c-.35.16-.71.33-1.07.5z" fill="url(#q)"/><path d="m35.46 111.02 10.2-5.89v.39l-10.2 5.89z" fill="url(#r)"/><path d="m34.65 110.56-25.65-13.36-6.43-5.17 2.66-1.53 7.07 3.08 25.02 15.44z" fill="#933e2f"/><path d="m34.65 113.79-32.08-18.52v-3.24l32.08 18.53z" fill="#7e2f21"/><path d="m34.65 112.58v1.21c0 1.13-.8 1.6-1.78 1.03s-1.78-1.96-1.78-3.09v-1.21zm-7.13-4.12v1.21c0 1.13-.8 1.6-1.78 1.03s-1.78-1.96-1.78-3.09v-1.21zm-7.13-4.11v1.21c0 1.13-.8 1.6-1.78 1.03s-1.78-1.96-1.78-3.09v-1.21zm-7.13-4.12v1.21c0 1.13-.8 1.6-1.78 1.03s-1.78-1.96-1.78-3.09v-1.21zm-7.13-4.12v1.21c0 1.13-.8 1.6-1.78 1.03s-1.78-1.96-1.78-3.09v-1.21z" fill="#7e2f21"/><path d="m31.09 108.5-1.68-.53-1.88-1.53 2.66-1.54 2.21-1.88 1.98-2.32 1.61-2.59 1.52-3.58.4-.94 3.57 2.06-1.91 4.52-1.61 2.59-1.98 2.32-2.21 1.88zm-7.13-4.12 2.66-1.54 2.21-1.88 1.98-2.32 1.61-2.59 1.91-4.52-3.57-2.06-.4.94-1.52 3.58-1.61 2.59-1.98 2.32-2.21 1.88-2.66 1.54 1.88 1.53zm-7.13-4.11-1.68-.53-1.88-1.53 2.66-1.54 2.21-1.88 1.98-2.32 1.61-2.59 1.52-3.58.4-.94 3.57 2.06-1.91 4.52-1.61 2.59-1.98 2.32-2.21 1.88zm-7.13-4.12 2.66-1.54 2.21-1.88 1.98-2.32 1.61-2.59 1.91-4.52-3.57-2.06-.4.94-1.52 3.58-1.61 2.59-1.98 2.32-2.21 1.88-2.65 1.54 1.88 1.53z" fill="#ffd76c"/><path d="m16.1 82.19.4-.94 3.57 2.06-.4.94z" fill="url(#s)"/><path d="m23.23 86.3.4-.93 3.57 2.05-.4.94z" fill="url(#t)"/><path d="m30.36 90.42.4-.94 3.57 2.06-.4.94z" fill="url(#u)"/><path d="m37.49 94.54.4-.94 3.57 2.06-.4.94z" fill="url(#v)"/><path d="m9.7 96.15v3.24c0 1.13-.77 1.53-1.78 1.03-1.01-.51-1.78-1.95-1.78-3.09v-3.24zm7.13 4.12v3.24c0 1.13-.77 1.54-1.78 1.03s-1.78-1.96-1.78-3.09v-3.24zm7.13 4.11v3.24c0 1.13-.77 1.54-1.78 1.03s-1.78-1.96-1.78-3.09v-3.24zm7.13 4.12v3.24c0 1.13-.8 1.6-1.78 1.03s-1.78-1.96-1.78-3.09v-3.24z" fill="#fec35b"/><path d="m87.86 93.27s-1.2.67-.9 2.47.59 11.55.59 14.02 1.9 2.84 4.35 1.8 9.75-5.84 11.29-6.73 1.39-4.58.94-7.58-.48-7.86-.48-10.2c0-2.35-2.81-.93-4.91.28s-10.88 5.94-10.88 5.94z" fill="#4e1212"/><path d="m87.92 93.3s-1.19.67-.89 2.46.58 11.34.58 13.8 1.89 2.82 4.32 1.79 9.69-5.77 11.22-6.65 1.38-4.44.93-7.42-.48-7.8-.48-10.13-2.79-.93-4.88.28c-2.09 1.19-10.8 5.87-10.8 5.87z" fill="#4c1211"/><path d="m87.97 93.34s-1.18.67-.89 2.44c.3 1.77.57 11.13.57 13.57s1.88 2.8 4.29 1.77c2.41-1.02 9.63-5.7 11.14-6.58 1.52-.88 1.37-4.31.93-7.27s-.47-7.75-.47-10.06-2.77-.92-4.84.28c-2.08 1.2-10.73 5.85-10.73 5.85z" fill="#4c1211"/><path d="m88.03 93.37s-1.17.66-.88 2.42.55 10.92.55 13.35c0 2.42 1.86 2.78 4.26 1.76 2.4-1.01 9.56-5.63 11.07-6.5s1.36-4.18.92-7.11c-.44-2.94-.47-7.69-.47-9.99s-2.75-.92-4.81.27-10.64 5.8-10.64 5.8z" fill="#4b1212"/><path d="m88.08 93.41s-1.17.66-.87 2.4c.29 1.75.54 10.72.54 13.12s1.85 2.76 4.23 1.75 9.5-5.57 11-6.43c1.49-.86 1.35-4.05.91-6.96-.44-2.92-.47-7.63-.47-9.91s-2.73-.91-4.77.27-10.57 5.76-10.57 5.76z" fill="#4b1212"/><path d="m88.14 93.45s-1.16.65-.87 2.39.53 10.51.53 12.89c0 2.39 1.83 2.73 4.2 1.74 2.36-1 9.44-5.5 10.92-6.36s1.34-3.91.91-6.81c-.43-2.89-.46-7.58-.46-9.84s-2.71-.9-4.74.27-10.49 5.72-10.49 5.72z" fill="#4b1212"/><path d="m88.19 93.48s-1.15.65-.86 2.37.52 10.3.52 12.67 1.82 2.71 4.16 1.72 9.38-5.43 10.85-6.28 1.33-3.78.9-6.65-.46-7.52-.46-9.77-2.69-.9-4.7.27c-2.01 1.16-10.41 5.67-10.41 5.67z" fill="#4a1212"/><path d="m88.25 93.52s-1.14.64-.86 2.35.51 10.09.51 12.44 1.81 2.69 4.13 1.71c2.33-.98 9.32-5.36 10.78-6.21 1.46-.84 1.32-3.65.89-6.5s-.46-7.47-.46-9.7-2.67-.89-4.67.27c-1.98 1.16-10.32 5.64-10.32 5.64z" fill="#4a1212"/><path d="m88.3 93.56s-1.13.64-.85 2.33c.28 1.7.5 9.88.5 12.22 0 2.33 1.79 2.67 4.1 1.7 2.31-.98 9.25-5.29 10.71-6.13 1.45-.84 1.31-3.52.89-6.35s-.45-7.41-.45-9.62-2.65-.88-4.63.26c-1.99 1.14-10.27 5.59-10.27 5.59z" fill="#481211"/><path d="m88.36 93.59s-1.12.63-.84 2.32.49 9.67.49 11.99 1.78 2.65 4.07 1.69c2.29-.97 9.19-5.23 10.63-6.06s1.3-3.38.88-6.19-.45-7.35-.45-9.55-2.63-.88-4.6.26c-1.97 1.13-10.18 5.54-10.18 5.54z" fill="#471212"/><path d="m88.42 93.63s-1.11.63-.84 2.3c.28 1.67.48 9.47.48 11.76 0 2.3 1.77 2.63 4.04 1.67s9.13-5.16 10.56-5.98c1.43-.83 1.29-3.25.87-6.04s-.45-7.3-.45-9.48-2.61-.87-4.56.26-10.1 5.51-10.1 5.51z" fill="#471212"/><path d="m88.47 93.67s-1.11.62-.83 2.28.46 9.26.46 11.54 1.75 2.61 4.01 1.66 9.07-5.09 10.49-5.91 1.28-3.12.87-5.88c-.41-2.77-.44-7.24-.44-9.41 0-2.16-2.59-.86-4.53.26-1.94 1.11-10.03 5.46-10.03 5.46z" fill="#461212"/><path d="m88.53 93.7s-1.1.62-.82 2.26c.27 1.65.45 9.05.45 11.31s1.74 2.59 3.98 1.65c2.24-.95 9.01-5.02 10.41-5.84 1.41-.81 1.27-2.99.86-5.73s-.44-7.19-.44-9.33c0-2.15-2.57-.86-4.49.26-1.93 1.11-9.95 5.42-9.95 5.42z" fill="#451212"/><path d="m88.58 93.74s-1.09.61-.82 2.25c.27 1.63.44 8.84.44 11.09s1.73 2.57 3.95 1.63 8.94-4.96 10.34-5.76c1.4-.81 1.26-2.85.85-5.58-.41-2.72-.44-7.13-.44-9.26s-2.55-.85-4.46.25c-1.9 1.1-9.86 5.38-9.86 5.38z" fill="#451212"/><path d="m88.64 93.78s-1.08.61-.81 2.23.43 8.63.43 10.86 1.71 2.55 3.92 1.62c2.2-.93 8.88-4.89 10.27-5.69s1.25-2.72.85-5.42c-.41-2.7-.43-7.08-.43-9.19s-2.53-.84-4.43.25-9.8 5.34-9.8 5.34z" fill="#441212"/><path d="m88.69 93.81s-1.07.6-.8 2.21.42 8.42.42 10.64c0 2.21 1.7 2.53 3.89 1.61 2.19-.93 8.82-4.82 10.19-5.61 1.38-.79 1.24-2.59.84-5.27s-.43-7.02-.43-9.12-2.51-.84-4.39.25c-1.88 1.08-9.72 5.29-9.72 5.29z" fill="#441212"/><path d="m88.75 93.85s-1.06.6-.8 2.19c.27 1.6.41 8.22.41 10.41s1.69 2.51 3.86 1.6c2.17-.92 8.76-4.75 10.12-5.54s1.23-2.46.83-5.12-.43-6.96-.43-9.04-2.49-.83-4.36.25c-1.86 1.07-9.63 5.25-9.63 5.25z" fill="#421211"/><path d="m88.8 93.89s-1.06.59-.79 2.18c.26 1.58.4 8.01.4 10.18 0 2.18 1.67 2.49 3.83 1.58 2.15-.91 8.7-4.68 10.05-5.47 1.35-.78 1.22-2.32.83-4.96-.4-2.64-.42-6.91-.42-8.97s-2.47-.82-4.32.25c-1.86 1.06-9.58 5.21-9.58 5.21z" fill="#421312"/><path d="m88.86 93.92s-1.05.59-.79 2.16.38 7.8.38 9.96 1.66 2.47 3.79 1.57c2.14-.9 8.63-4.62 9.98-5.39 1.34-.77 1.21-2.19.82-4.81s-.42-6.85-.42-8.9-2.45-.82-4.29.24c-1.82 1.06-9.47 5.17-9.47 5.17z" fill="#421312"/><path d="m88.91 93.96s-1.04.58-.78 2.14.37 7.59.37 9.73 1.65 2.45 3.76 1.56c2.12-.9 8.57-4.55 9.9-5.32s1.2-2.06.81-4.65c-.39-2.6-.42-6.8-.42-8.83s-2.43-.81-4.25.24c-1.8 1.05-9.39 5.13-9.39 5.13z" fill="#401211"/><path d="m88.97 94s-1.03.58-.77 2.12.36 7.38.36 9.51c0 2.12 1.63 2.43 3.73 1.54s8.51-4.48 9.83-5.24 1.19-1.93.81-4.5c-.39-2.57-.41-6.74-.41-8.75s-2.41-.8-4.22.24c-1.8 1.03-9.33 5.08-9.33 5.08z" fill="#3f1212"/><path d="m89.03 94.03s-1.02.57-.77 2.11c.26 1.53.35 7.17.35 9.28s1.62 2.41 3.7 1.53 8.45-4.41 9.76-5.17 1.18-1.79.8-4.35c-.38-2.55-.41-6.69-.41-8.68 0-2-2.39-.8-4.18.24-1.79 1.03-9.25 5.04-9.25 5.04z" fill="#3f1212"/><path d="m89.05 94.05s-1.02.57-.76 2.1c.25 1.53.35 7.07.35 9.17s1.61 2.4 3.69 1.53c2.07-.88 8.42-4.38 9.72-5.13s1.18-1.73.8-4.27-.41-6.66-.41-8.65-2.38-.79-4.16.24c-1.79 1.02-9.23 5.01-9.23 5.01z" fill="#3f1212"/><g fill="#3e1312"><path d="m89.08 94.07s-1.01.57-.76 2.09.34 6.96.34 9.05 1.61 2.39 3.67 1.52c2.07-.87 8.39-4.34 9.68-5.09 1.3-.75 1.17-1.66.79-4.19s-.41-6.63-.41-8.61-2.37-.79-4.15.24c-1.76 1.01-9.16 4.99-9.16 4.99z"/><path d="m89.11 94.09s-1.01.57-.76 2.08.33 6.86.33 8.94 1.6 2.38 3.66 1.51 8.35-4.31 9.65-5.06c1.29-.75 1.17-1.6.79-4.12s-.4-6.6-.4-8.57-2.36-.79-4.13.23c-1.77 1.03-9.14 4.99-9.14 4.99z"/><path d="m89.14 94.11s-1 .57-.75 2.07c.25 1.51.33 6.76.33 8.83s1.59 2.37 3.64 1.51c2.05-.87 8.32-4.28 9.61-5.02s1.16-1.53.79-4.04c-.38-2.51-.4-6.57-.4-8.54 0-1.96-2.35-.78-4.11.23-1.77 1.01-9.11 4.96-9.11 4.96z"/><path d="m89.16 94.12s-1 .56-.75 2.06.32 6.65.32 8.71 1.58 2.36 3.62 1.5 8.29-4.24 9.57-4.98 1.16-1.46.78-3.96c-.37-2.5-.4-6.55-.4-8.5s-2.34-.78-4.09.23c-1.74 1.02-9.05 4.94-9.05 4.94z"/></g><g fill="#3d1312"><path d="m89.19 94.14s-1 .56-.75 2.05.32 6.55.32 8.6 1.58 2.35 3.61 1.49 8.26-4.21 9.54-4.95 1.15-1.4.78-3.89-.4-6.52-.4-8.47-2.33-.78-4.08.23c-1.74 1.03-9.02 4.94-9.02 4.94z"/><path d="m89.22 94.16s-.99.56-.74 2.05.31 6.44.31 8.49c0 2.04 1.57 2.34 3.59 1.49 2.02-.86 8.23-4.17 9.5-4.91 1.27-.73 1.15-1.33.78-3.81s-.4-6.49-.4-8.43-2.32-.77-4.06.23c-1.73 1-8.98 4.89-8.98 4.89z"/><path d="m89.25 94.18s-.99.56-.74 2.04.31 6.34.31 8.38 1.56 2.33 3.58 1.48c2.01-.85 8.2-4.14 9.46-4.87 1.27-.73 1.14-1.26.77-3.73s-.4-6.46-.4-8.39-2.31-.77-4.04.23c-1.73.98-8.94 4.86-8.94 4.86z"/><path d="m89.27 94.2s-.98.55-.74 2.03c.25 1.47.3 6.24.3 8.26 0 2.03 1.56 2.32 3.56 1.47 2.01-.85 8.17-4.11 9.43-4.83 1.26-.73 1.14-1.2.77-3.66s-.39-6.44-.39-8.36-2.3-.77-4.02.23-8.91 4.86-8.91 4.86z"/></g><g fill="#3c1312"><path d="m89.3 94.21s-.98.55-.73 2.02c.24 1.47.29 6.13.29 8.15s1.55 2.31 3.55 1.47 8.14-4.07 9.39-4.8c1.25-.72 1.13-1.13.77-3.58-.37-2.45-.39-6.41-.39-8.32s-2.29-.76-4.01.23c-1.71.99-8.87 4.83-8.87 4.83z"/><path d="m89.33 94.23s-.97.55-.73 2.01.29 6.03.29 8.04 1.54 2.3 3.53 1.46 8.11-4.04 9.36-4.76 1.13-1.07.76-3.5c-.37-2.44-.39-6.38-.39-8.28s-2.28-.76-3.99.23c-1.71.98-8.83 4.8-8.83 4.8z"/><path d="m89.36 94.25s-.97.55-.73 2c.24 1.46.28 5.92.28 7.92s1.54 2.29 3.52 1.46c1.98-.84 8.08-4.01 9.32-4.72 1.24-.72 1.12-1 .76-3.42-.36-2.43-.39-6.35-.39-8.25s-2.27-.76-3.97.23c-1.7.97-8.79 4.78-8.79 4.78z"/><path d="m89.39 94.27s-.97.54-.72 1.99c.24 1.45.28 5.82.28 7.81s1.53 2.28 3.5 1.45 8.04-3.97 9.28-4.69 1.12-.93.76-3.35c-.36-2.41-.39-6.32-.39-8.21s-2.26-.75-3.95.23c-1.7.98-8.76 4.77-8.76 4.77z"/><path d="m89.41 94.29s-.96.54-.72 1.98.27 5.71.27 7.7c0 1.98 1.52 2.27 3.49 1.44 1.96-.83 8.01-3.94 9.25-4.65 1.23-.71 1.11-.87.75-3.27s-.39-6.3-.39-8.18-2.25-.75-3.94.22c-1.68.98-8.71 4.76-8.71 4.76z"/></g><path d="m89.44 94.31s-.96.54-.72 1.97c.24 1.44.27 5.61.27 7.58s1.52 2.26 3.47 1.44c1.95-.83 7.98-3.9 9.21-4.61s1.11-.8.75-3.19-.38-6.27-.38-8.14-2.24-.75-3.92.22-8.68 4.73-8.68 4.73z" fill="#3b1312"/><path d="m89.47 94.32s-.95.54-.71 1.97.26 5.51.26 7.47c0 1.97 1.51 2.25 3.46 1.43 1.94-.82 7.95-3.87 9.17-4.58s1.1-.73.75-3.12c-.36-2.38-.38-6.24-.38-8.1s-2.23-.74-3.9.22c-1.68.97-8.65 4.71-8.65 4.71z" fill="#3b1312"/><path d="m89.5 94.34s-.95.53-.71 1.96c.24 1.42.26 5.4.26 7.36s1.5 2.24 3.44 1.42 7.92-3.84 9.14-4.54 1.1-.67.74-3.04-.38-6.21-.38-8.07c0-1.85-2.22-.74-3.88.22-1.68.97-8.61 4.69-8.61 4.69z" fill="#3b1312"/><path d="m89.52 94.36s-.94.53-.71 1.95c.24 1.42.25 5.3.25 7.25s1.5 2.23 3.42 1.42c1.93-.81 7.89-3.8 9.1-4.5s1.09-.6.74-2.96-.38-6.18-.38-8.03-2.21-.74-3.87.22c-1.64.94-8.55 4.65-8.55 4.65z" fill="#3b1312"/><path d="m89.55 94.38s-.94.53-.71 1.94c.24 1.41.24 5.19.24 7.13s1.49 2.22 3.41 1.41 7.86-3.77 9.06-4.46c1.21-.7 1.09-.54.74-2.89s-.38-6.16-.38-7.99-2.2-.73-3.85.22c-1.63.95-8.51 4.64-8.51 4.64z" fill="#3a1312"/><path d="m89.58 94.4s-.94.53-.7 1.93c.23 1.4.24 5.09.24 7.02s1.48 2.21 3.39 1.4 7.83-3.73 9.03-4.43c1.2-.69 1.08-.47.73-2.81s-.37-6.13-.37-7.96-2.19-.73-3.83.22c-1.65.95-8.49 4.63-8.49 4.63z" fill="#3a1312"/><path d="m89.61 94.42s-.93.52-.7 1.92.23 4.99.23 6.91 1.48 2.2 3.38 1.4 7.8-3.7 8.99-4.39 1.08-.4.73-2.73-.37-6.1-.37-7.92-2.18-.73-3.82.22c-1.63.93-8.44 4.59-8.44 4.59z" fill="#3a1312"/></g><g fill="#4e1212"><path d="m90.93 162.5 2.59-1.5c0-2.46 0-13.55 0-25.39-2.48 4.61-4.32 11.45-2.59 26.89z"/><path d="m94.23 134.37v26.22l.34-.2c0-2.54 0-14.3 0-26.57-.11.18-.23.37-.34.55z"/><path d="m157.74 43.38c-4.05 2-15.02 9.98-24.57 14.8s-9.37 5.07-10.52 9.02-6.11 24.36-10.58 30.42-9.97 19.07-12.91 28.1c-.93 2.85-2.4 4.8-3.88 7.01v27.25l62.46-36.06z"/></g><g fill="#61150d"><path d="m95.28 102.39-.05-.05-.05-.05-.08-.03-.08-.03h-.09-.1l-.08.03-.08.03-.05.05-.05.05v31.43c.24-.37.47-.74.71-1.09 0-14.93 0-30.24 0-30.34z"/><path d="m94.23 103-.05-.05-.05-.05-.08-.03-.08-.03h-.09-.1l-.08.03-.08.03-.05.05-.05.05v32.61c.23-.43.47-.84.71-1.24 0-15.25 0-31.27 0-31.37z"/><path d="m94.57 133.82v26.57l.71-.41c0-3.32 0-15.16 0-27.25-.24.36-.47.72-.71 1.09z"/><path d="m93.52 135.61v25.39l.71-.41c0-3.23 0-14.49 0-26.22-.24.4-.48.81-.71 1.24z"/></g><g clip-rule="evenodd" fill-rule="evenodd"><path d="m89.05 94.4 5.01 13.35 12.76-17.82-5.01-2.89z" fill="url(#x)"/><path d="m106.82 89.93-12.76 7.37v10.45l12.76-7.36z" fill="#b2908d"/><path d="m89.05 94.4 5.01 2.9v10.45l-5.01-2.89z" fill="url(#y)"/><path d="m100.44 94.43.96-.26.95-.26.7.4.7.4.26.95.26.96-.26 1.25-.26 1.25-.7 1.21-.7 1.21-.95.85-.96.85-.95.26-.95.26-.7-.4-.7-.4-.26-.96-.26-.95.26-1.25.26-1.25.7-1.21.7-1.21.95-.85zm0 2.98-.31.28-.31.28-.23.39-.23.39-.08.41-.08.41.08.31.08.31.23.13.23.13.31-.08.31-.08.31-.28.31-.28.23-.39.23-.39.08-.41.08-.41-.08-.31-.08-.31-.23-.13-.23-.13-.31.08z" fill="#3f1131"/><path d="m38.64 80.96-.22-.22-.2-.22-.18-.22-.16-.21-.14-.21-.12-.2-.1-.2-.09-.2-1.07-2.76c-.17-.41-.25-.85-.25-1.32 0-.81.23-1.33.7-1.57s1.07-.14 1.82.29c.4.23.79.52 1.14.85.36.33.7.72 1.03 1.16l1.07 2.76-.62 1.29-.08-.13-.01-.01-.08-.11-.09-.12-.09-.12-.09-.11-.09-.11-.09-.1-.09-.1-.09-.09-.04-.04c.08.11.14.21.2.3.09.15.16.31.23.47l.04.11.01.02 1.02 2.64.05.12.04.12.04.13.04.13.03.13.03.13.02.13.02.13.01.13.01.13.01.13v.13l-.01.32-.04.29-.06.26-.08.23-.11.2-.13.17-.15.14-.18.11-.2.08-.21.04-.23.01-.25-.03-.26-.06-.28-.1-.29-.13-.31-.17-.19-.11-.18-.12-.18-.13-.18-.13-.17-.14-.17-.15-.16-.15-.16-.16-.16-.17-.15-.18-.15-.19-.15-.2-.15-.21-.15-.22-.15-.23-.15-.24-1.07-2.76.9-1.19c.3.56.59 1.02.87 1.37.29.36.57.62.86.78.09.04.17.08.26.11zm17.3 7.29-.09-.11-.17-.18-.18-.16-.19-.14-.2-.13-.2-.11-.19-.08-.18-.05-.18-.02h-.17l-.16.03-.15.06-.14.08-.13.11-.11.13-.09.15-.08.17-.06.19-.04.21-.03.23-.01.26v.12c.25.28.53.52.84.7.55.32 1.01.35 1.37.09s.54-.75.54-1.46zm-19.99-34.92c-1.09.1-1.39 1.7-.66 3.59l1.07 2.76.15.35.16.34.18.32.19.31.2.29.21.27.22.25.22.23.23.21.23.18.23.16.23.13.15.07-1.49.13c-.16.01-.31.05-.45.11l-.07-.19-1.07-2.76c-.22-.56-.19-.71-.97-1.68s-2.62-1.75-3.08-1.1-.31 1.39.06 2.33l1.07 2.76.12.28.14.28.15.28.17.28.19.28.2.27.43.49.44.39.44.3.43.2.3.07c.05.48.24.98.38 1.53l1.07 2.76.15.36.17.35.19.34.2.32.22.31.23.29.24.27.25.25.25.23.26.21.26.19.27.16.27.14.27.11.26.08.26.05.26.25.26.23.27.2.27.17.27.14.26.12.26.09.25.06.25.03h.24l.23-.03.22-.06.2-.09.19-.12.17-.15.15-.19.14-.24.11-.26.08-.29.05-.31.02-.33-.01-.34-.03-.35-.06-.36-.09-.37-.11-.38-.14-.38-.99-2.57c-.02-.06-.05-.13-.07-.19-.25-.63-.61-1.25-1.06-1.81l-2.57-3.19.06-.04.14-.13.12-.16.1-.19.08-.21.05-.23.03-.25.01-.27-.01-.29-.03-.31-.05-.32-.08-.33-.1-.34-.12-.35-1.07-2.76c-.8-1.88-2.28-3.32-3.37-3.23zm-17.5 19.72-1.87-1.08-1.07-2.76v-8.43l2.08 1.2c.81.47 1.39.84 1.72 1.13.33.28.61.6.84.95.2.31.37.64.5.98l1.07 2.76.06.17.06.17.05.18.04.18.04.18.02.13v-4.29l4.47 2.58.73 1.89v-1.47l5.26 3.04 1.07 2.76v1.99l-1.63-.94v6.44l-1.99-1.15-1.07-2.76v-4.29l-.56-.33-.73-1.89v1.33l-.87-.5.73 1.88v1.8l-.57-.33.71 1.84v1.89l-4.47-2.58-1.07-2.76v-2.67l-.02.11-.04.14-.04.13-.05.12c-.23.46-.53.66-1.05.62l-.1-.01-.1-.02-.1-.03-.11-.04-.13-.05-.14-.06-.16-.08-.18-.09-.19-.1-.21-.11-.22-.13-.34-.2-.36-.21v2.77zm25.79 4.31 1.07 2.76v1.14l1.58.92v-3.28l1.99 1.15 1.07 2.76v8.43l-1.99-1.15-1.07-2.76v-1.29l-1.58-.92v3.43l-1.99-1.15-1.07-2.76v-8.43zm13.23 9.78 1.07 2.76.09.24.08.24.07.24.06.24.05.24.04.24.03.23.02.23.01.23v.23.22l-.01.21-.02.21-.03.2-.04.19-.05.18-.06.17-.07.16-.08.15-.08.14-.09.13-.1.12-.11.11-.12.1-.13.09-.13.08-.14.07-.15.06-.15.05-.16.03-.16.02-.17.01h-.17l-.18-.01-.18-.02-.18-.04-.18-.05-.19-.06-.19-.07-.19-.08-.19-.09-.19-.11-.19-.12-.19-.13-.19-.14-.19-.15-.19-.16-.18-.16-.18-.17-.18-.18-.18-.19-.17-.2-.16-.2-.16-.21-.15-.21-.15-.22-.14-.22-.14-.23-.14-.24-.13-.24-.12-.24-.11-.24-.1-.24-.09-.24-1-2.57c-.02-.06-.05-.12-.07-.19-.06-.16-.11-.32-.16-.48-.19-.64-.29-1.27-.29-1.87s.1-1.11.29-1.53.48-.73.86-.93c.36-.2.78-.28 1.26-.23s.98.23 1.5.53 1.02.7 1.5 1.2.9 1.07 1.27 1.69c.24.47.47.94.64 1.42zm4.64 11.11-1.87-1.08-1.07-2.76v-8.43l2.08 1.2c.81.47 1.38.84 1.71 1.13.33.28.61.6.84.96.2.31.37.63.5.98l1.07 2.76.06.17.06.17.05.18.04.18.04.18.03.18.02.18.02.18.01.18v.18.18l-.01.17-.02.16-.02.16-.03.15-.04.14-.04.13-.05.12-.06.11-.06.1-.07.09-.07.08-.08.07-.09.06-.09.05-.1.04-.08.02-.08.01-.09.01h-.09l-.09-.01-.1-.01-.1-.02-.1-.03-.11-.04-.13-.05-.14-.06-.16-.08-.18-.09-.19-.1-.21-.11-.22-.13-.34-.2-.36-.21v2.75zm-17.13-38.75 1.07 2.76.1.3.08.3.06.3.03.29.01.29-.01.28-.03.27-.05.26-.01.02c.86.36 1.7 1.23 2.11 2.29l1.07 2.76.16.54.07.51-.02.46-.1.41-.18.35-.25.27-.33.19-.39.09-.43-.02-.45-.12-.44-.21-.43-.29-.4-.37-.36-.43-.31-.48-.25-.53-1.07-2.76c-.21-.55-.28-1.07-.22-1.51l-.05-.02-.23-.11-.23-.14-.23-.16-.22-.19-.22-.22-.21-.24-.2-.26-.18-.27-.16-.28-.14-.29-.12-.29-.99-2.54c-.03-.07-.06-.14-.08-.22-.39-1.09-.49-2.07.13-2.94.62-.88 2.09 0 2.8.89.74.86 1.13.56 1.3 1.06z" fill="#4e1212"/><path d="m72.03 37.22 12.14 13.93h11.99l19.34-11.16-24.13-13.93z" fill="#7a2516"/><path d="m60.04 25.23 24.13 25.92 19.34-23.15-24.13-13.93z" fill="#caa998"/><path d="m60.04 25.23 24.13 13.93v11.99l-24.13-13.93z" fill="url(#z)"/><path d="m103.51 28-19.34 11.16v11.99l19.34-11.16z" fill="url(#A)"/><path d="m86.03 21.53 1.2 1.2 1.2 1.2v1.38 1.38l-1.2 1.2-1.2 1.2-2.07.69-2.07.69h-2.39-2.39l-2.07-.69-2.07-.69-1.2-1.2-1.2-1.2v-1.38-1.38l1.2-1.2 1.2-1.2 2.07-.69 2.07-.69h2.39 2.39l2.07.69zm-4.41 2.54-.67-.22-.67-.22h-.78-.78l-.67.22-.67.22-.39.39-.39.39v.45.45l.39.39.39.39.67.22.67.22h.78.78l.67-.22.67-.22.39-.39.39-.39v-.45-.45l-.39-.39z" fill="url(#B)"/><g fill="#2c111d"><path d="m96.32 39.09 1.74 1.01 1.67 2.07.96 2.49v2.01l-1.41.81-1.11-.89v-1.56l-.58-1.51-1.02-1.27-1.67-2.34z"/><path d="m94.9 39.91 1.74 1.01 1.67 2.07.97 2.48v2.01l-1.42-.81v-1.57l-.59-1.51-1.01-1.26-1.36-.79z"/><path d="m100.57 36.64 1.74 1.01 1.67 2.07.96 2.48v2.01l-1.42.82-1.1-.89v-1.57l-.58-1.51-1.02-1.26-1.67-2.34z"/><path d="m99.15 37.46 1.74 1 1.67 2.08.96 2.48v2.01l-1.41-.82v-1.56l-.59-1.51-1.01-1.26-1.36-.79z"/></g><path d="m14.45 61.4 1.07-.62 2.08 1.2.29.18.27.16.25.15.23.15.2.13.18.13.16.12.13.11.13.11.11.11.11.11.11.12.1.12.1.13.09.12.09.14.1.15.09.16.09.16.08.17.07.16.07.17.06.17.06.18.05.17.04.18.04.17.03.18.02.18.02.17.01.18v.17.19l-.01.17-.02.17-.02.15-.03.15-.04.14-.04.12-.05.12-.06.11-.06.1-.07.08-.07.08-.08.07-.09.06-1.07.62-.19-.06.08-.07.07-.08.07-.09.06-.09.05-.11.05-.12.05-.13.03-.13.03-.15.02-.15.02-.17.01-.17v-.19l-.28-.17-.01-.18-.02-.18-.02-.17-.03-.18-.04-.17-.04-.18-.05-.18-.06-.17-.06-.17-.07-.17-.07-.17-.08-.16-.09-.16-.09-.16-.1-.16-.09-.13-.09-.13-.1-.12.47.16-.11-.11-.11-.12-.12-.11-.12-.11-.13-.11-.16-.12-.18-.12-.2-.14-.23-.15-.25-.15-.27.12-.29-.17z" fill="url(#D)"/><path d="m16.31 68.12 1.08-.61v2.78l-1.08.62z" fill="url(#F)"/><path d="m16.31 64.29 1.08-.62v1.99l-.37.34-.71.27z" fill="url(#G)"/><path d="m18.78 66.27-1.02 1.4-.07.02-.07.01-.09-.01-.11-.02-.12-.03-.13-.05-.14-.07-.16-.08-.18-.1-.38-1.07z" fill="#ffd76c"/><path d="m16.31 66.27 1.08-.61.37.21.18.1.16.08.14.07.13.05.12.03.11.03h.09l.08-.01.06-.02-.05.07z" fill="url(#H)"/><path d="m58.1 86.6 1.07-.61 2.08 1.2.3.17.27.16.25.16.22.14.21.14.18.13.15.11.14.12.12.1.12.11.11.12.1.12.11.12.09.12.1.13.09.13.09.16.1.15.08.17.08.16.08.17.06.16.07.18.05.17.05.18.04.17.04.18.03.17.02.18.02.18.01.17v.18.18l-.01.18-.02.16-.02.16-.03.14-.03.14-.05.13-.05.11-.05.11-.06.1-.07.09-.08.08-.08.06-.08.06-1.07.62-.2-.06.08-.07.07-.07.07-.09.06-.1.06-.11.05-.12.04-.12.04-.14.03-.14.02-.16.02-.17.01-.17v-.18l-.29-.18-.01-.18-.01-.17-.03-.18-.03-.17-.03-.18-.05-.18-.05-.17-.05-.18-.06-.17-.07-.17-.08-.16-.08-.17-.08-.16-.09-.16-.1-.15-.09-.13-.09-.13-.1-.13.46.17-.1-.12-.11-.11-.12-.12-.12-.1-.14-.11-.15-.12-.19-.13-.2-.14-.22-.14-.25-.16-.27.12-.3-.17z" fill="url(#I)"/><path d="m59.97 93.33 1.07-.62v2.78l-1.07.62z" fill="url(#J)"/><path d="m59.97 89.5 1.07-.62v1.98l-.37.35-.7.27z" fill="url(#K)"/><path d="m62.43 91.48-1.01 1.39-.07.03-.08.01-.09-.01-.1-.02-.12-.04-.13-.05-.15-.07-.16-.08-.17-.09-.38-1.07z" fill="#ffd76c"/><path d="m59.97 91.48 1.07-.62.38.22.17.09.16.09.15.06.13.05.12.04.1.02.09.01.08-.01.07-.03-.06.08z" fill="url(#L)"/><path d="m20.92 65.13 1.07-.61 4.47 2.58-.58.72-.49-.1-2.48-.75z" fill="#ffd76c"/><path d="m25.39 67.72 1.07-.62v1.85l-1.07.62z" fill="url(#M)"/><path d="m22.86 68.1 1.07-.61v1.46l-1.07.62z" fill="url(#N)"/><path d="m22.86 69.57 1.07-.62 2.38 1.38-.5.78-.57-.17-2.03-.37z" fill="url(#O)"/><path d="m26.13 70.61-.32.5-.57-.17-2.03-.37-.35-1h1.46z" fill="#ffd76c"/><path d="m25.24 70.94 1.07-.61v1.8l-1.07.62z" fill="url(#P)"/><path d="m22.86 71.37 1.07-.62v1.43l-1.07.62z" fill="url(#Q)"/><path d="m22.86 72.8 1.07-.62 2.53 1.46-.47.75-.6-.13-1.85-.54z" fill="url(#R)"/><path d="m26.27 73.94-.28.45-.6-.13-1.85-.54-.68-.92h1.42z" fill="#ffd76c"/><path d="m25.39 74.26 1.07-.62v1.89l-1.07.61z" fill="url(#S)"/><path d="m26.12 68.14 1.07-.62 5.26 3.04-.57.75-.5-.14-3.01-.97z" fill="#ffd76c"/><path d="m31.38 71.17 1.07-.61v1.99l-1.07.62-.56-1.21z" fill="url(#T)"/><path d="m29.74 72.22 1.08-.61v6.43l-1.08.62-.71-4.17z" fill="url(#U)"/><path d="m35.57 79.3 1.07-.62.11.21.12.19.1.19.11.17.11.17.11.16.11.15.11.14.11.13.1.12.11.11.11.1.11.09.1.09.11.07.11.07.09.05.1.04.09.04.08.02.08.01h.08l.07-.01.06-.02.06-.03-1.07 1.19-.06.03-.06.02h-.08-.07l-.08-.01-.08-.02-.09-.03-.1-.04-.09-.06-.11-.06-.11-.08-.11-.08-.1-.09-.11-.11-.11-.11-.11-.12-.1-.13-.11-.14-.11-.15-.11-.15-.11-.17-.11-.18-.11-.18-.11-.2z" fill="#ffd76c"/><path d="m35.73 74.25 1.08-.62.18-.07.19-.04.21-.01.22.02.23.05.25.08.26.12.27.14.15.09.15.09.15.1.14.11.14.11.14.11.14.12.14.12.13.13.13.13.14.14.12.14.13.15.13.15.12.16.12.16-.75.69-.32-.07-.12.12-.12-.16-.13-.15-.13-.15-.13-.14-.13-.14-.13-.13-.13-.13-.14-.12-.14-.12-.14-.11-.14-.11-.14-.11-.15-.09-.15-.1-.15.2-.27-.15-.26-.11-.25-.09-.23-.05-.22-.02-.21.01-.19.04z" fill="#ffd76c"/><path d="m37.06 76.24 1.07-.62-.04.03-.04.04-.03.04-.03.05-.01.06-.01.07-.01.07.01.08v.08l.02.07.02.08.03.08.03.08.04.07.05.08.05.08.07.08.08.09.09.1.1.1.11.11.12.12.14.12.09.08.29.27.26.25.24.24.21.22.19.22.16.2.14.18.11.18.06.11.06.12.06.12.05.12.04.12.05.13.04.12.03.13.03.13.03.13.02.13.02.13.02.13.01.13v.13l.01.13-.02.32-.03.29-.06.26-.08.23-.11.2-.13.17-.16.14-.18.11-1.07.62-.38-.11.15-.14.13-.17.11-.2.08-.23.06-.26.04-.29.01-.32v-.13l-.01-.13-.01-.13-.01-.13-.02-.13-.03-.13-.02-.13-.04-.13-.03-.13-.04-.12-.04-.13-.05-.12-.05-.12-.06-.12-.06-.12-.06-.11-.11-.18-.13-.19-.17-.2-.18-.21-.22-.22.33.04-.26-.25-.29-.27-.09-.08-.42-.41-.12-.11-.12-.11-.1-.1-.09-.1-.08-.09-.06-.08-.06-.08-.04-.08-.04-.08-.04-.07-.02-.08-.03-.08-.01-.08-.01-.07v-.08-.08l.01-.06.02-.06.02-.05.04-.05.03-.03z" fill="url(#V)"/><path d="m36.97 75.91 1.16-.29-.05.03-.04.04-.03.04-.02.05-.02.06-.01.07v.07.08l.01.08.01.08.02.08.03.08.03.08.04.08.05.08.05.08.07.08.08.09.09.1.1.1.11.11.12.12.13.12.09.08.29.27.26.25.24.24.21.23.19.21.16.2.07.1c-1.08-.5-3.58-1.14-3.56-2.57z" fill="url(#W)"/><path d="m39.72 76.55 1.07-.62-.62 1.29-1.07.62.08-1.14z" fill="url(#X)"/><path d="m41.18 76.83 1.07-.62 1.99 1.15-.45.66-.62-.04-1.02.07z" fill="#ffd76c"/><path d="m43.17 77.98 1.07-.62v3.28l-.54.59-.53.03-.59-1.28z" fill="url(#Y)"/><path d="m43.17 81.26h2.14l1.58.91-1.07.62-1.68-.19z" fill="#ffd76c"/><path d="m43.17 81.26 1.07-.62 1.07.62z" fill="url(#Z)"/><path d="m45.82 79.51 1.07-.61 1.99 1.15-1.07.61-1.12.2z" fill="#ffd76c"/><path d="m47.81 80.66 1.07-.61v8.42l-1.07.62-.4-4.2z" fill="url(#aa)"/><path d="m43.17 82.98 1.07-.62v3.43l-1.07.62-.69-2.27z" fill="url(#ab)"/><path d="m50.2 83.15 1.08-.62.13-.07.15-.06.15-.04.15-.04.16-.02.17-.01h.17l.17.01.18.02.18.04.19.05.18.06.19.07.19.09.2.09.19.11.19.11.2.13.19.14.18.14.19.16.18.16.19.18.18.18.18.19.17.2.16.2.17.21.15.21.15.22.15.23.14.23.13.23.12.24.12.24.11.23.1.24.09.24.09.24.08.25.06.24.06.24.05.23.04.24.04.23.02.23.01.23.01.23-.01.22-.01.22-.02.2-.04.2-.04.18-.05.18-.05.17-.07.16-.08.16-.08.14-.1.13-.1.12-.11.12-.11.1-.13.09-.13.08-1.08.62-.43-.08.13-.09.12-.11.11-.11.1-.12.09-.13.08-.15.08-.15.07-.16.06-.17.05-.18.04-.18.03-.2.02-.21.01-.21.01-.22-.01-.23-.01-.23-.02-.23-.03-.23-.04-.24-.62-.24.51-.23-.07-.25-.08-.24-.08-.24-.1-.24-.1-.24-.11-.24-.11-.23-.13-.24-.13-.23.43.33-.15-.22-.15-.22-.16-.22-.16-.21-.16-.2-.18-.2-.17-.19-.18.1-.19-.17-.18-.16-.19-.16-.19-.14-.19-.14-.19-.13-.19-.11-.19-.11-.2-.1-.19-.08-.19-.07-.18-.06-.19-.05-.18-.04-.18-.02-.17-.02h-.17l-.17.02-.16.02-.15.04-.15.04-.15.06z" fill="url(#ac)"/><path d="m53.19 89.02.07.08c.48.49 1.12.98 1.85.85.05-.02.1-.04.15-.06-.36.4-.71.79-1.07 1.19-.05.02-.1.04-.15.06-.05.01-.11.02-.16.03-.06 0-.11 0-.17 0-.06-.01-.12-.02-.18-.02-.06-.02-.12-.03-.18-.05-.06-.03-.13-.05-.19-.08-.07-.04-.13-.07-.2-.11s-.14-.09-.21-.13c-.07-.05-.13-.1-.2-.15-.06-.05-.12-.11-.19-.16-.06-.06-.12-.12-.18-.18s-.11-.13-.17-.19c-.05-.07-.11-.14-.16-.21-.05-.08-.1-.15-.15-.23-.14-.27-.28-.54-.42-.81-.04-.08-.08-.17-.12-.25s-.07-.17-.11-.25c-.03-.09-.06-.17-.09-.26-.12-.09-.24-.17-.36-.26-.02-.09-.04-.17-.06-.26-.01-.09-.03-.18-.04-.26-.01-.09-.02-.18-.03-.27 0-.09-.01-.18-.01-.27s.01-.17.01-.26c.01-.08.02-.16.03-.23s.03-.14.04-.21c.02-.06.04-.13.06-.19.03-.06.05-.11.08-.17.03-.05.06-.1.09-.15.04-.04.07-.09.11-.13l.04-.03c-.06.28-.13-.7.13.73.27 1.41 2.14 2.9 2.14 2.89z" fill="#ffd76c"/><path d="m51.16 85.22c.55-.21 1.09-.41 1.64-.62-.05.03-.09.06-.14.08-.04.04-.08.07-.13.11-.04.04-.07.09-.11.13-.03.05-.06.1-.09.15-.24.55-.23 1.02-.18 1.6.01.09.03.18.04.26.16.7.35 1.15.74 1.76.05.07.11.14.16.21l.1.11s-2.11-.39-2.14-2.4c-.26-1.43-.17-.97-.12-1.25l.09-.07c.05-.01.09-.04.14-.07z" fill="url(#ad)"/><path d="m37.9 60.67 1.07-.62.16-.1.14-.13.12-.16.1-.19.08-.21.06-.23.03-.25.01-.27-.01-.29-.03-.31-.05-.32-.08-.33-.1-.34-.12-.35-.15-.35-.16-.34-.18-.32-.19-.31-.2-.29-.21-.27-.22-.25-.22-.23-.23-.21-.23-.18-.23-.16c-.51-.29-.96-.45-1.48-.22l-1.07.62z" fill="url(#af)"/><path d="m34.6 63.26c.36-.21.71-.41 1.07-.62.08-.08.17-.16.25-.24.03-.05.06-.11.09-.16.02-.06.05-.12.07-.18.02-.07.03-.13.05-.2.01-.07.02-.15.02-.22 0-.08 0-.16 0-.23-.01-.08-.01-.17-.02-.25-.01-.09-.03-.17-.04-.26-.02-.09-.04-.18-.06-.27-.03-.09-.05-.18-.08-.28-.03-.09-.07-.19-.1-.28-.04-.09-.08-.19-.12-.28-.05-.1-.09-.19-.14-.28s-.1-.19-.15-.28c-.06-.09-.08-.19-.14-.29-.64-.94-2.09-2.52-3.25-1.88-.36.21-.71.41-1.07.62 1.22 1.86 2.42 3.72 3.62 5.58z" fill="url(#ag)"/><path d="m40.31 57.69 1.07-.62.19-.09.2-.06.21-.03h.22l.22.03.23.05.23.08.23.11.23.14.23.16.22.19.22.22.21.24.2.26.18.27.16.28.14.29.12.29.1.3.08.3.06.3c.09.79.06 1.36-.36 2.05l-.15.18-.16.15-.18.12-1.07.62z" fill="url(#ah)"/><path d="m43.79 65.09c.14-.08.29-.17.43-.25.51-.12 1.59-.45 2-.3.79.29 1.43 1.01 1.86 1.76.52 1.1.81 2.13-.06 3.07-.36.21-.71.41-1.07.62-1.05-1.63-2.1-3.27-3.16-4.9z" fill="url(#ai)"/><path d="m44.23 64.84.64-.37c.5-.11.95-.08 1.36.07-.03.01-.99.31-2 .3z" fill="#b57766"/><path d="m38.99 64.39.49-1.09.6-.62-2.63.23-.25.05-.24.08-.21.12-1.08.62.22.45.23-.09.26-.04z" fill="#f9f4df"/><path d="m42.23 72.43 1.07-.62.19-.12.17-.15.15-.19c.43-.72.44-1.3.36-2.11l-.06-.36-.09-.37-.11-.38-.14-.38-.16-.38-.19-.37-.21-.37-.24-.36-.26-.34-2.62-3.26-1.07.62 1.77 3.26.26.34.24.36.21.37.19.37-.12.38.14.38.11.38.09.37.06.36.03.35.01.34-.02.33-.05.31-.08.29-.11.26-.14.24.42.19-.17.15z" fill="url(#aj)"/><path d="m16.31 70.91-1.87-1.08v-8.43l2.08 1.2c.81.47 1.39.84 1.72 1.13.33.28.61.6.84.95.27.41.47.85.62 1.32.14.47.21.94.21 1.41 0 .5-.07.9-.21 1.21-.14.3-.35.5-.62.58-.21.07-.45.06-.73-.02s-.73-.3-1.34-.65l-.34-.2-.36-.21zm0-4.64.38.22c.48.28.81.39 1 .35s.28-.24.28-.61c0-.35-.09-.66-.28-.92s-.52-.52-.99-.79l-.4-.23v1.98zm4.61 7.29v-8.43l4.47 2.58v1.85l-2.53-1.46v1.46l2.39 1.38v1.8l-2.39-1.38v1.43l2.53 1.46v1.89zm6.83 3.95v-6.44l-1.63-.94v-1.99l5.26 3.04v1.99l-1.63-.94v6.44zm7.82 1.79c.3.56.59 1.02.87 1.37.29.36.57.62.86.78.26.15.49.2.66.13s.26-.22.26-.48c0-.28-.07-.54-.22-.77-.15-.24-.48-.59-1-1.05-.71-.63-1.22-1.22-1.52-1.74-.3-.53-.44-1.1-.44-1.72 0-.81.23-1.33.7-1.57s1.07-.14 1.82.29c.4.23.78.52 1.14.85s.7.72 1.03 1.16l-.62 1.29c-.23-.35-.46-.65-.7-.9s-.47-.44-.7-.58c-.24-.14-.43-.18-.58-.14s-.22.17-.22.38.06.42.2.62c.13.2.39.46.76.8l.09.08c.81.73 1.35 1.31 1.6 1.76.17.31.3.63.39.97s.13.69.13 1.04c0 .89-.25 1.47-.76 1.71-.51.25-1.19.13-2.03-.36-.51-.29-.97-.66-1.39-1.1s-.82-.99-1.2-1.63zm5.61 5.96v-8.43l1.99 1.15v3.28l2.65 1.53v-3.28l1.99 1.15v8.43l-1.99-1.15v-3.43l-2.65-1.53v3.43zm15.68 4.86c0 .61-.1 1.12-.29 1.54s-.47.73-.84.94c-.37.2-.8.27-1.28.22s-.98-.23-1.49-.52c-.52-.3-1.02-.7-1.5-1.2s-.89-1.06-1.26-1.68c-.37-.64-.66-1.28-.86-1.92-.19-.64-.29-1.27-.29-1.87s.1-1.11.29-1.53.48-.73.86-.93c.36-.2.78-.28 1.26-.23s.98.23 1.5.53 1.02.7 1.5 1.2.9 1.07 1.27 1.69c.37.63.65 1.26.84 1.91.19.62.29 1.24.29 1.85zm-3.9.22c.55.32 1.01.35 1.37.09s.54-.75.54-1.46-.18-1.4-.55-2.08-.82-1.18-1.36-1.49c-.55-.32-1.01-.35-1.37-.08-.36.26-.54.75-.54 1.46 0 .72.18 1.42.53 2.09.36.65.82 1.15 1.38 1.47zm7.01 5.77-1.87-1.08v-8.43l2.08 1.2c.81.47 1.38.84 1.71 1.13.33.28.61.6.84.96.27.41.48.85.62 1.32s.21.94.21 1.41c0 .5-.07.9-.21 1.21-.14.3-.35.5-.62.58-.21.07-.45.06-.73-.02s-.73-.3-1.34-.65l-.34-.2-.36-.21zm0-4.63.38.22c.48.28.81.39 1 .35s.28-.24.28-.61c0-.35-.09-.66-.28-.92s-.52-.52-.99-.79l-.4-.23z" fill="#fec35b"/><path d="m34.88 53.95c-1.09.1-1.39 1.7-.66 3.59.73 1.88 2.21 3.33 3.3 3.23s1.39-1.7.66-3.59c-.73-1.88-2.21-3.33-3.3-3.23zm-4.14 3.96c.57-.81 1.94-.31 3.08 1.1 1.13 1.41 1.59 3.21 1.03 4.01-.57.8-1.94.31-3.08-1.1-1.13-1.41-1.59-3.2-1.03-4.01zm12.39.8c1.09 1.36 1.39 3.31.66 4.35s-2.21.78-3.3-.58-1.39-3.3-.66-4.34 2.21-.79 3.3.57zm4.13 8.74c.56 1.46.1 2.72-1.03 2.82s-2.51-1-3.08-2.45c-.57-1.46-.1-2.72 1.03-2.82s2.52 1 3.08 2.45zm-8.26-4.15-2.62.23c-1.44.13-1.94 1.99-1.11 4.13.76 1.95 2.36 3.49 3.73 3.66 1.37 1.41 2.97 1.72 3.73.65.83-1.18.33-3.62-1.11-5.41z" fill="#f3e8d7"/><g fill="#4e1212"><path d="m71.38 67.7-1.59.92v36.23l1.59-.92z"/><path d="m73.9 66.24-4.11 2.38v17.53l4.11-2.37z"/><path d="m24.57 50.33v2.81l-5.66-3.27-.87-2.25 5.66.45z"/><path d="m21.54 51.89v2.81l-5.66-3.26-.87-2.26 5.66.46z"/></g><path d="m14.13 46.88 5.66 6.07.88-3.31-5.66-3.27z" fill="#933e2f"/><path d="m20.5 50.26.17-.62-2.38-1.38-.62.36z" fill="#4e1212"/><path d="m14.13 46.87 5.66 3.27v2.81l-5.66-3.26z" fill="#863524"/><path d="m20.67 49.64-.88.5v2.81l.88-.5z" fill="#4e1212"/><path d="m27.6 55.39v2.81l-5.66-3.27-.87-2.25 5.66.45z" fill="#4e1212"/><path d="m20.19 50.37 5.66 6.08.88-3.32-5.66-3.26z" fill="#933e2f"/><path d="m21.07 49.87-.62.36 2.87 1.66h1.25z" fill="#4e1212"/><path d="m20.19 50.37 5.66 3.27v2.81l-5.66-3.27z" fill="#863524"/><path d="m26.73 53.13-.88.51v2.81l.88-.5z" fill="#4e1212"/><path d="m17.16 45.31 5.66 6.08.88-3.32-5.66-3.26z" fill="#933e2f"/><path d="m17.16 45.31 5.66 3.27v2.81l-5.66-3.27z" fill="#863524"/><path d="m23.7 48.07-.88.51v2.81l.88-.51z" fill="#4e1212"/><path d="m61.72 77.83v2.81l-5.65-3.26-.88-2.26 5.66.46z" fill="#4e1212"/><path d="m64.76 82.9v2.81l-5.66-3.27-.88-2.25 5.66.45z" fill="#4e1212"/><path d="m57.35 77.88 5.65 6.08.88-3.32-5.66-3.27z" fill="#933e2f"/><path d="m58.22 77.37-.62.36 2.88 1.67h1.24z" fill="#4e1212"/><path d="m57.35 77.88 5.65 3.27v2.81l-5.65-3.27z" fill="#863524"/><path d="m63.88 80.64-.88.51v2.81l.88-.51z" fill="#4e1212"/><path d="m54.32 72.82 5.65 6.07.88-3.31-5.66-3.27z" fill="#933e2f"/><path d="m54.32 72.82 5.65 3.26v2.81l-5.65-3.26z" fill="#863524"/><path d="m60.85 75.58-.88.5v2.81l.88-.5z" fill="#4e1212"/><path d="m57.18 134.46.47.41.28.49.06.1.12.61-.12.46-.44.25-.34.2-.16-.04-.3-.09-.47-.41-.34-.58-.12-.61.12-.46.34-.2.1-.06.34-.19z" fill="#371826"/><path d="m61.13 130.14 5.47 3.16.01.03v2.22l-5.48-3.16zm1.65 2.07c0-.07-.01-.15-.03-.22-.02-.08-.06-.15-.1-.23-.04-.07-.09-.14-.15-.2s-.12-.11-.18-.14c-.06-.04-.12-.06-.18-.06-.06-.01-.11 0-.15.03-.04.02-.08.06-.1.11s-.03.11-.03.18.01.15.03.22c.02.08.06.15.1.23.04.07.09.14.15.2s.12.11.18.14c.06.04.12.06.18.06.06.01.11 0 .15-.03.04-.02.08-.06.1-.11s.03-.11.03-.18zm-.47.02c.07.04.12.04.16.01s.06-.09.06-.17-.02-.17-.07-.25c-.04-.08-.1-.14-.16-.18-.07-.04-.12-.04-.16-.01s-.06.09-.06.17c0 .09.02.17.06.25.05.09.1.14.17.18zm.84.69v-.33l.04.02.04.02c.07.04.13.07.16.08s.06.01.09 0 .06-.03.07-.07c.02-.04.02-.08.02-.14s-.01-.11-.03-.17-.04-.11-.07-.16c-.03-.04-.06-.08-.1-.11s-.11-.08-.2-.13l-.25-.14v1.01zm0-.55.05.03c.06.03.1.05.12.04.02 0 .03-.03.03-.07s-.01-.08-.03-.11-.06-.06-.12-.09l-.05-.03zm.55.87.53.31v-.23l-.3-.17v-.17l.29.16v-.22l-.29-.16v-.17l.3.17v-.22l-.53-.31zm.69.4.23.13v-.5c0-.03 0-.05 0-.09 0-.03-.01-.07-.01-.12.02.05.03.1.05.14.01.04.03.07.03.08l.33.71.23.13v-1.01l-.23-.12v.5.09c0 .03.01.07.01.12-.02-.05-.03-.1-.05-.14-.01-.04-.02-.07-.03-.08l-.33-.71-.23-.13z" fill="#aa888b"/><path d="m60.6 119.08 6.55 3.78v9.55l-6.55-3.78z" fill="#f3e8d7"/><path d="m62.6 128.28v-.71l.13.07c.1.06.16.1.2.13s.07.07.1.11c.04.05.07.11.09.17s.03.12.03.19c0 .06-.01.11-.03.15s-.05.06-.09.07c-.03.01-.06 0-.1-.01s-.1-.04-.18-.09l-.03-.02zm.17-.06.03.02c.07.04.11.05.15.04.03-.01.05-.05.05-.12s-.02-.13-.05-.18-.08-.09-.15-.13l-.03-.02zm1.13.46c0 .05-.01.09-.02.13-.02.04-.04.06-.07.08s-.07.02-.11.02-.08-.02-.13-.04c-.04-.03-.09-.06-.13-.1s-.08-.09-.11-.14-.06-.11-.07-.16c-.02-.05-.02-.11-.02-.16s.01-.09.02-.13c.02-.04.04-.06.07-.08s.07-.02.11-.02.08.02.13.04c.04.03.09.06.13.1s.08.09.11.14.05.11.07.16c.01.05.02.11.02.16zm-.33.02c.05.03.09.03.12.01s.05-.06.05-.12-.02-.12-.05-.18-.07-.1-.12-.13-.09-.03-.12-.01-.05.06-.05.12.02.12.05.18.07.1.12.13zm.73.3v-.15l.33.19v.02.03c0 .12-.03.2-.08.24-.06.04-.14.02-.24-.04-.05-.03-.09-.06-.13-.1s-.07-.09-.1-.14-.05-.1-.07-.16-.02-.11-.02-.16.01-.1.02-.13c.02-.04.04-.06.07-.08s.07-.02.11-.02c.04.01.08.02.13.05.06.03.11.08.16.13s.09.12.12.19h-.15c-.02-.04-.04-.07-.06-.1s-.05-.05-.07-.06c-.05-.03-.09-.03-.12-.01s-.04.07-.04.13c0 .07.01.13.04.19s.07.1.12.13c.04.02.08.03.11.03.03-.01.05-.03.05-.07zm.46.3c.03.05.05.09.07.12s.05.05.07.07c.02.01.04.02.06.01.01-.01.02-.02.02-.04s-.01-.05-.02-.07-.04-.05-.09-.09c-.06-.05-.1-.1-.13-.15-.03-.04-.04-.09-.04-.15 0-.07.02-.11.06-.13s.09-.01.15.02c.03.02.07.04.1.07s.06.06.09.1l-.05.11c-.02-.03-.04-.06-.06-.08s-.04-.04-.06-.05-.04-.02-.05-.01c-.01 0-.02.01-.02.03s.01.04.02.05c.01.02.03.04.06.07l.01.01c.07.06.11.11.14.15.01.03.03.05.03.08.01.03.01.06.01.09 0 .08-.02.12-.06.15-.04.02-.1.01-.17-.03-.04-.02-.08-.06-.12-.09-.04-.04-.07-.08-.1-.14z" fill="#3f1131"/><path d="m62.07 128.21.08.38c0 .02.01.04.01.05 0 .02.01.04.01.06 0-.02.01-.04.01-.06 0-.01.01-.03.01-.04l.07-.3.17.1-.17.61-.16-.09-.08-.33c0-.01-.01-.04-.01-.07 0-.02-.01-.03-.01-.04 0 .01 0 .01-.01.03-.01.03-.01.05-.01.06l-.08.26-.16-.09-.17-.82.17.1.07.38c0 .02.01.04.01.06s.01.04.01.06c0-.01.01-.02.01-.04 0-.01.01-.03.01-.06l.08-.3zm.41.96v-.71l.38.22v.16l-.21-.12v.12l.2.12v.15l-.2-.12v.12l.21.12v.16zm.49.28v-.71l.17.1v.55l.21.12v.17zm.91-.16v.21c-.02-.04-.05-.08-.07-.11s-.05-.05-.07-.06c-.05-.03-.09-.03-.12-.01s-.04.06-.04.12.01.11.05.17c.03.06.07.1.12.12.03.01.05.02.07.02s.05-.01.07-.03v.21c-.03 0-.05 0-.08-.01s-.05-.02-.08-.04-.06-.04-.09-.07-.06-.06-.08-.09c-.05-.06-.08-.13-.11-.2-.02-.07-.04-.14-.04-.2 0-.05.01-.1.02-.14.02-.04.04-.06.07-.08s.06-.02.1-.02.08.02.12.04c.03.02.05.03.08.06.03.05.06.08.08.11zm.73.75c0 .05-.01.09-.02.13-.02.04-.04.06-.07.08s-.07.02-.11.02-.08-.02-.13-.04c-.04-.03-.09-.06-.13-.1s-.08-.09-.11-.14-.06-.11-.07-.16c-.02-.05-.02-.11-.02-.16s.01-.09.02-.13c.02-.04.04-.06.07-.08s.07-.02.11-.02.08.02.13.05c.04.03.09.06.13.1s.08.09.11.14.05.11.07.16c.01.05.02.1.02.15zm-.33.02c.05.03.09.03.12.01s.05-.06.05-.12-.02-.12-.05-.18-.07-.1-.12-.13-.09-.03-.12-.01-.05.06-.05.12.01.12.05.18.08.1.12.13zm1.15.81-.16-.09-.04-.33c0-.02 0-.05-.01-.08 0-.03 0-.06-.01-.09 0 .03-.01.06-.02.1 0 .01 0 .01-.01.02l-.08.29-.11-.06-.08-.38c0-.01 0-.01-.01-.02-.01-.05-.02-.09-.02-.13 0 .03 0 .05-.01.08 0 .03 0 .05-.01.07l-.04.29-.16-.09.1-.66.17.1.09.42v.01c.01.04.01.07.02.09 0-.01 0-.02.01-.04 0-.01.01-.03.01-.05l.09-.31.17.1zm.09.05v-.71l.38.22v.16l-.21-.12v.12l.2.12v.15l-.2-.12v.12l.21.12v.16zm.49.05v-.51l.16.09v.51zm0 .15c0 .03.01.06.02.08.02.03.04.05.06.06s.04.02.06.01.02-.03.02-.06-.01-.06-.02-.08c-.02-.03-.04-.05-.06-.06s-.04-.02-.06-.01c-.02.02-.02.03-.02.06z" fill="#3f1131"/><path d="m62.61 123.16-.13-.01.16.61.03.35v.73l-.17.24v.5l.32.18v-.37l.26-.11.16-.26.43.37.56.29v.92l.32.18v-.92l.5-.72.47.27.11-.16-.28-.46-.04-.14-.24-.24-.08-.41c-.27.16-.54.31-.81.47l-1.24-.72z" fill="#3f1131"/><path d="m63.87 121.84c.73.42 1.38 1.14 1.86 1.96s.77 1.75.77 2.59-.29 1.43-.77 1.7-1.13.23-1.86-.18c-.73-.42-1.38-1.14-1.86-1.96s-.77-1.75-.77-2.59.29-1.43.77-1.7c.48-.28 1.14-.24 1.86.18zm1.53 2.15c-.39-.68-.93-1.26-1.52-1.61-.59-.34-1.13-.38-1.52-.15-.39.22-.63.71-.63 1.39 0 .69.24 1.45.63 2.12s.93 1.26 1.52 1.61c.59.34 1.13.38 1.52.15.39-.22.63-.71.63-1.39s-.25-1.44-.63-2.12z" fill="#45b649"/><path d="m27.84 137.47-2.27-1.3-.73 2.75 4.59 2.65z" fill="url(#ak)"/><path d="m84.72 117.65 3.32 1.92v-.7l.63-.36-3.33-1.92-.62.36z" fill="#080505"/><path d="m84.72 121.05 3.32 1.92v-.7l.63-.36-3.33-1.92-.62.36z" fill="#080505"/><path d="m98.38 117.11.32-1.59 2.87-.25 3.23 3.22-.79 2.15-2.4-.3-2.31-.87z" fill="#f99e29"/><path d="m101.61 120.34 3.19-1.85 2.64 4.08-1.12 1.47-2.07.37-2.38-1.9z" fill="#ea8724"/><path d="m89.08 115.65 2-1.07 1.81-1.02 1.45-.4-1.82 1.27-1.86.92z" fill="#f68b28"/><path d="m104.25 124.41 3.19-1.84 1.72 4.43-1.72 1.81-1.47.03-1.6-2.76z" fill="#bd6628"/><path d="m98.13 113.28 3.44 1.99-3.19 1.84-3.81-1.16-.54-.97 3.2-1.84z" fill="#faa62d"/><path d="m91.71 114.62 2.23-1.29 3.56-.15.63.1-3.19 1.85-1.56.31z" fill="#faa62d"/><path d="m93.31 113.7-2.17 1.14-.48.51-1.14.22-.35.3-.09-.22 3.19-1.84.62-.25 2.01-.78 2.6.4z" fill="#994a22"/><path d="m105.97 128.84 3.19-1.84.6 4.25-1.75 2.35-1.45-.5-1.92-2.41z" fill="url(#al)"/><path d="m106.56 133.1 3.2-1.85-.6 3.57-2.29 2-.9-.16-.86-2.33z" fill="#8e3f1f"/><path d="m109.16 134.82-1.72 2.45-3.19 1.84.88-2.17-.02-2.61.86 2.33z" fill="#8e3f1f"/><path d="m99.15 117.88 2.47 2.46 2.63 4.07 1.72 4.43.14 1.01.46 3.25-.43 2.56-.17 1-1.72 2.45-2.63 1.03-2.32-.37-.91-.14-3.44-1.99-3.23-3.22-.57-.88v-.7c-.39-.33-.76-.7-1.12-1.11v-2.61c.36.34.73.65 1.12.91v-3.05c-.38-.32-.76-.69-1.12-1.11v-3.95c.32.69.7 1.35 1.12 1.94v-9.02l.57-.22 3.23.51 3.44 1.99z" fill="#f8972a"/><path d="m91.14 133.54-2.06-3.19-1.72-4.43-.6-4.26c.2-1.19.4-2.38.6-3.57l1.72-2.45.62-.24 1.44-.56z" fill="url(#am)"/><path d="m94.12 118.66c-.67.06-.85 1.04-.4 2.19s1.35 2.03 2.02 1.97.85-1.04.4-2.19c-.45-1.14-1.35-2.03-2.02-1.97zm-2.52 2.42c.35-.49 1.19-.19 1.88.67s.97 1.96.63 2.45c-.35.49-1.19.19-1.88-.67s-.98-1.96-.63-2.45zm7.56.49c.67.83.85 2.02.4 2.65s-1.35.48-2.02-.35-.85-2.02-.4-2.65c.45-.64 1.35-.48 2.02.35zm2.53 5.33c.35.89.06 1.66-.63 1.72s-1.53-.61-1.88-1.5-.06-1.66.63-1.72 1.53.61 1.88 1.5zm-5.05-2.53-1.6.14c-.88.08-1.18 1.21-.68 2.52.46 1.19 1.44 2.13 2.28 2.23.84.86 1.82 1.05 2.28.4.51-.72.2-2.21-.68-3.3z" fill="#7e2f21"/><path d="m90.55 131.12-.5-.29v-2.27l.56.32c.22.13.37.23.46.3.09.08.16.16.23.26.07.11.13.23.17.36s.06.25.06.38c0 .14-.02.24-.06.32s-.09.13-.17.16c-.06.02-.12.02-.2-.01-.08-.02-.2-.08-.36-.18l-.09-.05-.1-.06zm0-1.25.1.06c.13.07.22.11.27.09.05-.01.08-.07.08-.16 0-.1-.03-.18-.08-.25s-.14-.14-.27-.21l-.11-.06zm1.24 1.96v-2.27l1.2.7v.5l-.68-.39v.39l.64.37v.49l-.64-.37v.38l.68.39v.51zm1.84 1.07v-1.73l-.44-.25v-.54l1.42.82v.54l-.44-.25v1.73zm2.11.48c.08.15.16.27.24.37s.15.17.23.21c.07.04.13.05.18.04.05-.02.07-.06.07-.13 0-.08-.02-.14-.06-.21-.04-.06-.13-.16-.27-.28-.19-.17-.33-.33-.41-.47s-.12-.3-.12-.46c0-.22.06-.36.19-.42s.29-.04.49.08c.11.06.21.14.31.23s.19.19.28.31l-.17.35c-.06-.1-.12-.18-.19-.24-.06-.07-.13-.12-.19-.15-.06-.04-.12-.05-.16-.04s-.06.05-.06.1c0 .06.02.11.05.17.04.05.1.12.2.22l.02.02c.22.2.36.35.43.47.05.08.08.17.11.26.02.09.04.19.04.28 0 .24-.07.39-.21.46s-.32.03-.55-.1c-.14-.08-.26-.18-.37-.3s-.22-.27-.32-.44zm1.51 1.6v-2.27l.54.31v.88l.71.41v-.88l.54.31v2.27l-.54-.31v-.92l-.71-.41v.92zm4.22 1.31c0 .16-.03.3-.08.41s-.13.2-.23.25-.22.07-.34.06c-.13-.01-.26-.06-.4-.14s-.28-.19-.4-.32c-.13-.13-.24-.29-.34-.45-.1-.17-.18-.34-.23-.52-.05-.17-.08-.34-.08-.5s.03-.3.08-.41.13-.2.23-.25.21-.08.34-.06c.13.01.26.06.4.14s.27.19.4.32c.13.14.24.29.34.46s.17.34.23.51c.05.17.08.34.08.5zm-1.05.06c.15.09.27.09.37.02s.15-.2.15-.39-.05-.38-.15-.56-.22-.32-.37-.4c-.15-.09-.27-.09-.37-.02s-.15.2-.15.39.05.38.14.56c.1.18.23.32.38.4zm1.89 1.56-.5-.29v-2.27l.56.32c.22.13.37.23.46.3.09.08.16.16.23.26.07.11.13.23.17.36s.06.25.06.38c0 .14-.02.24-.06.32s-.09.13-.17.16c-.06.02-.12.02-.2-.01-.07-.02-.2-.08-.36-.18l-.09-.05-.1-.06zm0-1.25.1.06c.13.07.22.11.27.09.05-.01.08-.07.08-.16 0-.1-.03-.18-.08-.25s-.14-.14-.27-.21l-.11-.06z" fill="#7e2f21"/><path d="m90.55 131.12-.5-.29v-2.27l.56.32c.22.13.37.23.46.3.02.02.05.04.07.06v1.41l-.04-.01c-.08-.02-.2-.08-.36-.18l-.09-.05-.1-.06zm0-1.25.1.06c.13.07.22.11.27.09.05-.01.08-.07.08-.16 0-.1-.03-.18-.08-.25s-.14-.14-.27-.21l-.11-.06z" fill="#4e1212"/><path d="m75.48 130.99v2.81l-5.66-3.27-.87-2.25 5.66.45z" fill="url(#an)"/><path d="m68.07 125.97 5.66 6.08.88-3.32-5.66-3.26z" fill="#faa62d"/><path d="m68.07 125.97 5.66 3.27v2.81l-5.66-3.27z" fill="#f8972a"/><path d="m74.61 128.73-.88.51v2.81l.88-.51z" fill="url(#ao)"/><path d="m78.01 150.49v2.81l-5.65-3.27-.88-2.25 5.66.45z" fill="url(#ap)"/><path d="m70.61 145.47 5.65 6.08.88-3.32-5.66-3.26z" fill="#faa62d"/><path d="m70.61 145.47 5.65 3.27v2.81l-5.65-3.27z" fill="#f8972a"/><path d="m77.14 148.23-.88.51v2.81l.88-.5z" fill="url(#aq)"/><path d="m9.7 109.09v2.81l-5.65-3.27-.88-2.26 5.66.46z" fill="url(#ar)"/><path d="m2.3 104.07 5.65 6.08.88-3.32-5.66-3.27z" fill="#faa62d"/><path d="m2.3 104.07 5.65 3.26v2.82l-5.65-3.27z" fill="#f8972a"/><path d="m8.83 106.83-.88.5v2.82l.88-.51z" fill="url(#as)"/><path d="m24.4 120.04c-.07.1-.18.16-.3.18h-.01c-.13.01-.28-.03-.43-.12-.21-.12-.41-.32-.57-.57-.16.07-.36.04-.57-.08-.48-.28-.87-.95-.87-1.51v-1.87c0-.67.21-1.19.6-1.47-.18-.48-.28-.96-.28-1.39 0-.46.11-.85.32-1.12-.12-.56-.11-1.08.03-1.49l.03-.09.1.06c.47.25.94.68 1.33 1.2.13.05.25.11.38.18l.97.56c.13.07.25.16.38.26.39-.07.86.05 1.33.33l.1.06.03.13c.14.57.15 1.09.03 1.52.21.51.32 1.03.32 1.49 0 .43-.09.8-.28 1.07.39.73.6 1.49.6 2.17v1.87c0 .55-.39.78-.87.5-.21-.12-.41-.32-.57-.57-.1.04-.22.04-.34.01-.07-.02-.15-.05-.23-.1-.15-.09-.3-.22-.43-.38l-.01-.02c-.12-.16-.23-.34-.3-.52-.03-.01-.06-.02-.09-.04-.05-.02-.1-.05-.15-.08s-.1-.06-.15-.1c-.04-.02-.07-.04-.1-.07zm-1.6-4.37c.12.22.26.44.42.63l.05.06c.01.01.02.02.03.04.28.34.6.62.92.8l.85.49c.22.13.45.21.66.25.28.04.54-.01.75-.14-.38.13-.86.05-1.35-.24l-.97-.56c-.34-.2-.67-.48-.98-.83-.13-.16-.26-.33-.38-.5zm4.2 2.16c-.06.09-.13.16-.2.23l-.03.02c-.25.2-.58.28-.95.23-.21-.03-.44-.11-.66-.23.06.15.1.31.1.45 0 .4-.28.56-.62.36s-.62-.68-.62-1.08c0-.14.03-.25.1-.33-.33-.21-.66-.51-.96-.86-.03-.04-.06-.08-.09-.12l-.09-.11c-.27-.36-.49-.76-.66-1.18-.01-.03-.03-.07-.04-.1-.23.26-.35.65-.35 1.13v1.87c0 .37.26.82.58 1.01.14.08.28.1.38.05-.04-.1-.08-.21-.12-.31-.24-.59-.44-1.11-.44-1.66v-.93l.29.17v.93c0 .47.2.96.4 1.47.04.11.08.21.13.32.16.41.51.72.79.71h.01c.28-.02.37-.38.21-.79l-.02-.05.25-.02.02.05c.11.27.14.54.1.75l.01.01c.08.06.16.1.24.14 0 0 .01 0 .01.01-.04-.26-.01-.49.1-.64l.02-.03.25.31-.02.03c-.16.23-.06.69.21 1.04l.01.01c.13.16.29.27.43.31.15.04.28 0 .35-.11.04-.06.08-.11.13-.17.2-.27.4-.53.4-1.01v-.93l.29.17v.93c0 .55-.2.84-.44 1.15-.04.06-.08.11-.12.17.11.17.24.31.38.39.32.19.58.03.58-.34v-1.87c.01-.49-.11-1.02-.34-1.55zm-2.36-.04c-.18-.11-.33-.02-.33.19s.15.47.33.58.33.02.33-.19c.01-.22-.14-.48-.33-.58zm2.09-4.43c-.39-.22-.78-.3-1.1-.22l-.05.01-.06-.05c-.13-.1-.25-.19-.38-.26l-.97-.56c-.13-.07-.26-.13-.38-.18l-.06-.02-.05-.07c-.32-.45-.71-.82-1.1-1.05-.1.36-.09.8.02 1.27l.02.09-.04.04c-.2.24-.31.59-.31 1.01 0 .41.1.87.29 1.33.19.45.45.88.76 1.24.27.31.55.55.85.72l.97.56c1.05.6 1.9.11 1.9-1.1 0-.42-.11-.9-.31-1.37l-.04-.09.02-.06c.1-.34.11-.77.02-1.24zm-2.09 1.87c.11.2.26.36.42.45.31.18.56.03.56-.32v-.04l-.29-.17v.04c0 .17-.12.24-.27.16-.15-.09-.27-.3-.27-.47v-.39l-.29-.17v.39c0 .17-.12.24-.27.16-.15-.09-.27-.3-.27-.47v-.04l-.29-.17v.04c0 .36.25.79.56.97.16.1.31.1.41.03zm-.42-1.47.03.05.2-.12-.03-.05c-.32-.55-.87-.87-1.19-.69l-.03.01.2.35.03-.01c.22-.12.58.09.79.46zm1.63.94.03.05.2-.12-.03-.04c-.32-.55-.87-.87-1.19-.69l-.03.01.2.35.03-.02c.22-.11.58.1.79.46z" fill="#b9a6a1"/><path d="m32.71 124.84c-.03-.01-.06-.02-.09-.04-.05-.02-.1-.05-.15-.08s-.1-.06-.15-.1c-.03-.02-.06-.04-.09-.07-.07.1-.18.16-.3.17h-.01c-.13.01-.28-.03-.43-.12-.21-.12-.41-.32-.57-.57-.16.07-.36.04-.57-.08-.48-.28-.87-.95-.87-1.51v-1.87c0-.59.17-1.07.47-1.36-.07-.08-.12-.17-.18-.26-.17-.29-.26-.59-.26-.86v-1.35c0-.27.09-.47.26-.57s.39-.07.62.06l.25.14c.2-.21.45-.33.75-.35.66-.04 1.51.45 2.17 1.25.3.36.56.78.75 1.21l.25.14c.23.14.45.37.62.65.17.29.26.59.26.86v1.35c0 .27-.09.47-.26.57-.05.03-.11.05-.18.06.31.65.47 1.32.47 1.91v1.87c0 .55-.39.78-.87.5-.21-.12-.41-.32-.57-.57-.1.04-.22.04-.34.01-.07-.02-.15-.05-.23-.1-.15-.09-.3-.22-.43-.38l-.01-.02c-.13-.12-.23-.3-.31-.49zm-2.48-5.33c-.3.25-.47.69-.47 1.25v1.87c0 .37.26.82.58 1.01.14.08.28.1.38.05-.04-.1-.08-.21-.12-.31-.24-.59-.44-1.11-.44-1.66v-.93l.29.17v.93c0 .47.2.96.4 1.47.04.11.08.21.13.32.16.41.51.72.78.71h.01c.28-.03.37-.38.21-.79l-.02-.05.25-.02.02.05c.11.27.14.54.1.75l.01.01c.08.06.16.1.24.14 0 0 .01 0 .01.01-.04-.26-.01-.49.1-.64l.02-.03.25.31-.02.03c-.16.23-.06.7.21 1.04l.01.01c.13.16.29.27.43.31.15.04.28 0 .35-.11.04-.06.08-.11.13-.17.2-.27.4-.53.4-1.01v-.93l.29.17v.93c0 .55-.2.84-.44 1.15-.04.05-.08.11-.12.17.11.17.24.31.38.39.32.19.58.03.58-.34v-1.87c0-.55-.17-1.18-.47-1.79-.03-.01-.05-.02-.08-.03-.13.44-.39.75-.75.87-.4.14-.9.06-1.41-.24-.51-.29-1.01-.79-1.41-1.39-.36-.54-.63-1.16-.75-1.74 0-.03-.03-.05-.06-.07zm.38.2c.12.49.34 1 .64 1.45.35.52.78.95 1.22 1.21s.88.33 1.22.21c.3-.11.52-.35.64-.71-.38-.34-.66-.9-.66-1.36v-1.54l.29.17v1.54c0 .37.26.83.59 1.02.16.09.3.1.42.04.11-.06.17-.2.17-.38v-1.35c0-.18-.06-.39-.17-.58s-.26-.35-.42-.44l-.4-.23-.04-.1c-.18-.41-.42-.81-.69-1.15-.58-.7-1.31-1.13-1.89-1.09-.28.02-.52.14-.69.34l-.04.05-.4-.23c-.16-.09-.3-.1-.42-.04-.11.06-.17.2-.17.38v1.35c0 .18.06.39.17.58s.26.35.42.44c.32.19.59.04.59-.34v-1.54l.29.17v1.54c-.01.45-.29.7-.67.59zm2.49-.87c-.12-.07-.22-.01-.22.13s.1.31.22.38.22.01.22-.13c.01-.14-.09-.31-.22-.38zm-1.26-.73c-.12-.07-.22-.01-.22.13s.1.31.22.38.22.01.22-.13-.1-.31-.22-.38zm.02 2.96v.14c0 .39.27.87.61 1.06.34.2.61.04.61-.35v-.14c.26.07.45-.1.45-.41v-.04l-.29-.17v.04c0 .2-.14.28-.31.18s-.31-.34-.31-.54v-.22l.04.02c.27.15.48.03.48-.28s-.22-.68-.48-.84l-.36-.21c-.27-.15-.48-.03-.48.28s.22.68.48.84l.04.02v.22c0 .2-.14.28-.31.18s-.31-.34-.31-.54v-.04l-.29-.17v.04c-.02.31.17.7.43.93zm.94.55c-.13-.11-.24-.25-.32-.41-.08.07-.2.08-.32.04v.13c0 .21.15.46.32.56.18.1.32.02.32-.19zm-.15-1.76-.36-.21c-.11-.06-.19-.01-.19.11s.09.27.19.34l.36.21c.11.06.19.01.19-.11.01-.13-.08-.28-.19-.34z" fill="#b9a6a1"/><path d="m38.64 121.41c-.06-.11-.09-.23-.09-.34 0-.24.17-.33.37-.21l3.85 2.22c.21.12.37.41.37.65 0 .11-.03.19-.09.23.98 1.39 1.56 3.02 1.56 4.42 0 1.39-.57 2.35-1.54 2.61v.02l-.03-.02c-.64.16-1.41.01-2.2-.45-2.07-1.2-3.76-4.12-3.76-6.51 0-1.4.57-2.36 1.56-2.62zm-.45 5.87c.66 1.28 1.62 2.35 2.65 2.94.59.34 1.16.5 1.67.47l-2.09-1.21-.03-.14c-.04-.19-.17-.39-.32-.49l-.1-.06-.03-.12c-.06-.23-.28-.55-.46-.65-.16-.09-.21-.09-.32-.05l-.12.05-.09-.21c-.09-.21-.25-.4-.41-.49-.14-.08-.26-.09-.35-.04zm1.98 1.32c.2.16.37.41.45.67l2.32 1.34c.86-.26 1.37-1.14 1.37-2.4 0-1.37-.59-2.97-1.59-4.29l-3.77-2.18c-1 .17-1.59 1.08-1.59 2.46 0 .84.23 1.79.65 2.72.14-.07.32-.04.51.07.21.12.41.33.55.59.12-.02.24.03.39.11.29.16.59.56.71.91zm2.22-1.75c.42-.09.47-.56.52-1.08l.03-.33-.16-.09c-.63-.36-.96-.32-1.31.04-.07.07-.17.18-.28.17-.07-.01-.15-.16-.19-.24l-.02-.04c.15-.2.16-.56.03-.95l-.02-.07-.05-.05c-.24-.23-.5-.36-.72-.34-.15.01-.28.1-.35.24l-.01-.01c-.72-.42-1.34-.24-1.57.42l-.02.05.02.07c.21.63.59 1.22 1.06 1.64.15.13.3.25.46.34.13.07.25.13.37.16.01.04.03.08.04.12.14.36.4.68.67.84.12.07.25.11.36.11h.05l.02-.05c.08-.21.06-.49-.06-.79-.04-.11-.1-.22-.17-.33.01 0 .03.01.04.02.12.11.25.38.33.53.37.74.7 1.21 1.32 1.57l.22.13-.1-.29c-.08-.25-.12-.48-.16-.72-.04-.39-.1-.71-.35-1.07zm-2.21-.77c-.06-.22-.26-.31-.41-.39l-.01-.01c-.04.13-.11.22-.2.28-.04.02-.08.04-.13.05.12.11.25.21.38.28.05.03.1.06.15.08-.08-.05-.15-.12-.22-.21l-.03-.04.14-.2.03.04c.09.11.22.17.3.12zm.19.35c.1-.01.2-.04.3-.07.13-.05.28-.11.45-.01.03.02.06.04.09.07.21.18.35.47.47.73.26.52.47.88.88 1.18-.04-.17-.07-.34-.1-.51-.06-.41-.1-.67-.43-1.02l-.31-.33.31.03c.5.05.53-.37.58-.9-.45-.22-.66-.14-.92.12-.11.11-.22.22-.39.21-.05 0-.1-.02-.15-.05-.16-.09-.26-.27-.36-.45-.03-.05-.06-.1-.09-.15l-.01-.01c-.13-.2-.29-.39-.46-.54l-.08-.07-.07-.06-.1-.08-.07-.05c-.03-.02-.05-.03-.08-.05-.57-.33-1.08-.21-1.28.29.11.31.28.62.49.89.11.05.22.05.3.01.09-.06.15-.17.15-.32s-.05-.33-.15-.49l-.03-.04.2-.12.03.04c.13.23.21.47.23.69.32.18.62.4.69.89l.01.07-.03.04c-.01.03-.04.05-.07.06zm-1.35-1.75c-.12-.07-.21-.01-.21.12 0 .14.1.3.21.37.12.07.21.01.21-.12s-.1-.3-.21-.37zm1.43 2.12c.01.02.01.04.02.06.12.31.38.56.6.59.03-.12.01-.28-.05-.44-.04-.11-.1-.21-.17-.3-.13.05-.26.09-.4.09zm.31-1.86c.07-.13.08-.32.02-.53-.14-.12-.3-.19-.43-.18-.07.01-.14.04-.18.09l.03.03.12.11.01.01c.15.14.29.29.43.47zm-1.85-3.55 3.86 2.23c.05.03.09 0 .09-.05 0-.06-.04-.13-.09-.15l-3.85-2.22c-.05-.03-.09-.01-.09.05-.01.04.03.11.08.14z" fill="#b9a6a1"/><path d="m24.4 120.04c-.07.1-.18.16-.3.17h-.01c-.13.01-.28-.03-.43-.12-.21-.12-.41-.32-.57-.57-.16.07-.36.04-.57-.08-.48-.28-.87-.95-.87-1.51v-1.87c0-.67.21-1.19.6-1.47-.18-.48-.28-.96-.28-1.39 0-.46.11-.85.32-1.12-.12-.56-.11-1.08.03-1.49l.03-.09.1.06c.47.26.94.68 1.33 1.2.13.05.25.11.38.18l.97.56c.13.07.25.16.38.26.39-.07.86.05 1.33.33l.1.06.03.13c.14.57.15 1.09.03 1.52.21.51.32 1.03.32 1.49 0 .43-.09.8-.28 1.07.39.73.6 1.49.6 2.17v1.87c0 .55-.39.78-.87.5-.21-.12-.41-.32-.57-.57-.1.04-.22.04-.34.01-.07-.02-.15-.05-.23-.1-.15-.09-.3-.22-.43-.39l-.01-.02c-.12-.16-.23-.33-.3-.52-.03-.01-.06-.02-.09-.04-.05-.02-.1-.05-.15-.08s-.1-.06-.15-.1c-.04 0-.07-.02-.1-.05zm-1.6-4.37c.12.22.26.44.42.64l.05.06c.01.01.02.03.03.04.28.34.6.62.92.8l.85.49c.22.13.45.21.66.25.28.04.54-.01.75-.14-.38.13-.86.05-1.35-.24l-.97-.56c-.34-.2-.67-.48-.98-.83-.13-.17-.26-.34-.38-.51zm4.2 2.16c-.06.09-.13.16-.2.23l-.03.02c-.25.2-.58.28-.95.23-.21-.03-.44-.11-.66-.23.06.15.1.31.1.45 0 .4-.28.56-.62.36s-.62-.68-.62-1.08c0-.14.03-.25.1-.33-.33-.21-.66-.51-.96-.86-.03-.04-.06-.08-.09-.12l-.09-.11c-.27-.36-.49-.76-.66-1.18-.01-.03-.03-.07-.04-.1-.23.26-.35.65-.35 1.13v1.87c0 .37.26.82.58 1.01.14.08.28.1.38.05-.04-.1-.08-.21-.12-.31-.24-.59-.44-1.11-.44-1.66v-.93l.29.17v.93c0 .47.2.96.4 1.47.04.11.08.21.13.32.16.41.51.72.79.71h.01c.28-.02.37-.38.21-.79l-.02-.05.25-.02.02.05c.11.27.14.54.1.75l.01.01c.08.06.16.1.24.14 0 0 .01 0 .01.01-.04-.26-.01-.49.1-.64l.02-.03.25.31-.02.03c-.16.23-.06.69.21 1.04l.01.01c.13.16.29.27.43.31.15.04.28 0 .35-.11.04-.06.08-.11.13-.17.2-.27.4-.53.4-1.01v-.93l.29.17v.93c0 .55-.21.84-.44 1.15-.04.06-.08.11-.12.17.11.17.24.31.38.39.32.19.58.03.58-.34v-1.87c.01-.49-.11-1.02-.34-1.55zm-2.36-.04c-.18-.11-.33-.02-.33.19s.15.47.33.58.33.02.33-.19c.01-.22-.14-.48-.33-.58zm2.09-4.43c-.39-.22-.78-.3-1.1-.22l-.05.01-.06-.05c-.13-.1-.25-.19-.38-.26l-.97-.56c-.13-.07-.26-.13-.38-.18l-.06-.02-.05-.07c-.32-.45-.71-.82-1.1-1.05-.1.36-.09.8.02 1.27l.02.09-.04.04c-.2.24-.31.59-.31 1.01 0 .41.1.87.29 1.33.19.45.45.88.76 1.24.27.31.55.55.85.72l.97.56c1.05.6 1.9.11 1.9-1.1 0-.42-.11-.9-.31-1.37l-.04-.09.02-.06c.1-.34.11-.77.02-1.24zm-2.09 1.87c.11.2.26.36.42.45.31.18.56.03.56-.32v-.04l-.29-.17v.04c0 .17-.12.24-.27.16-.15-.09-.27-.3-.27-.47v-.39l-.29-.17v.39c0 .17-.12.24-.27.16-.15-.09-.27-.3-.27-.47v-.04l-.29-.17v.04c0 .36.25.79.56.97.16.09.31.1.41.03zm-.42-1.48.03.05.2-.12-.03-.05c-.32-.55-.87-.87-1.19-.69l-.03.02.2.35.03-.01c.22-.12.58.09.79.45zm1.63.95.03.05.2-.12-.03-.04c-.32-.55-.87-.87-1.19-.69l-.03.01.2.35.03-.02c.22-.11.58.1.79.46z" fill="#f3e8d7"/><path d="m30.86 124.07c-.15.04-.33.01-.52-.1-.48-.28-.87-.95-.87-1.51v-1.87c0-.48.11-.89.32-1.18l.17.44c-.13.24-.2.55-.2.91v1.87c0 .37.26.82.58 1.01.14.08.27.1.37.06zm-1.35-6.45v-.02l.29.76v.03zm5 8.74c-.06-.04-.12-.09-.18-.15l.06-.17zm-4.2-3.77c-.06-.25-.1-.49-.1-.73v-1.05l-.05-.03v.93c0 .3.06.59.15.88zm-.3-3.69.05.13.01.01-.04-.1z" fill="#f3e8d7"/><path d="m41.83 130.97c-.21-.05-.42-.13-.63-.23l.06-.05.13-.2c.1.04.2.07.29.1z" fill="#f3e8d7"/></g></svg>