<svg enable-background="new 0 0 144 218.4" viewBox="0 0 144 218.4" xmlns="http://www.w3.org/2000/svg"><circle cx="72" cy="71.83" fill="#fff" r="64.97"/><g fill="#8f2eff"><path d="m72 .37c-39.76 0-72 32.24-72 72 0 3.01.18 5.97.56 8.88 6.45 49.36 71.44 104.74 71.44 104.74s65.24-54.8 71.35-104.03c.42-3.14.65-6.34.65-9.59 0-39.77-32.24-72-72-72zm-.69 130.7c-33.97 0-61.51-27.54-61.51-61.51s27.54-61.51 61.51-61.51 61.51 27.54 61.51 61.51-27.54 61.51-61.51 61.51z"/><path d="m14.28 193.66h115.44v24.37h-115.44z"/></g></svg>