<svg enable-background="new 0 0 154.81 256.69" viewBox="0 0 154.81 256.69" xmlns="http://www.w3.org/2000/svg" xmlns:xlink="http://www.w3.org/1999/xlink"><linearGradient id="a" gradientUnits="userSpaceOnUse" x1="64.0726" x2="-12.9869" y1="129.3924" y2="129.3924"><stop offset="0" stop-color="#b35469"/><stop offset="1" stop-color="#9a3f54"/></linearGradient><linearGradient id="b"><stop offset="0" stop-color="#735055"/><stop offset="1" stop-color="#54333a"/></linearGradient><linearGradient id="c" gradientUnits="userSpaceOnUse" x1="8.065" x2="26.1155" xlink:href="#b" y1="119.8291" y2="119.8291"/><linearGradient id="d"><stop offset="0" stop-color="#5e6e81"/><stop offset="1" stop-color="#785a5c"/></linearGradient><linearGradient id="e" gradientUnits="userSpaceOnUse" x1="38.1306" x2="15.348" xlink:href="#d" y1="151.6729" y2="150.4789"/><linearGradient id="f" gradientUnits="userSpaceOnUse" x1="26.7537" x2="13.2128" xlink:href="#d" y1="128.6132" y2="128.6132"/><linearGradient id="g" gradientUnits="userSpaceOnUse" x1="29.1998" x2="17.2955" y1="121.478" y2="121.478"><stop offset="0" stop-color="#62697d"/><stop offset="1" stop-color="#5c4e5b"/></linearGradient><linearGradient id="h" gradientUnits="userSpaceOnUse" x1="36.4537" x2="25.4015" y1="107.89" y2="93.7438"><stop offset="0" stop-color="#5b7392"/><stop offset="1" stop-color="#415b7e"/></linearGradient><linearGradient id="i"><stop offset="0" stop-color="#b89a97"/><stop offset="1" stop-color="#8d7476"/></linearGradient><linearGradient id="j" gradientUnits="userSpaceOnUse" x1="43.6755" x2="47.8352" xlink:href="#i" y1="123.0954" y2="115.8905"/><linearGradient id="k" gradientUnits="userSpaceOnUse" x1="12.6406" x2="7.1432" xlink:href="#i" y1="112.5965" y2="112.5965"/><linearGradient id="l" gradientUnits="userSpaceOnUse" x1="19.054" x2="13.5191" xlink:href="#i" y1="108.4858" y2="97.623"/><linearGradient id="m" gradientUnits="userSpaceOnUse" x1="96.4288" x2="140.8862" xlink:href="#b" y1="89.6281" y2="166.6305"/><linearGradient id="n" gradientUnits="userSpaceOnUse" x1="48.2518" x2="48.5086" y1="150.5816" y2="151.3274"><stop offset="0" stop-color="#371826"/><stop offset="1" stop-color="#2c111d"/></linearGradient><linearGradient id="o" gradientUnits="userSpaceOnUse" x1="95.2236" x2="86.2461" y1="91.2249" y2="70.0753"><stop offset="0" stop-color="#8b7275"/><stop offset="1" stop-color="#735055"/></linearGradient><linearGradient id="p" gradientUnits="userSpaceOnUse" x1="44.2611" x2="48.4991" y1="33.4826" y2="41.1282"><stop offset="0" stop-color="#735055"/><stop offset="1" stop-color="#7f3735"/></linearGradient><linearGradient id="q"><stop offset="0" stop-color="#863e39"/><stop offset="1" stop-color="#793131"/></linearGradient><linearGradient id="r" gradientUnits="userSpaceOnUse" x1="49.7261" x2="47.5502" xlink:href="#q" y1="40.9029" y2="37.1342"/><linearGradient id="s" gradientUnits="userSpaceOnUse" x1="96.5884" x2="69.109" xlink:href="#q" y1="76.2434" y2="76.7231"/><linearGradient id="t" gradientUnits="userSpaceOnUse" x1="124.1087" x2="116.1858" xlink:href="#q" y1="65.6056" y2="55.8215"/><linearGradient id="u" gradientUnits="userSpaceOnUse" x1="103.9267" x2="109.0625" y1="54.1932" y2="76.4386"><stop offset="0" stop-color="#746160"/><stop offset="1" stop-color="#644b4c"/></linearGradient><linearGradient id="v" gradientUnits="userSpaceOnUse" x1="111.0847" x2="116.893" y1="48.6727" y2="59.1512"><stop offset="0" stop-color="#866965"/><stop offset="1" stop-color="#5f4044"/></linearGradient><linearGradient id="w" gradientUnits="userSpaceOnUse" x1="72.9311" x2="117.5292" xlink:href="#b" y1="103.0321" y2="180.2783"/><linearGradient id="x" gradientUnits="userSpaceOnUse" x1="73.1256" x2="117.137" y1="103.2742" y2="179.5042"><stop offset="0" stop-color="#724f54"/><stop offset="1" stop-color="#55333a"/></linearGradient><linearGradient id="y" gradientUnits="userSpaceOnUse" x1="73.3199" x2="116.7454" y1="103.516" y2="178.7313"><stop offset="0" stop-color="#714f54"/><stop offset="1" stop-color="#55343b"/></linearGradient><linearGradient id="z" gradientUnits="userSpaceOnUse" x1="73.5141" x2="116.3546" y1="103.7575" y2="177.9595"><stop offset="0" stop-color="#704e53"/><stop offset="1" stop-color="#56353b"/></linearGradient><linearGradient id="A" gradientUnits="userSpaceOnUse" x1="73.708" x2="115.9647" y1="103.9985" y2="177.1892"><stop offset="0" stop-color="#6f4d52"/><stop offset="1" stop-color="#56353c"/></linearGradient><linearGradient id="B" gradientUnits="userSpaceOnUse" x1="73.9018" x2="115.5758" y1="104.239" y2="176.4205"><stop offset="0" stop-color="#6e4c51"/><stop offset="1" stop-color="#57363c"/></linearGradient><linearGradient id="C" gradientUnits="userSpaceOnUse" x1="74.0952" x2="115.188" y1="104.479" y2="175.6537"><stop offset="0" stop-color="#6d4c51"/><stop offset="1" stop-color="#57373d"/></linearGradient><linearGradient id="D" gradientUnits="userSpaceOnUse" x1="74.2884" x2="114.8015" y1="104.7183" y2="174.8892"><stop offset="0" stop-color="#6c4b50"/><stop offset="1" stop-color="#58373d"/></linearGradient><linearGradient id="E" gradientUnits="userSpaceOnUse" x1="74.4811" x2="114.4167" y1="104.9569" y2="174.1273"><stop offset="0" stop-color="#6b4a4f"/><stop offset="1" stop-color="#58383e"/></linearGradient><linearGradient id="F" gradientUnits="userSpaceOnUse" x1="74.6734" x2="114.0337" y1="105.1946" y2="173.3687"><stop offset="0" stop-color="#6a494e"/><stop offset="1" stop-color="#59393f"/></linearGradient><linearGradient id="G" gradientUnits="userSpaceOnUse" x1="74.8651" x2="113.6531" y1="105.4312" y2="172.6139"><stop offset="0" stop-color="#69494e"/><stop offset="1" stop-color="#59393f"/></linearGradient><linearGradient id="H" gradientUnits="userSpaceOnUse" x1="75.0561" x2="113.2752" y1="105.6665" y2="171.8639"><stop offset="0" stop-color="#68484d"/><stop offset="1" stop-color="#5a3a40"/></linearGradient><linearGradient id="I" gradientUnits="userSpaceOnUse" x1="75.2462" x2="112.9007" y1="105.9001" y2="171.1196"><stop offset="0" stop-color="#68474c"/><stop offset="1" stop-color="#5b3b40"/></linearGradient><linearGradient id="J" gradientUnits="userSpaceOnUse" x1="75.4351" x2="112.5304" y1="106.1318" y2="170.3827"><stop offset="0" stop-color="#67464b"/><stop offset="1" stop-color="#5b3b41"/></linearGradient><linearGradient id="K" gradientUnits="userSpaceOnUse" x1="75.6227" x2="112.1654" y1="106.3609" y2="169.6546"><stop offset="0" stop-color="#66464b"/><stop offset="1" stop-color="#5c3c41"/></linearGradient><linearGradient id="L" gradientUnits="userSpaceOnUse" x1="75.8086" x2="111.8066" y1="106.5871" y2="168.9375"><stop offset="0" stop-color="#65454a"/><stop offset="1" stop-color="#5c3c42"/></linearGradient><linearGradient id="M" gradientUnits="userSpaceOnUse" x1="75.9925" x2="111.4552" y1="106.8098" y2="168.2328"><stop offset="0" stop-color="#644449"/><stop offset="1" stop-color="#5d3d43"/></linearGradient><linearGradient id="N" gradientUnits="userSpaceOnUse" x1="76.1749" x2="111.1098" y1="107.0296" y2="167.5386"><stop offset="0" stop-color="#634348"/><stop offset="1" stop-color="#5d3e43"/></linearGradient><linearGradient id="O" gradientUnits="userSpaceOnUse" x1="76.3569" x2="110.7657" y1="107.2488" y2="166.8466"><stop offset="0" stop-color="#624348"/><stop offset="1" stop-color="#5e3e44"/></linearGradient><linearGradient id="P" gradientUnits="userSpaceOnUse" x1="76.5389" x2="110.4216" y1="107.4679" y2="166.1545"><stop offset="0" stop-color="#614247"/><stop offset="1" stop-color="#5e3f44"/></linearGradient><linearGradient id="Q" gradientUnits="userSpaceOnUse" x1="76.7209" x2="110.0776" y1="107.6871" y2="165.4625"><stop offset="0" stop-color="#604146"/><stop offset="1" stop-color="#5f4045"/></linearGradient><linearGradient id="R"><stop offset="0" stop-color="#b2908d"/><stop offset="1" stop-color="#5b3b40"/></linearGradient><linearGradient id="S" gradientUnits="userSpaceOnUse" x1="90.4152" x2="81.2869" xlink:href="#R" y1="124.9925" y2="109.1818"/><linearGradient id="T" gradientUnits="userSpaceOnUse" x1="87.4449" x2="74.27" xlink:href="#R" y1="128.4484" y2="128.4484"/><linearGradient id="U" gradientUnits="userSpaceOnUse" x1="115.0792" x2="104.9528" y1="21.6743" y2="59.4666"><stop offset="0" stop-color="#987b7c"/><stop offset="1" stop-color="#92696d"/></linearGradient><linearGradient id="V" gradientUnits="userSpaceOnUse" x1="73.9882" x2="73.9882" y1="6.3832" y2="38.551"><stop offset="0" stop-color="#b03725"/><stop offset="1" stop-color="#f36b33"/></linearGradient><linearGradient id="W" gradientUnits="userSpaceOnUse" x1="39.9893" x2="43.7079" y1="87.0184" y2="80.8296"><stop offset="0" stop-color="#866b6d"/><stop offset="1" stop-color="#735055"/></linearGradient><linearGradient id="X"><stop offset="0" stop-color="#b2908d"/><stop offset="1" stop-color="#866b6d"/></linearGradient><linearGradient id="Y" gradientUnits="userSpaceOnUse" x1="34.0881" x2="35.1384" xlink:href="#X" y1="95.3257" y2="95.3257"/><linearGradient id="Z" gradientUnits="userSpaceOnUse" x1="32.4064" x2="33.4801" xlink:href="#X" y1="98.6701" y2="98.6701"/><linearGradient id="aa" gradientUnits="userSpaceOnUse" x1="39.6743" x2="40.4509" xlink:href="#X" y1="103.5468" y2="102.5878"/><linearGradient id="ab"><stop offset="0" stop-color="#f5f0da"/><stop offset=".42" stop-color="#e8dbca"/><stop offset="1" stop-color="#b2908d"/></linearGradient><linearGradient id="ac" gradientUnits="userSpaceOnUse" x1="38.2342" x2="39.5605" xlink:href="#ab" y1="97.6363" y2="100.029"/><linearGradient id="ad" gradientUnits="userSpaceOnUse" x1="37.0166" x2="38.1334" xlink:href="#X" y1="102.9133" y2="102.9133"/><linearGradient id="ae" gradientUnits="userSpaceOnUse" x1="36.841" x2="37.9438" xlink:href="#X" y1="98.9239" y2="98.9239"/><linearGradient id="af" gradientUnits="userSpaceOnUse" x1="37.802" x2="38.0882" xlink:href="#X" y1="100.5265" y2="99.4582"/><linearGradient id="ag" gradientUnits="userSpaceOnUse" x1="44.669" x2="44.9376" xlink:href="#X" y1="105.6488" y2="104.4855"/><linearGradient id="ah" gradientUnits="userSpaceOnUse" x1="44.0921" x2="45.4215" xlink:href="#X" y1="103.4337" y2="103.998"/><linearGradient id="ai"><stop offset="0" stop-color="#b89a97"/><stop offset="1" stop-color="#91797c"/></linearGradient><linearGradient id="aj" gradientUnits="userSpaceOnUse" x1="46.9232" x2="49.2891" xlink:href="#ai" y1="106.3983" y2="105.7644"/><linearGradient id="ak" gradientUnits="userSpaceOnUse" x1="42.5584" x2="43.8805" xlink:href="#X" y1="107.0571" y2="107.6183"/><linearGradient id="al" gradientUnits="userSpaceOnUse" x1="50.9939" x2="52.6361" xlink:href="#ai" y1="107.2473" y2="106.8073"/><linearGradient id="am" gradientUnits="userSpaceOnUse" x1="54.0708" x2="55.2533" xlink:href="#X" y1="110.1283" y2="110.6302"/><linearGradient id="an" gradientUnits="userSpaceOnUse" x1="61.1453" x2="62.2289" xlink:href="#X" y1="110.8602" y2="110.8602"/><linearGradient id="ao" gradientUnits="userSpaceOnUse" x1="58.5519" x2="59.6454" xlink:href="#X" y1="111.0593" y2="111.0593"/><linearGradient id="ap" gradientUnits="userSpaceOnUse" x1="59.7489" x2="60.5549" xlink:href="#X" y1="112.897" y2="111.0867"/><linearGradient id="aq" gradientUnits="userSpaceOnUse" x1="60.9886" x2="62.0899" xlink:href="#X" y1="114.1376" y2="114.1376"/><linearGradient id="ar" gradientUnits="userSpaceOnUse" x1="58.5519" x2="59.6454" xlink:href="#X" y1="114.3797" y2="114.3797"/><linearGradient id="as" gradientUnits="userSpaceOnUse" x1="59.8435" x2="61.0597" xlink:href="#X" y1="116.0886" y2="114.2158"/><linearGradient id="at" gradientUnits="userSpaceOnUse" x1="61.1453" x2="62.2289" xlink:href="#X" y1="117.5673" y2="117.5673"/><linearGradient id="au" gradientUnits="userSpaceOnUse" x1="64.5251" x2="65.6089" xlink:href="#X" y1="115.1679" y2="115.1679"/><linearGradient id="av" gradientUnits="userSpaceOnUse" x1="65.0431" x2="65.6812" xlink:href="#X" y1="119.1068" y2="117.0194"/><linearGradient id="aw" gradientUnits="userSpaceOnUse" x1="67.0358" x2="68.1501" xlink:href="#X" y1="120.9349" y2="120.9349"/><linearGradient id="ax" gradientUnits="userSpaceOnUse" x1="12.2354" x2="14.1473" xlink:href="#ab" y1="82.4628" y2="85.912"/><linearGradient id="ay" gradientUnits="userSpaceOnUse" x1="10.8116" x2="12.2941" xlink:href="#X" y1="88.2459" y2="88.2459"/><linearGradient id="az" gradientUnits="userSpaceOnUse" x1="10.8116" x2="12.2941" xlink:href="#X" y1="83.9648" y2="83.9648"/><linearGradient id="aA" gradientUnits="userSpaceOnUse" x1="11.7063" x2="12.5154" xlink:href="#X" y1="86.8606" y2="83.3555"/><linearGradient id="aB" gradientUnits="userSpaceOnUse" x1="19.9727" x2="21.4552" xlink:href="#X" y1="87.3624" y2="87.3624"/><linearGradient id="aC" gradientUnits="userSpaceOnUse" x1="17.4167" x2="18.8993" xlink:href="#X" y1="87.5593" y2="87.5593"/><linearGradient id="aD" gradientUnits="userSpaceOnUse" x1="18.8547" x2="20.2116" xlink:href="#X" y1="89.4728" y2="87.3834"/><linearGradient id="aE" gradientUnits="userSpaceOnUse" x1="19.827" x2="21.3095" xlink:href="#X" y1="90.5985" y2="90.5985"/><linearGradient id="aF" gradientUnits="userSpaceOnUse" x1="17.4167" x2="18.8993" y1="90.8358" y2="90.8358"><stop offset="0" stop-color="#b2908d"/><stop offset="1" stop-color="#7d454c"/></linearGradient><linearGradient id="aG" gradientUnits="userSpaceOnUse" x1="18.9028" x2="20.3598" xlink:href="#X" y1="92.8252" y2="90.5815"/><linearGradient id="aH" gradientUnits="userSpaceOnUse" x1="19.9727" x2="21.4552" xlink:href="#X" y1="93.981" y2="93.981"/><linearGradient id="aI" gradientUnits="userSpaceOnUse" x1="26.0038" x2="27.5219" xlink:href="#X" y1="90.9267" y2="90.9267"/><linearGradient id="aJ" gradientUnits="userSpaceOnUse" x1="24.3801" x2="25.8472" xlink:href="#X" y1="94.2284" y2="94.2284"/><ellipse clip-rule="evenodd" cx="77.41" cy="254.14" fill="#e51e25" fill-rule="evenodd" rx="4.61" ry="2.05"/><path d="m77.41 256.69c-2.91 0-5.11-1.1-5.11-2.55s2.2-2.55 5.11-2.55 5.11 1.1 5.11 2.55-2.2 2.55-5.11 2.55zm0-4.1c-2.55 0-4.11.9-4.11 1.55s1.56 1.55 4.11 1.55 4.11-.9 4.11-1.55-1.57-1.55-4.11-1.55z" fill="#fff"/><path clip-rule="evenodd" d="m77.41 176.68v77.46" fill="#e51e25" fill-rule="evenodd"/><path d="m76.91 176.68h1v77.46h-1z" fill="#e51e25"/><g clip-rule="evenodd" fill-rule="evenodd"><path d="m19.6 139.38-14.75-37.78-1.45-.84v7.27l14.74 37.78 1.46.84z" fill="#2c111d"/><path d="m87.69 166.38-2.54-1.47c-1.4-.81-2.54-2.61-2.54-4 0 1.4-1.14 1.88-2.54 1.07s-2.54-2.61-2.54-4c0 1.4-1.14 1.88-2.54 1.07s-2.54-2.61-2.54-4c0 1.4-1.14 1.88-2.54 1.07s-2.54-2.61-2.54-4c0 1.4-1.14 1.88-2.54 1.07s-2.54-2.61-2.54-4c0 1.4-1.14 1.88-2.54 1.07s-2.54-2.61-2.54-4c0 1.4-1.14 1.88-2.54 1.07s-2.54-2.61-2.54-4c0 1.4-1.14 1.88-2.54 1.07s-2.54-2.61-2.54-4c0 1.4-1.14 1.88-2.54 1.07s-2.54-2.61-2.54-4c0 1.4-1.14 1.88-2.54 1.07s-2.54-2.61-2.54-4c0 1.4-1.14 1.88-2.54 1.07s-2.54-2.61-2.54-4c0 1.4-1.14 1.88-2.54 1.07l-2.54-1.47-8.29-24.39v-14.41l60.92 35.17 8.29 33.7v5.1z" fill="url(#a)"/><path d="m8.25 96.76 21.53-12.43v58.57l-21.53 12.43-4.43-33.35z" fill="url(#c)"/><path d="m18.48 90.85 60.91 35.17v58.57l-60.91-35.17 4.01-26.85z" fill="#f7a7a4"/><path d="m18.48 90.85 60.91 35.17v58.57l-60.91-35.17 4.01-26.85z" fill="#b4cdeb"/><path d="m49.34 152.66.11.56-.11.42-.31.18-.43-.11-.42-.38-.31-.54-.4-1.03-.12-.56.12-.42.31-.18.42.11.43.38.31.54z" fill="url(#e)"/><path d="m18.48 90.85 14.82 8.55 46.1 26.61v1.56l8.29 33.7v5.1l-2.54-1.47c-1.4-.81-2.54-2.61-2.54-4 0 1.4-1.14 1.88-2.54 1.07s-2.54-2.61-2.54-4c0 1.4-1.14 1.88-2.54 1.07s-2.54-2.61-2.54-4c0 1.4-1.14 1.88-2.54 1.07s-2.54-2.61-2.54-4c0 1.4-1.14 1.88-2.54 1.07s-2.54-2.61-2.54-4c0 1.4-1.14 1.88-2.54 1.07s-2.54-2.61-2.54-4c0 1.4-1.14 1.88-2.54 1.07s-2.54-2.61-2.54-4c0 1.4-1.14 1.88-2.54 1.07s-2.54-2.61-2.54-4c0 1.4-1.14 1.88-2.54 1.07s-2.54-2.61-2.54-4c0 1.4-1.14 1.88-2.54 1.07s-2.54-2.61-2.54-4c0 1.4-1.14 1.88-2.54 1.07s-2.54-2.61-2.54-4c0 1.27-.95 1.78-2.17 1.26l10.85 27.97v1.33l-4.42-2.55-7.4-19.06v14.79l-10.23-5.91v-42.61-14.41-1.56z" fill="url(#f)"/><path d="m46.5 111.45-2.22 4.54-2.23 4.54-2.22 4.55-2.22 4.54-2.23 4.54-2.22 4.54-2.23 4.54-2.22 4.54 2.22 1.28 1.4.81 3.33 1.37 1.76 1.56 2.41 1.4 2.22 1.28 2.23 1.29 2.22 1.28v-5.82-5.83-5.82-5.83-5.82-5.83-5.82z" fill="#c6dbf0"/><path d="m19.78 95.18v.02.26.26.26.26.26.26.26.26.26.26.26.26.26 44.06l8.93 5.16h2.8l-9.46-50.37v-.92z" fill="url(#g)"/><path d="m20.47 95.58v46.64l17.64 10.18 8.39-9.28v-31.92-.59z" fill="#512332"/><path d="m29.93 128.01 7.3 4.22c1.74 1.01 1.68 5.45 0 4.48l-7.3-4.22c-1.74-1-1.68-5.45 0-4.48z" fill="#512332"/><path d="m61.89 120.34-12.79 39.21 12.79 7.38z" fill="#c6dbf0"/><path d="m49.1 112.11v.02.26.26.26.26.26.26.26.26.26.26.26.26.26 44.06h3.33l-1.05-45.21v-.92z" fill="#60606f"/><path d="m49.79 112.51v46.64l.7.4 11.4-7.59v-32.47z" fill="#512332"/><path d="m50.49 145.43v8.01l.24.61.11.56-.11.42-.24.14v4.38l11.4 6.58v-14.17c-.23-.06-.48-.17-.73-.31-1.4-.81-2.54-2.61-2.54-4 0 1.4-1.14 1.88-2.54 1.07s-2.54-2.61-2.54-4c0 1.4-1.14 1.88-2.54 1.07-.17-.11-.34-.23-.51-.36z" fill="#835461"/><path d="m78.09 129.69-13.61 38.74 13.61 7.86z" fill="#c6dbf0"/><path d="m64.48 120.99v.02.26.26.26.26.26.26.26.26.26.26.26.26.26 44.06h3.33l-1.05-45.21v-.92z" fill="#60606f"/><path d="m65.18 121.39v46.64l.69.4 12.22-13.1v-26.48z" fill="#512332"/><path d="m65.87 154.34v14.09l12.22 7.06v-14.73c-.45.15-1.05.06-1.71-.32-1.4-.81-2.54-2.61-2.54-4 0 1.4-1.14 1.88-2.54 1.07s-2.54-2.61-2.54-4c0 1.4-1.14 1.88-2.54 1.07-.11-.07-.23-.15-.35-.24z" fill="#835461"/><path d="m71.1 144.71 8.29-17.13-60.91-35.17-6.35 18.25 49.24 29.02z" fill="#b4cdeb"/><path d="m79.61 143.96-.22-16.38-60.91-35.17-8.3 17.13 1.94 1.14 10.42.37 47.33 27.88z" fill="url(#h)"/><path d="m10.91 109.96 4.35 2.51 5.08 2.93 5.08 2.93 5.08 2.93 5.08 2.93 5.08 2.93 5.08 2.93 5.08 2.93 5.08 2.93 5.08 2.93 5.08 2.93 5.08 2.93v5.08l-2.54-1.47c-1.4-.81-2.54-2.61-2.54-4 0 1.4-1.14 1.88-2.54 1.07s-2.54-2.61-2.54-4c0 1.4-1.14 1.88-2.54 1.07s-2.54-2.61-2.54-4c0 1.4-1.14 1.88-2.54 1.07s-2.54-2.61-2.54-4c0 1.4-1.14 1.88-2.54 1.07s-2.54-2.61-2.54-4c0 1.4-1.14 1.88-2.54 1.07s-2.54-2.61-2.54-4c0 1.4-1.14 1.88-2.54 1.07s-2.54-2.61-2.54-4c0 1.4-1.14 1.88-2.54 1.07s-2.54-2.61-2.54-4c0 1.4-1.14 1.88-2.54 1.07s-2.54-2.61-2.54-4c0 1.4-1.14 1.88-2.54 1.07s-2.54-2.61-2.54-4c0 1.4-1.14 1.88-2.54 1.07s-2.54-2.61-2.54-4c0 1.4-1.14 1.88-2.54 1.07l-2.54-1.47z" fill="#f2e9d6"/><path d="m11.17 110.11 1.55.89 8.29-17.13-2.54-1.47zm6.63 3.83-2.54-1.47 8.29-17.13 2.54 1.47zm5.07 2.93-2.54-1.47 8.29-17.13 2.54 1.47zm5.08 2.93 8.29-17.13-2.54-1.47-8.29 17.13zm5.08 2.93 8.29-17.13-2.54-1.47-8.29 17.13zm5.07 2.93-2.54-1.47 8.29-17.13 2.54 1.47zm5.08 2.93-2.54-1.47 8.29-17.13 2.54 1.47zm5.08 2.93 8.29-17.13-2.54-1.47-8.29 17.13zm5.07 2.93 8.29-17.13-2.54-1.47-8.29 17.13zm5.08 2.93-2.54-1.47 8.29-17.13 2.54 1.47zm5.07 2.93-2.54-1.47 8.29-17.13 2.54 1.47zm5.08 2.93 8.29-17.13-2.54-1.47-8.29 17.13z" fill="#f7f2df"/><path d="m67.95 137.79 1.92 1.13.62.32 6.36-13.13-2.54-1.47zm-5.05-2.97 6.34-13.1 2.54 1.47-6.35 13.12zm-5.06-2.98 2.53 1.49 6.33-13.08-2.54-1.47zm-5.05-2.97 6.3-13.01 2.54 1.47-6.31 13.03zm-5.06-2.98 2.53 1.49 6.29-12.99-2.54-1.47zm-5.05-2.98 6.26-12.92 2.54 1.47-6.27 12.94zm-5.05-2.97 2.53 1.49 6.24-12.9-2.54-1.47zm-5.06-2.98 6.21-12.83 2.54 1.47-6.22 12.85zm-5.05-2.98 2.53 1.49 6.2-12.8-2.54-1.47zm-5.08-2.93 6.19-12.78 2.54 1.47-6.18 12.76-2.45-1.44zm-6.38-.23 3.19.11 6.84-14.13-2.54-1.47z" fill="url(#j)"/><path d="m10.18 109.54 1.38-.08.56 1.2v5.07l-1.94-1.11z" fill="url(#k)"/><path d="m10.18 109.54 1.98 1.14.71.03 8.15-16.84-2.54-1.46z" fill="url(#l)"/><path d="m154.81 150.57v-98.4l-47.16 22.4-30.24 22.3v98.39z" fill="url(#m)"/><path d="m0 150.57v-98.4l54.15 28.18 23.26 16.52v98.39l-8.25-4.76v-58.57l-60.91-35.17v7.32 6.22 10.16 12.91 7.32 7.32 7.32z" fill="#d1afb0"/><path d="m47.8 149.68.43.38.31.54.11.55-.11.43-.31.17-.43-.11-.42-.38-.31-.53-.12-.56.12-.42.31-.18z" fill="#371826"/><path d="m47.95 150.13h.46v.62h-.46z" fill="#371826" transform="matrix(.8662 -.4998 .4998 .8662 -68.7391 44.2156)"/><path d="m47.82 150.29.41-.23-.43-.38-.4.23z" fill="#4d313b"/><path d="m48.13 150.83.41-.23.11.55-.4.23z" fill="url(#n)"/><path d="m48.25 151.38.4-.23-.11.43-.41.23z" fill="#2c111d"/><path d="m46.98 149.8.4-.23.42.11-.38.37z" fill="#4d313b"/><path d="m47.4 149.91.42.38.31.54.12.55-.12.43-.31.18-.42-.12-.42-.37-.32-.54-.11-.56.11-.42.32-.18z" fill="#4d313b"/><path d="m47.4 149.91.42.38.31.54.12.55-.12.43-.31.18-.42-.12-.42-.37-.32-.54-.11-.56.11-.42.32-.18z" fill="#4d313b"/><path d="m77.41 7.48c3.28 1.89 6.51 3.76 9.71 5.61s6.37 3.68 9.52 5.5 6.29 3.63 9.43 5.44 6.27 3.62 9.42 5.44 6.31 3.64 9.49 5.48c3.19 1.84 6.4 3.7 9.66 5.58s6.56 3.79 9.92 5.72c3.36 1.94 6.77 3.91 10.26 5.92l-9.68 5.59-9.68 5.59-10.22 5.9-9.13 4.49-10.31 6.73-9.05 5.22-9.68 5.59-9.68 5.59-9.68-5.59-9.68-5.59-9.68-5.59-9.68-5.59-9.68-5.59-9.68-5.59-9.68-5.59-9.63-5.57 9.68-5.59 9.67-5.58 9.68-5.59 9.68-5.59 9.68-5.59 9.68-5.59 9.68-5.59z" fill="#e5c7c7"/><path d="m127.53 67.92-8.91 5.15-10.52 6.07-8.44-1.3h-11.73l-2.26-2.17-7.04-1.09h-11.74l-2.26-2.16-7.04-1.09h-11.73l-2.23-2.23h1.81l2.48-5.34h2.03.01 50.69z" fill="url(#o)"/><path d="m144.42 52.17c-22.41-12.94-44.64-25.77-67.01-38.69l-67.02 38.69 67.02 38.69z" fill="#d1afb0"/><path d="m80.9 22.49-3.49-9.01-67.02 38.69 6.06 3.5z" fill="url(#p)"/><path d="m16.45 55.67 3.49 2.02 60.96-35.2-3.49-2.01z" fill="url(#r)"/><path d="m19.94 57.69 57.47 33.18 60.96-35.2-57.47-33.18z" fill="#f79966"/><path d="m51.82 76.09 3.87 2.23h8.9l7.04 1.09 2.26 2.16h11.73l6.21.96 19.43-11.22-3.62-.56c-17.57 0-35.15 0-52.73 0l-2.48 5.33h-.61z" fill="url(#s)"/><path d="m30.1 147.78 2.92 1.69-2.92-7.54zm8.01 4.62-7.05-18.16c1.22.53 2.17.01 2.17-1.26 0 1.4 1.14 3.2 2.54 4 1.4.81 2.54.32 2.54-1.07 0 1.4 1.14 3.2 2.54 4 1.4.81 2.54.32 2.54-1.07 0 1.4 1.14 3.2 2.54 4 .2.11.39.2.57.27v14.13z" fill="#835461"/><path d="m94 51.75 11.13 12.77h10.99l17.71-10.23-22.11-12.77z" fill="url(#t)"/><path d="m83.02 40.77 22.11 23.75 17.72-21.22-22.11-12.76z" fill="#cba997"/><path d="m83.02 40.77 22.11 12.76v10.99l-22.11-12.77z" fill="#b09284"/><path d="m106.83 37.37 1.1 1.1 1.1 1.1v1.27 1.27l-1.1 1.1-1.1 1.1-1.9.63-1.9.63h-2.19-2.19l-1.9-.63-1.9-.63-1.1-1.1-1.1-1.1v-1.26-1.27l1.1-1.1 1.1-1.1 1.9-.63 1.9-.63h2.19 2.19l1.9.63zm-4.04 2.33-.62-.21-.62-.21h-.71-.71l-.62.21-.62.21-.36.36-.36.36v.41.41l.36.36.36.36.62.21.62.21h.71.71l.62-.21.62-.21.36-.36.36-.36v-.41-.41l-.36-.36z" fill="url(#u)"/><path d="m122.85 43.3-17.72 10.23v10.99l17.72-10.23z" fill="url(#v)"/><g fill="#2c111d"><path d="m116.26 53.47 1.59.92 1.53 1.9.88 2.27v1.85l-1.29.75-1.01-.82v-1.44l-.54-1.38-.93-1.16-1.53-2.14z"/><path d="m114.96 54.22 1.6.92 1.52 1.9.89 2.27v1.85l-1.3-.75v-1.44l-.54-1.38-.93-1.16-1.24-.72z"/><path d="m120.15 51.22 1.59.92 1.53 1.9.89 2.28v1.84l-1.3.75-1.01-.82v-1.43l-.54-1.39-.93-1.15-1.53-2.15z"/><path d="m118.85 51.97 1.6.92 1.53 1.9.88 2.28v1.84l-1.3-.75v-1.44l-.53-1.38-.93-1.16-1.25-.71z"/></g><path d="m79.7 121.29s-1.1.62-.82 2.27c.27 1.65.54 10.58.54 12.85s1.74 2.6 3.99 1.65c2.24-.95 6.33-3.84 7.74-4.66 1.41-.81 3.1-5.18 2.69-7.93s-.44-7.2-.44-9.35-1.8-1.38-3.72-.26c-1.94 1.11-9.98 5.43-9.98 5.43z" fill="url(#w)"/><path d="m79.75 121.32s-1.09.61-.82 2.25.53 10.39.53 12.64 1.73 2.58 3.96 1.64 6.39-3.85 7.79-4.66 3.01-5.01 2.6-7.74-.44-7.15-.44-9.28-1.81-1.35-3.73-.24c-1.91 1.11-9.89 5.39-9.89 5.39z" fill="url(#x)"/><path d="m79.81 121.36s-1.08.61-.81 2.24.52 10.2.52 12.44 1.72 2.56 3.93 1.63c2.21-.94 6.46-3.86 7.85-4.66s2.91-4.84 2.5-7.55-.43-7.1-.43-9.22-1.83-1.31-3.73-.22c-1.91 1.08-9.83 5.34-9.83 5.34z" fill="url(#y)"/><path d="m79.86 121.39s-1.08.61-.81 2.22.51 10.01.51 12.23 1.71 2.54 3.9 1.61c2.2-.93 6.53-3.87 7.91-4.67s2.81-4.67 2.41-7.36-.43-7.05-.43-9.15-1.85-1.28-3.74-.19c-1.89 1.08-9.75 5.31-9.75 5.31z" fill="url(#z)"/><path d="m79.91 121.42s-1.07.6-.8 2.2.5 9.82.5 12.02 1.69 2.52 3.87 1.6 6.6-3.88 7.97-4.67 2.72-4.51 2.32-7.18-.43-6.99-.43-9.08-1.87-1.25-3.74-.17c-1.88 1.09-9.69 5.28-9.69 5.28z" fill="url(#A)"/><path d="m79.96 121.46s-1.06.6-.8 2.19c.27 1.59.49 9.63.49 11.81 0 2.19 1.68 2.51 3.84 1.59s6.66-3.89 8.02-4.68 2.62-4.34 2.23-6.99c-.4-2.65-.42-6.94-.42-9.02 0-2.07-1.89-1.22-3.75-.15-1.86 1.08-9.61 5.25-9.61 5.25z" fill="url(#B)"/><path d="m80.01 121.49s-1.05.59-.79 2.17.48 9.44.48 11.61 1.67 2.49 3.82 1.58 6.73-3.9 8.08-4.68 2.53-4.17 2.13-6.8c-.39-2.63-.42-6.89-.42-8.95s-1.91-1.19-3.75-.13c-1.86 1.07-9.55 5.2-9.55 5.2z" fill="url(#C)"/><path d="m80.06 121.52s-1.04.59-.78 2.16.47 9.25.47 11.4c0 2.16 1.66 2.47 3.79 1.57s6.8-3.91 8.14-4.68 2.43-4 2.04-6.61-.42-6.84-.42-8.88-1.93-1.16-3.76-.1c-1.84 1.04-9.48 5.14-9.48 5.14z" fill="url(#D)"/><path d="m80.11 121.56s-1.04.58-.78 2.14.46 9.05.46 11.19 1.64 2.45 3.76 1.56 6.87-3.92 8.19-4.69c1.33-.77 2.33-3.83 1.95-6.42-.39-2.59-.42-6.79-.42-8.82s-1.95-1.13-3.76-.08c-1.82 1.04-9.4 5.12-9.4 5.12z" fill="url(#E)"/><path d="m80.16 121.59s-1.03.58-.77 2.12.45 8.86.45 10.99c0 2.12 1.63 2.43 3.73 1.54s6.93-3.93 8.25-4.69 2.24-3.66 1.85-6.24c-.39-2.57-.41-6.74-.41-8.75s-1.96-1.1-3.77-.06c-1.81 1.05-9.33 5.09-9.33 5.09z" fill="url(#F)"/><path d="m80.21 121.62s-1.02.57-.77 2.11c.26 1.53.44 8.67.44 10.78s1.62 2.41 3.7 1.53 7-3.94 8.31-4.69c1.31-.76 2.14-3.5 1.76-6.05s-.41-6.69-.41-8.68c0-2-1.98-1.07-3.77-.03-1.79 1.02-9.26 5.03-9.26 5.03z" fill="url(#G)"/><path d="m80.26 121.66s-1.01.57-.76 2.09.42 8.48.42 10.57 1.61 2.4 3.67 1.52c2.07-.87 7.07-3.95 8.37-4.7s2.05-3.33 1.67-5.86-.41-6.64-.41-8.62-2-1.04-3.78-.01c-1.77 1.03-9.18 5.01-9.18 5.01z" fill="url(#H)"/><path d="m80.31 121.69s-1.01.57-.75 2.07c.25 1.51.41 8.29.41 10.37 0 2.07 1.59 2.38 3.65 1.51 2.05-.87 7.13-3.96 8.42-4.7s1.95-3.16 1.57-5.67-.4-6.59-.4-8.55c0-1.97-2.02-1.01-3.78.01-1.76 1.01-9.12 4.96-9.12 4.96z" fill="url(#I)"/><path d="m80.36 121.72s-1 .56-.75 2.06.4 8.1.4 10.16 1.58 2.36 3.62 1.5 7.2-3.97 8.48-4.71 1.85-2.99 1.48-5.49-.4-6.53-.4-8.49c0-1.95-2.04-.98-3.79.03-1.74 1.03-9.04 4.94-9.04 4.94z" fill="url(#J)"/><path d="m80.41 121.76s-.99.56-.74 2.04c.25 1.49.39 7.91.39 9.95s1.57 2.34 3.59 1.49 7.27-3.98 8.54-4.71 1.76-2.82 1.39-5.3-.4-6.48-.4-8.42-2.06-.94-3.79.06c-1.74 1-8.98 4.89-8.98 4.89z" fill="url(#K)"/><path d="m80.47 121.79s-.98.55-.74 2.03c.25 1.47.38 7.72.38 9.74 0 2.03 1.56 2.32 3.56 1.47s7.34-3.99 8.6-4.71c1.26-.73 1.66-2.65 1.29-5.11s-.39-6.43-.39-8.35-2.08-.91-3.8.08-8.9 4.85-8.9 4.85z" fill="url(#L)"/><path d="m80.52 121.82s-.97.55-.73 2.01.37 7.53.37 9.54 1.54 2.3 3.53 1.46 7.4-4 8.65-4.72 1.57-2.49 1.2-4.92c-.37-2.44-.39-6.38-.39-8.29s-2.1-.88-3.81.1c-1.7 1-8.82 4.82-8.82 4.82z" fill="url(#M)"/><path d="m80.57 121.86s-.97.54-.73 1.99.36 7.34.36 9.33 1.53 2.28 3.51 1.45c1.97-.83 7.47-4 8.71-4.72s1.47-2.32 1.11-4.73c-.36-2.42-.39-6.33-.39-8.22s-2.12-.85-3.81.13c-1.69.97-8.76 4.77-8.76 4.77z" fill="url(#N)"/><path d="m80.62 121.89s-.96.54-.72 1.98.35 7.15.35 9.12c0 1.98 1.52 2.27 3.48 1.44s7.54-4.01 8.77-4.72 1.37-2.15 1.01-4.55-.38-6.28-.38-8.15-2.13-.82-3.82.15c-1.68.97-8.69 4.73-8.69 4.73z" fill="url(#O)"/><path d="m80.67 121.92s-.95.54-.71 1.96c.24 1.43.34 6.95.34 8.92 0 1.96 1.51 2.25 3.45 1.43s7.61-4.02 8.83-4.73c1.22-.7 1.28-1.98.92-4.36s-.38-6.23-.38-8.09-2.15-.79-3.82.17c-1.68.97-8.63 4.7-8.63 4.7z" fill="url(#P)"/><path d="m80.72 121.96s-.94.53-.71 1.95c.24 1.42.33 6.76.33 8.71s1.5 2.23 3.42 1.42 7.67-4.03 8.88-4.73 1.18-1.81.83-4.17-.38-6.18-.38-8.02-2.17-.76-3.83.19c-1.64.94-8.54 4.65-8.54 4.65z" fill="url(#Q)"/><path d="m80.77 121.99s-.94.53-.7 1.93c.23 1.4.32 6.57.32 8.5s1.48 2.21 3.39 1.4 7.74-4.04 8.94-4.74c1.2-.69 1.08-1.64.73-3.98s-.37-6.13-.37-7.96-2.19-.73-3.83.22c-1.64.96-8.48 4.63-8.48 4.63z" fill="#604045"/><path d="m80.8 122.01s-.93.52-.7 1.92.32 6.48.32 8.4 1.48 2.2 3.38 1.4 7.71-4.01 8.91-4.7c1.19-.69 1.08-1.58.73-3.91s-.37-6.1-.37-7.92-2.18-.73-3.82.22c-1.64.93-8.45 4.59-8.45 4.59z" fill="#5f4045"/><path d="m80.82 122.02s-.93.52-.7 1.91.31 6.38.31 8.3c0 1.91 1.47 2.19 3.36 1.39s7.68-3.98 8.87-4.67 1.08-1.52.73-3.84-.37-6.08-.37-7.89-2.17-.72-3.8.22c-1.62.94-8.4 4.58-8.4 4.58z" fill="#5f4045"/><path d="m80.85 122.04s-.92.52-.69 1.91.31 6.29.31 8.19c0 1.91 1.46 2.18 3.35 1.39 1.88-.8 7.65-3.95 8.84-4.63 1.18-.68 1.07-1.46.72-3.77s-.37-6.05-.37-7.86-2.16-.72-3.78.22c-1.63.92-8.38 4.55-8.38 4.55z" fill="#5f4045"/><path d="m80.87 122.06s-.92.52-.69 1.9.3 6.19.3 8.09 1.46 2.17 3.34 1.38 7.63-3.92 8.81-4.6 1.07-1.4.72-3.7-.37-6.02-.37-7.82-2.15-.72-3.77.21c-1.61.93-8.34 4.54-8.34 4.54z" fill="#5f3f44"/><path d="m80.9 122.07s-.92.52-.69 1.89.3 6.1.3 7.98c0 1.89 1.45 2.17 3.32 1.37 1.87-.79 7.6-3.89 8.77-4.57s1.06-1.34.72-3.63-.37-6-.37-7.79-2.15-.71-3.75.21c-1.61.95-8.3 4.54-8.3 4.54z" fill="#5f3f44"/><path d="m80.92 122.09s-.91.51-.68 1.88.29 6 .29 7.88 1.45 2.16 3.31 1.37 7.57-3.86 8.74-4.53c1.17-.68 1.06-1.28.72-3.56s-.37-5.97-.37-7.76c0-1.78-2.14-.71-3.74.21-1.6.93-8.27 4.51-8.27 4.51z" fill="#5e3f44"/><path d="m80.95 122.11s-.91.51-.68 1.87.29 5.9.29 7.78c0 1.87 1.44 2.15 3.29 1.36 1.85-.78 7.54-3.83 8.71-4.5 1.16-.67 1.05-1.22.71-3.49s-.36-5.95-.36-7.72c0-1.78-2.13-.71-3.72.21-1.6.92-8.24 4.49-8.24 4.49z" fill="#5e3f43"/><path d="m80.97 122.12s-.9.51-.68 1.87c.23 1.36.28 5.81.28 7.67 0 1.87 1.43 2.14 3.28 1.36s7.51-3.79 8.67-4.46 1.05-1.16.71-3.42-.36-5.92-.36-7.69-2.12-.7-3.7.21-8.2 4.46-8.2 4.46z" fill="#5e3e43"/><path d="m81 122.14s-.9.51-.68 1.86c.23 1.35.28 5.71.28 7.57s1.43 2.13 3.26 1.35c1.84-.78 7.48-3.76 8.64-4.43 1.15-.67 1.04-1.1.71-3.35-.34-2.25-.36-5.9-.36-7.66s-2.11-.7-3.69.21c-1.58.92-8.16 4.45-8.16 4.45z" fill="#5e3e43"/><path d="m81.02 122.16s-.9.5-.67 1.85c.22 1.35.27 5.62.27 7.47s1.42 2.12 3.25 1.35 7.46-3.73 8.61-4.4c1.15-.66 1.04-1.04.7-3.28s-.36-5.87-.36-7.62-2.1-.7-3.67.21c-1.57.9-8.13 4.42-8.13 4.42z" fill="#5e3e43"/><path d="m81.05 122.18s-.89.5-.67 1.84.27 5.52.27 7.36 1.42 2.11 3.24 1.34 7.43-3.7 8.57-4.36 1.03-.98.7-3.21-.36-5.85-.36-7.59c0-1.75-2.09-.7-3.66.21-1.56.9-8.09 4.41-8.09 4.41z" fill="#5d3e42"/><path d="m81.07 122.19s-.89.5-.67 1.83.26 5.43.26 7.26 1.41 2.1 3.22 1.33 7.4-3.67 8.54-4.33 1.03-.92.7-3.14-.36-5.82-.36-7.56-2.08-.69-3.64.21c-1.55.91-8.05 4.4-8.05 4.4z" fill="#5d3d42"/><path d="m81.1 122.21s-.89.5-.66 1.83c.22 1.33.25 5.33.25 7.16s1.4 2.09 3.21 1.33 7.37-3.64 8.51-4.29c1.13-.66 1.03-.85.69-3.07-.33-2.21-.35-5.79-.35-7.52s-2.07-.69-3.62.21c-1.56.87-8.03 4.35-8.03 4.35z" fill="#5d3d42"/><path d="m81.13 122.23s-.88.5-.66 1.82.25 5.24.25 7.05c0 1.82 1.4 2.08 3.19 1.32 1.8-.76 7.34-3.61 8.47-4.26s1.02-.79.69-3c-.33-2.2-.35-5.77-.35-7.49s-2.06-.69-3.61.21c-1.54.89-7.98 4.35-7.98 4.35z" fill="#5d3d42"/><path d="m81.15 122.24s-.88.49-.66 1.81.24 5.14.24 6.95 1.39 2.07 3.18 1.32c1.79-.76 7.31-3.58 8.44-4.23 1.12-.65 1.02-.73.69-2.93-.33-2.19-.35-5.74-.35-7.46 0-1.71-2.05-.68-3.59.2-1.54.9-7.95 4.34-7.95 4.34z" fill="#5d3d41"/><path d="m81.18 122.26s-.87.49-.66 1.8c.22 1.31.24 5.04.24 6.85 0 1.8 1.38 2.06 3.17 1.31 1.78-.75 7.29-3.55 8.4-4.19 1.12-.65 1.01-.67.68-2.86-.33-2.18-.35-5.72-.35-7.42 0-1.71-2.04-.68-3.58.2-1.52.88-7.9 4.31-7.9 4.31z" fill="#5c3c41"/><path d="m81.2 122.28s-.87.49-.65 1.79.23 4.95.23 6.74 1.38 2.05 3.15 1.3 7.26-3.51 8.37-4.16c1.11-.64 1.01-.61.68-2.79-.33-2.17-.35-5.69-.35-7.39s-2.04-.68-3.56.2c-1.51.89-7.87 4.31-7.87 4.31z" fill="#5c3c41"/><path d="m81.23 122.29s-.87.49-.65 1.79.23 4.85.23 6.64 1.37 2.05 3.14 1.3 7.23-3.48 8.34-4.12 1-.55.68-2.72c-.32-2.16-.35-5.67-.35-7.36s-2.03-.67-3.54.2c-1.53.87-7.85 4.27-7.85 4.27z" fill="#5c3c41"/><path d="m81.25 122.31s-.86.48-.65 1.78c.22 1.29.22 4.76.22 6.54s1.37 2.04 3.12 1.29c1.76-.74 7.2-3.45 8.3-4.09s1-.49.68-2.64-.34-5.64-.34-7.33c0-1.68-2.02-.67-3.53.2-1.5.87-7.8 4.25-7.8 4.25z" fill="#5c3c40"/><path d="m81.28 122.33s-.86.48-.64 1.77c.21 1.29.22 4.66.22 6.43s1.36 2.03 3.11 1.29 7.17-3.42 8.27-4.06.99-.43.67-2.57-.34-5.62-.34-7.29c0-1.68-2.01-.67-3.51.2-1.51.86-7.78 4.23-7.78 4.23z" fill="#5c3b40"/><path d="m81.3 122.34s-.85.48-.64 1.76.21 4.57.21 6.33 1.35 2.02 3.1 1.28c1.74-.74 7.14-3.39 8.24-4.02 1.09-.63.99-.37.67-2.5s-.34-5.59-.34-7.26-2-.67-3.5.2c-1.5.86-7.74 4.21-7.74 4.21z" fill="#5b3b40"/><path d="m84.98 132.88-.04.04-.04.04v55.64l.04.04.04.04.08.02.08.03h.09.09l.08-.03.08-.02.04-.04.04-.04c0-.18 0-55.46 0-55.64l-.04-.04-.04-.04-.08-.03-.08-.02h-.09-.09l-.08.02zm.96-.55-.04.04-.04.04v55.64l.04.04.04.04.08.02.08.03h.09.09l.08-.03.08-.02.04-.04.04-.04c0-.18 0-55.46 0-55.64l-.04-.04-.04-.04-.08-.03-.08-.02h-.09-.09l-.08.02z" fill="#2c111d"/><path d="m80.79 122.33 4.59 12.23 11.69-16.33-4.59-2.65z" fill="url(#S)"/><path d="m84.18 124.29h6.08v2.92h-6.08z" fill="#f5f0da"/><path d="m97.07 118.23-11.69 6.75v9.58l11.69-6.74z" fill="#b2908d"/><path d="m80.79 122.33 4.59 2.65v9.58l-4.59-2.65z" fill="url(#T)"/><path d="m91.23 122.36.88-.23.87-.23.64.37.64.37.23.87.23.88-.23 1.15-.23 1.15-.64 1.11-.64 1.11-.87.78-.88.78-.88.23-.87.23-.64-.37-.64-.37-.23-.88-.23-.87.23-1.15.23-1.15.64-1.11.64-1.11.87-.78zm0 2.72-.28.25-.28.25-.21.36-.21.36-.08.37-.08.37.08.28.08.28.21.12.21.12.28-.08.28-.08.28-.25.28-.25.21-.36.21-.36.08-.37.08-.37-.08-.28-.08-.28-.21-.11-.21-.12-.28.08z" fill="#3f1131"/><path d="m84.18 124.29 1.2.69v9.58l-1.2-.69z" fill="#f2e9d6"/><path d="m32.33 149.87.69-.4 5.09 2.93-.69.4z" fill="#62697d"/><path d="m26.07 127.75c1.58.92 2.87 3.14 2.87 4.97s-1.28 2.57-2.87 1.66c-1.58-.92-2.87-3.14-2.87-4.97s1.28-2.57 2.87-1.66zm7.77 4.49c1.58.91 2.87 3.14 2.87 4.97s-1.28 2.57-2.87 1.66c-1.58-.91-2.87-3.14-2.87-4.97 0-1.84 1.28-2.58 2.87-1.66zm7.76 4.48c1.58.91 2.87 3.14 2.87 4.97s-1.28 2.57-2.87 1.66c-1.58-.92-2.87-3.14-2.87-4.97s1.29-2.57 2.87-1.66zm1.67 9.5c.03.06.07.11.1.16.03.04.06.07.1.09.03.02.05.02.07.01s.03-.03.03-.05c0-.03-.01-.06-.02-.09-.02-.03-.05-.07-.11-.12-.08-.07-.14-.14-.17-.2s-.05-.12-.05-.2c0-.09.03-.15.08-.18s.12-.02.21.03c.05.03.09.06.13.1s.08.08.12.13l-.07.15c-.03-.04-.05-.07-.08-.1s-.05-.05-.08-.06c-.03-.02-.05-.02-.07-.02s-.03.02-.03.04.01.05.02.07.04.05.09.09l.01.01c.09.08.15.15.18.2.02.03.03.07.04.11s.02.08.02.12c0 .1-.03.17-.09.19-.06.03-.13.01-.23-.04-.06-.03-.11-.07-.16-.12s-.09-.11-.14-.18zm-.65-.07v-.95l.23.13v.73l.28.16v.22zm-.66-.38v-.95l.51.29v.21l-.29-.17v.17l.27.16v.2l-.27-.16v.16l.29.17v.21zm-.52-.3v-.73l-.18-.11v-.23l.59.34v.23l-.18-.11v.73zm-.24-.61c0-.07-.01-.14-.03-.21s-.05-.15-.09-.22-.09-.13-.14-.19-.11-.1-.17-.14c-.06-.03-.12-.05-.17-.06s-.1 0-.14.03c-.04.02-.07.06-.1.11-.02.05-.03.11-.03.17 0 .07.01.14.03.21s.05.15.1.22c.04.07.09.13.14.19s.11.1.17.14c.06.03.11.05.17.06.05.01.1 0 .14-.02s.07-.06.1-.11c.01-.05.02-.11.02-.18zm-.44.03c-.06-.04-.12-.09-.16-.17s-.06-.15-.06-.24c0-.08.02-.14.06-.16.04-.03.09-.03.15.01s.11.09.15.17.06.16.06.24-.02.14-.06.17c-.03.02-.08.01-.14-.02zm-1.33-.58.23.13v-.39l.3.17v.39l.23.13v-.95l-.23-.13v.37l-.3-.17v-.37l-.23-.13zm-3.76-2.48c.03.06.07.11.1.16.03.04.06.07.1.09.03.02.05.02.07.01s.03-.03.03-.05c0-.03-.01-.06-.02-.09-.02-.03-.05-.07-.11-.12-.08-.07-.14-.14-.17-.2s-.05-.12-.05-.2c0-.09.03-.15.08-.18s.12-.02.21.03c.05.03.09.06.13.1s.08.08.12.13l-.07.15c-.03-.04-.05-.07-.08-.1s-.05-.05-.08-.07-.05-.02-.07-.02-.03.02-.03.04.01.05.02.07c.02.02.04.05.09.09l.01.01c.09.08.15.15.18.2.02.03.03.07.04.11s.02.08.02.12c0 .1-.03.17-.09.19-.06.03-.13.02-.23-.04-.06-.03-.11-.08-.16-.12-.05-.05-.09-.11-.14-.18zm-.69-.09v-.95l.51.29v.21l-.29-.17v.17l.27.16v.2l-.27-.16v.16l.29.17v.21zm-.64-.67c.03.06.07.11.1.16.03.04.06.07.1.09.03.02.05.02.07.01s.03-.03.03-.05c0-.03-.01-.06-.02-.09-.02-.03-.05-.07-.11-.12-.08-.07-.14-.14-.17-.2s-.05-.12-.05-.2c0-.09.03-.15.08-.18s.12-.02.21.03c.05.03.09.06.13.1s.08.08.12.13l-.07.15c-.03-.04-.05-.07-.08-.1s-.05-.05-.08-.06c-.03-.02-.05-.02-.07-.02s-.03.02-.03.04.01.05.02.07.04.05.09.09l.01.01c.09.08.15.15.18.2.02.03.03.07.04.11s.02.08.02.12c0 .1-.03.17-.09.19-.06.03-.13.01-.23-.04-.06-.03-.11-.07-.16-.12s-.09-.11-.14-.18zm-.44.05v-.95l.23.13v.95zm-.91-1.48v.41.1c0 .1.01.18.02.24s.03.11.06.16.07.11.12.15c.05.05.11.09.18.13s.13.07.18.07c.05.01.09 0 .12-.02s.04-.05.06-.1c.01-.04.02-.12.02-.22v-.5l-.22-.13v.4.07.14c0 .03-.01.05-.02.07s-.02.03-.05.03c-.02 0-.05-.01-.08-.03s-.06-.04-.08-.06c-.02-.03-.04-.05-.04-.08-.01-.02-.01-.05-.02-.08 0-.03 0-.08 0-.15v-.46zm-.74.53.21.12v-.37l.19.48.25.15-.22-.51c.06.02.11.02.14-.01s.05-.08.05-.15c0-.05-.01-.1-.02-.15-.02-.05-.04-.1-.07-.14s-.06-.07-.09-.1c-.04-.03-.1-.07-.19-.13l-.24-.14v.95zm.21-.38.04.02c.05.03.08.04.11.03.02-.01.03-.03.03-.07 0-.05-.01-.09-.03-.12s-.06-.06-.1-.09l-.04-.03v.26zm-.33-.61c-.04-.04-.07-.08-.11-.11s-.07-.06-.11-.08c-.06-.03-.11-.05-.16-.06s-.09 0-.13.03c-.04.02-.07.06-.09.11s-.03.11-.03.18c0 .09.02.18.05.27s.08.18.14.26c.03.04.07.08.11.12l.12.09c.04.02.07.04.11.05s.07.02.11.02v-.28c-.03.02-.06.03-.09.03s-.06-.01-.1-.03c-.06-.04-.12-.09-.16-.17-.04-.07-.06-.15-.06-.23s.02-.14.06-.16c.04-.03.09-.02.16.01.03.02.07.05.1.08.03.04.06.08.09.14v-.27zm-4.2-1.81c.03.06.07.11.1.16.03.04.06.07.1.09.03.02.05.02.07.01s.03-.03.03-.05c0-.03-.01-.06-.02-.09-.02-.03-.05-.07-.11-.12-.08-.07-.14-.14-.17-.2s-.05-.12-.05-.19c0-.09.03-.15.08-.18s.12-.02.21.03c.05.03.09.06.13.1s.08.08.12.13l-.07.15c-.03-.04-.05-.07-.08-.1s-.05-.05-.08-.07-.05-.02-.07-.02-.03.02-.03.04.01.05.02.07.04.05.09.09l.01.01c.09.08.15.15.18.2.02.03.03.07.04.11s.02.08.02.12c0 .1-.03.17-.09.19-.06.03-.13.02-.23-.04-.06-.03-.11-.08-.16-.12-.05-.05-.09-.11-.14-.18zm-.56-.02v-.73l-.18-.11v-.23l.59.34v.23l-.18-.11v.73zm-1.04-.6v-.95l.23.13v.37l.3.17v-.37l.23.13v.95l-.23-.13v-.39l-.3-.17v.39zm-.58-.69v-.2l.44.26v.02.03c0 .16-.04.27-.11.32-.08.05-.18.03-.32-.05-.07-.04-.13-.08-.18-.14-.05-.05-.1-.12-.14-.19s-.07-.14-.09-.21-.03-.15-.03-.21c0-.07.01-.13.03-.18s.05-.08.09-.11c.04-.02.09-.03.14-.02s.11.03.17.06c.08.05.15.11.21.18s.11.16.16.26h-.2c-.02-.05-.05-.09-.08-.13-.03-.03-.06-.06-.1-.08-.07-.04-.12-.04-.16-.01s-.06.09-.06.18.02.17.06.25c.04.07.09.13.16.17.06.03.11.04.14.03.04-.01.06-.04.07-.09zm-.8-.11.23.13v-.95l-.23-.13zm-.62-.36.5.29v-.22l-.28-.16v-.73l-.22-.13zm-.63-.36.22.13v-.37l.27.16v-.2l-.27-.16v-.17l.29.17v-.21l-.51-.29z" fill="#b89a97"/><path d="m44.47 141.54c-.65-.84-1.08-1.84-1.08-2.7 0 1.4-1.14 1.88-2.54 1.07-.84-.48-1.59-1.33-2.05-2.23-.05.21-.07.44-.07.69 0 1.83 1.28 4.05 2.87 4.97 1.58.91 2.87.17 2.87-1.66 0-.04 0-.09 0-.14zm-7.77-4.19c-.29-.05-.6-.17-.93-.36-1.4-.81-2.54-2.61-2.54-4 0 1.27-.95 1.78-2.17 1.26l1.26 3.26c.44.56.95 1.04 1.51 1.36 1.55.88 2.81.2 2.87-1.52zm-3.2 3.16.15.38h.01c.03-.02.04-.05.06-.1.01-.04.02-.12.02-.22v-.5l-.22-.13v.4.07c-.02.03-.02.07-.02.1zm9.77 5.71c.03.06.07.11.1.16.03.04.06.07.1.09.03.02.05.02.07.01s.03-.03.03-.05c0-.03-.01-.06-.02-.09-.02-.03-.05-.07-.11-.12-.08-.07-.14-.14-.17-.2s-.05-.12-.05-.2c0-.09.03-.15.08-.18s.12-.02.21.03c.05.03.09.06.13.1s.08.08.12.13l-.07.15c-.03-.04-.05-.07-.08-.1s-.05-.05-.08-.06c-.03-.02-.05-.02-.07-.02s-.03.02-.03.04.01.05.02.07.04.05.09.09l.01.01c.09.08.15.15.18.2.02.03.03.07.04.11s.02.08.02.12c0 .1-.03.17-.09.19-.06.03-.13.01-.23-.04-.06-.03-.11-.07-.16-.12s-.09-.11-.14-.18zm-.65-.07v-.95l.23.13v.73l.28.16v.22zm-.66-.38v-.95l.51.29v.21l-.29-.17v.17l.27.16v.2l-.27-.16v.16l.29.17v.21zm-.52-.3v-.73l-.18-.11v-.23l.59.34v.23l-.18-.11v.73zm-.24-.61c0 .07-.01.13-.03.17-.02.05-.05.08-.1.11-.04.02-.09.03-.14.02s-.11-.03-.17-.06-.12-.08-.17-.14-.1-.12-.14-.19-.07-.14-.1-.22c-.02-.07-.03-.14-.03-.21s.01-.13.03-.17c.02-.05.05-.08.1-.11.04-.02.09-.03.14-.03.05.01.11.03.17.06s.12.08.17.14.1.12.14.19.07.14.09.22c.03.08.04.15.04.22zm-.44.03c.06.04.11.04.15.01s.06-.08.06-.17c0-.08-.02-.16-.06-.24s-.09-.13-.15-.17-.11-.04-.15-.01-.06.08-.06.16.02.16.06.24.09.14.15.18zm-1.33-.58v-.95l.23.13v.37l.3.17v-.37l.23.13v.95l-.23-.13v-.39l-.3-.17v.39zm-3.76-2.48c.03.06.07.11.1.16.03.04.06.07.1.09.03.02.05.02.07.01s.03-.03.03-.05c0-.03-.01-.06-.02-.09-.02-.03-.05-.07-.11-.12-.08-.07-.14-.14-.17-.2s-.05-.12-.05-.2c0-.09.03-.15.08-.18s.12-.02.21.03c.05.03.09.06.13.1s.08.08.12.13l-.07.15c-.03-.04-.05-.07-.08-.1s-.05-.05-.08-.07-.05-.02-.07-.02-.03.02-.03.04.01.05.02.07c.02.02.04.05.09.09l.01.01c.09.08.15.15.18.2.02.03.03.07.04.11s.02.08.02.12c0 .1-.03.17-.09.19-.06.03-.13.02-.23-.04-.06-.03-.11-.08-.16-.12-.05-.05-.09-.11-.14-.18zm-.69-.09v-.95l.51.29v.21l-.29-.17v.17l.27.16v.2l-.27-.16v.16l.29.17v.21zm-.64-.67c.03.06.07.11.1.16.03.04.06.07.1.09.03.02.05.02.07.01s.03-.03.03-.05c0-.03-.01-.06-.02-.09-.02-.03-.05-.07-.11-.12-.08-.07-.14-.14-.17-.2s-.05-.12-.05-.2c0-.09.03-.15.08-.18s.12-.02.21.03c.05.03.09.06.13.1s.08.08.12.13l-.07.15c-.03-.04-.05-.07-.08-.1s-.05-.05-.08-.06c-.03-.02-.05-.02-.07-.02s-.03.02-.03.04.01.05.02.07.04.05.09.09l.01.01c.09.08.15.15.18.2.02.03.03.07.04.11s.02.08.02.12c0 .1-.03.17-.09.19-.06.03-.13.01-.23-.04-.06-.03-.11-.07-.16-.12s-.09-.11-.14-.18zm-.44.05v-.95l.23.13v.95z" fill="#f2e9d6"/><path d="m24.57 129.92 1.07.6-.75-2.08.61.35 1.42 2.44 1.1.61c.17.1.31.34.31.54s-.14.28-.31.18l-1.1-.66-1.42.8-.61-.35.75-1.21-1.07-.64-.44.14-.33-.19.4-.44-.4-.91.33.19z" fill="#512332"/><path d="m31.6 135.33 4.05 2.34.68-.39-.45-.26-.28-.49-1.5-.86v-.2l1.32.76-.21-.36-.1-.06-.51-.92-.05-.03.34.82-.9-.52-.29-.55-.3-.17.14.46-.21.12-.33-.19-.46.26-.28-.16-.36.27-.22-.13zm3.69 1.6c.06.03.11.12.11.18 0 .07-.05.09-.11.06s-.11-.12-.11-.18c.01-.07.06-.1.11-.06zm-.47-.28c.06.03.11.12.11.18 0 .07-.05.09-.11.06s-.11-.12-.11-.18c0-.07.05-.09.11-.06zm-.48-.27c.06.03.11.12.11.18 0 .07-.05.09-.11.06s-.11-.12-.11-.18c.01-.07.05-.1.11-.06zm-.48-.28c.06.03.11.12.11.18 0 .07-.05.1-.11.06-.06-.03-.11-.12-.11-.18.01-.07.06-.09.11-.06z" fill="#512332"/><path d="m40.42 137.83 2.36 1.36v3.48l-2.36-1.36zm2.32.72-.04.13-.14-.08.12.16-.04.13.12-.03.11.16-.04-.18.12-.03-.14-.08zm-.51-.48-.06.19-.21-.12.17.24-.06.19.17-.04.17.24-.06-.26.17-.04-.21-.12zm-1.77-.84.04.18.14.08-.12.03.04.18-.11-.16-.11.03.04-.13-.12-.16.14.08zm.52.11-.06.19-.21-.12.17.24-.06.19.17-.04.17.24-.06-.26.17-.04-.21-.12zm.62.18-.08.25-.27-.16.22.31-.08.25.22-.06.22.31-.08-.35.22-.06-.27-.16zm-.92 2.82v.45l.32.18v-.45zm.51.3v.45l.32.18v-.45zm.51.29v.45l.32.18v-.45zm.51.29v.45l.32.18v-.45zm-1.53-1.57v.45l.32.18v-.45zm.51.3v.45l.32.18v-.45zm.51.29v.45l.32.18v-.45zm.51.29v.45l.32.18v-.45zm-1.53-1.57v.45l.32.18v-.45zm.51.29v.45l.32.18v-.45zm.51.3v.45l.32.18v-.45zm.51.29v.45l.32.18v-.45zm-1.53-1.57v.45l.32.18v-.45zm.51.29v.45l.32.18v-.45zm.51.3v.45l.32.18v-.45zm.51.29v.45l.32.18v-.45z" fill="#512332"/><path d="m31.6 135.33 4.05 2.34.68-.39-.18-.11c-.12-.05-.24-.11-.37-.19-.47-.27-.91-.65-1.28-1.09l-.39-.22v-.2l.1.06c-.22-.3-.41-.61-.56-.94l-.23-.13.14.46-.21.12-.33-.19-.46.26-.28-.16-.36.27-.23-.13zm3.69 1.6c.06.03.11.12.11.18 0 .07-.05.1-.11.06-.06-.03-.11-.12-.11-.18.01-.07.06-.1.11-.06zm-.47-.28c.06.03.11.12.11.18 0 .07-.05.09-.11.06s-.11-.12-.11-.18c0-.07.05-.09.11-.06zm-.48-.27c.06.03.11.12.11.18 0 .07-.05.09-.11.06s-.11-.12-.11-.18c.01-.07.05-.1.11-.06zm-.48-.28c.06.03.11.12.11.18 0 .07-.05.1-.11.06-.06-.03-.11-.12-.11-.18.01-.07.06-.09.11-.06z" fill="#835461"/><path d="m42.78 140.14v2.53l-2.36-1.36v-1.67c.08.06.17.12.26.18v.28l.32.18v-.28c.06.03.13.06.19.09v.3l.32.18v-.36c.07.02.13.04.19.05v.42l.32.18v-.45l-.24-.14c.16.03.32.04.47.03l.29.17v-.22c.07-.02.16-.06.24-.11zm-2.1.2v.45l.32.18v-.45zm.51.3v.45l.32.18v-.45zm.51.29v.45l.32.18v-.45zm.51.29v.45l.32.18v-.45zm0-.69v.45l.32.18v-.45z" fill="#835461"/><path d="m52.8 150.88 5.62 3.25v2.06l-5.62-3.25zm2.11 2.25c0-.07-.01-.13-.03-.2s-.05-.14-.09-.21-.09-.13-.14-.18-.11-.1-.16-.13c-.06-.03-.11-.05-.16-.06s-.1 0-.14.03c-.04.02-.07.06-.09.1-.02.05-.03.1-.03.17s.01.13.03.2.05.14.09.21.09.13.14.18.11.1.16.13c.06.03.11.05.16.06s.1 0 .14-.02.07-.06.09-.1c.02-.06.03-.11.03-.18zm-.42.03c.06.03.11.04.15.01s.06-.08.06-.16-.02-.15-.06-.23c-.04-.07-.09-.13-.15-.16s-.11-.04-.15-.01-.06.08-.06.16.02.16.06.23.09.12.15.16zm.76.63v-.3l.04.02.04.02c.07.04.12.06.15.07s.06.01.08 0c.03-.01.05-.03.07-.06s.02-.08.02-.13-.01-.1-.02-.15c-.02-.05-.04-.1-.07-.14s-.06-.07-.09-.1c-.04-.03-.1-.07-.19-.12l-.23-.13v.92zm0-.51.04.02c.05.03.09.04.11.04s.03-.03.03-.07-.01-.07-.03-.1-.06-.06-.11-.09l-.04-.03zm.51.8.49.28v-.21l-.28-.16v-.16l.26.15v-.2l-.26-.15v-.16l.28.16v-.2l-.49-.28zm.63.36.21.12v-.46c0-.02 0-.05 0-.08s-.01-.07-.01-.11c.02.05.03.09.04.13s.02.06.03.08l.3.65.21.12v-.92l-.21-.12v.46.08c0 .03.01.07.01.11-.02-.05-.03-.09-.04-.13s-.02-.06-.03-.07l-.3-.65-.21-.12z" fill="#a9868a"/><path d="m37.09 0-.56 1.21 39.51 11.33 36.24.38.56-1.2z" fill="#f5f0da"/><g fill="#2c111d"><path d="m95.74 62.81-.82 1.76-2.7 5.83 2.01 10.75 1.51-.87z"/><path d="m74.71 59.55-.82 1.76-2.71 5.83 2.71 14.44.82-1.76z"/><path d="m53.67 56.3-.82 1.76-2.7 5.83 1.8 9.63.6 2.97.9.55.22-.48z"/></g><path d="m94.92 73.1v7.65l-3.04 1.76v-9.88l1.69-1.09z" fill="#4d313b"/><path d="m73.89 69.85v11.73l-3.05-.47v-11.74l1.41-1.92z" fill="#4d313b"/><path d="m52.85 66.59v10.1l-3.04-1.76v-8.81l1.72-1.96z" fill="#4d313b"/><path d="m91.88 64.1 3.04.47v8.53l-3.04-.47z" fill="#2c111d"/><path d="m70.84 60.84 3.05.47v8.54l-3.05-.48z" fill="#2c111d"/><path d="m49.81 57.59 3.04.47v8.53l-3.04-.47z" fill="#2c111d"/><path d="m112.44 62.21-2.63 7.7-75.76-13.75 2.63-5.67z" fill="#593c45"/><path d="m112.44 62.21-2.63 5.66v2.04l2.63-5.67z" fill="#2c111d"/><path d="m34.05 56.16 75.76 11.71v2.04l-75.76-11.72z" fill="#4d313b"/><path d="m112.44 62.21-.56 1.21-5.33-40.59 5.33-10.62.56-1.21z" fill="url(#U)"/><path d="m36.12.49 75.76 11.72v51.21l-75.76-11.72z" fill="#efe2d0"/><path d="m37.9 2.29 72.17 11.16v34.15l-29.2-2.53-42.97-8.57z" fill="url(#V)"/><g fill="#efe2d0"><path d="m101.64 15.74c1.73.27 3.14 1.64 3.23 3.1.39-.47 1.08-.71 1.86-.59 1.16.18 2.11 1.08 2.2 2.05.21-.09.47-.12.73-.08.31.05.59.18.82.36v1.97c-3.3-.51-6.59-1.02-9.88-1.53s-6.58-1.02-9.87-1.53c2.9.03 3.11-1.08 4.66-.84.14.02.27.07.39.13-.03-.13-.05-.26-.05-.38 0-1.03.98-1.71 2.2-1.52.23.04.46.1.67.19.45-.97 1.64-1.54 3.04-1.33z"/><path d="m71.13 36.08c-1.95-.3-3.54.75-3.63 2.37-.44-.66-1.21-1.18-2.11-1.31-1.3-.2-2.37.48-2.48 1.54-.23-.17-.52-.3-.83-.35-.82-.13-1.48.33-1.48 1.02 0 .05.01.1.02.15-.13-.11-.3-.19-.48-.22-.97-.15-1.05.77-2.89.8 2.7.42 7.78 1.2 12.91 2 5.13.79 10.33 1.6 13.26 2.05-3.27-.98-3.5-2.3-5.25-2.57-.16-.02-.3-.02-.43.01.03-.14.05-.28.05-.42 0-1.16-1.11-2.27-2.48-2.48-.27-.04-.52-.04-.76-.02-.5-1.26-1.84-2.32-3.42-2.57z"/><path d="m46.75 33.1c1.51.23 2.75 1.43 2.82 2.71.34-.41.95-.62 1.64-.51 1.01.16 1.83.94 1.92 1.79.19-.08.41-.1.64-.07.64.1 1.14.61 1.14 1.14 0 .04 0 .08-.01.12.1-.06.23-.08.37-.06.75.12.81.85 2.23 1.31-2.11-.33-6.05-.94-10.02-1.55-3.98-.62-8.01-1.24-10.28-1.59 2.55.03 2.72-.94 4.08-.73.11.02.23.06.33.11-.03-.11-.04-.22-.04-.34 0-.9.86-1.5 1.92-1.33.2.03.4.09.59.17.41-.86 1.45-1.35 2.67-1.17z"/><path d="m57.71 37.04c.8.12 1.45.76 1.49 1.43.18-.22.5-.33.87-.27.53.08.97.5 1.02.95.1-.04.22-.05.34-.03.33.05.61.32.61.61v.06c.05-.03.12-.04.2-.03.39.06.42.45 1.18.69-2.23-.34-8.36-1.29-10.76-1.67 1.34.01 1.44-.5 2.16-.39.07.01.13.03.18.06-.02-.06-.02-.12-.02-.18 0-.48.45-.8 1.02-.71.11.02.21.05.31.09.19-.45.74-.71 1.4-.61z"/></g><path d="m110.07 47.6v7.28 2.43l-35.48-3.32-36.69-9.74v-.54-7.28l36.08 5.59z" fill="#2dbaab"/><path d="m79.73 56.93c-4.06-.63-8.12-1.26-12.17-1.88-4.05-.63-8.11-1.26-12.17-1.88-4.89-1.49-15.52-4.15-13.21-5.44 1.07-.59.77-2.49 2.32-2.41 1.87.09 5.14.08 4.98-.52-.3-1.1 1.3-1.3 3.92-1.8 2.61-.5 1.36-.54.12-1.44-.63-.45 3.12-.31 4.26-.63.54-.15-2.36-1.16-1.92-1.25.17-.03 1.91.12.53-.34-.39-.13-.14-.05-.19-.08 1.67.26 3.35.52 5.02.78-.45.42 1.1.44 2.14 1.04 2.07 1.17 1.94.63 1.34 1.84-.59 1.21 2.87.92 4.77 2.26 1.9 1.35-7.32-.71-5.55 1.07.44.44 6.48 2.53 7.17 3.07 2.09 1.62 5.35 1.62 6.69 2.2 1.45.63 1.73 4.46 1.95 5.41z" fill="#6ac7bd"/><path d="m110.07 57.31v3.8c-12.03-1.86-24.07-3.72-36.09-5.58s-24.05-3.72-36.08-5.58c0-1.75 0-3.94 0-5.69 12.03 1.86 24.06 4.2 36.08 6.53 12.03 2.32 24.06 4.66 36.09 6.52z" fill="#6ac7bd"/><path d="m110.07 57.69v4.46c-12.03-1.86-24.07-3.72-36.09-5.58s-24.05-3.72-36.08-5.58c0-1.49 0-4.58 0-6.07 12.03 1.86 24.06 4.13 36.08 6.39 12.03 2.25 24.06 4.52 36.09 6.38z" fill="#f1b16c"/><path d="m103.61 58.75c1.05.71-4.84.59-9.42.3-.07-.02-.13-.05-.19-.08-.88-.14-1.75-.29-2.62-.43.69.08 1.38.16 2.08.24-.7-.15-1.4-.31-2.1-.46-.62-.09-1.24-.18-1.86-.28.41.03.82.06 1.23.08-.42-.08-.84-.16-1.26-.24.1-.01.2-.02.31-.04-.33-.09-.67-.19-.99-.29 0 0-2.93.01-1.33.38s.06.01.09.02c-.99-.16-1.98-.33-2.98-.49-.42-.04-.85-.08-1.27-.12-.12-.06-.23-.12-.35-.18-.48-.07-.95-.14-1.43-.21-.27-.07-.55-.14-.82-.2-.78-.14-1.56-.28-2.33-.43 0 0 2.84.89 6.03 1.42 3.19.54 1.95.32 2.8.46-.45-.03-.91-.06-1.36-.09.26.07.52.14.79.21-.75-.13-1.49-.25-2.23-.38-.11.01-.21.02-.31.03-.55-.08-1.09-.16-1.63-.24-.67-.07-1.33-.14-1.98-.22 0 0 8.63 1.37 10.65 1.53 2.02.17 1.34.1 1.8.13.63.15.17.07 2.69.6s10.84 1.72 10.84 1.72c-.73-.14-1.46-.28-2.19-.42-.55-.09-1.11-.17-1.65-.26-.17-.05-.33-.1-.49-.15-.72-.1-1.43-.19-2.14-.29.18 0 .37 0 .56-.01-.51-.11-1.02-.22-1.52-.34 1.02.17 2.2.35 3.54.55 3.23.49 5.3.67 6.44.73-.01-.04-.01-.09-.01-.13-.45-.06-.89-.12-1.34-.18-.36-.03-.72-.07-1.08-.1-.45-.08-.91-.16-1.36-.24-.26 0-.52 0-.77 0-.33-.08-.67-.15-.99-.23-1.1-.17-2.2-.34-3.29-.51 0 .05.01.1.02.14-.67-.13-1.33-.27-1.99-.4-1.13-.14-2.26-.28-3.39-.43 6.39.55 10.95.47 12.14.07 0 0 .1-.01 0-.05-1.12-.15-2.23-.32-3.34-.49zm-5.79 1.11c-.46-.05-.92-.1-1.39-.15.01-.02.02-.05.02-.08.41.07.87.15 1.37.23zm-8.93-1.6c-.53-.06-1.06-.13-1.58-.19.15-.02.3-.03.45-.06.38.09.76.17 1.13.25zm.8.35c.03.02.07.04.11.06-.37-.07-.74-.14-1.11-.21.35.05.68.1 1 .15z" fill="#2a4a55"/><path d="m52.28 48.92c.24-2.01-.32-4.59-1.17-7.09-.86-2.49-2.03-4.93-3.06-6.64-.03.13-.06.25-.08.38-.39 0-.79 0-1.17 0 .31.27.62.54.93.8-.32.29-.64.58-.95.87-.28-.07-.56-.15-.83-.22.18.29.36.58.55.87-.19.07-.38.14-.57.21.05.22.09.44.14.67-.15.3-.3.6-.45.9 0 0-1.32-3.61-.6-4.41s.03-.03.05-.04c-.45 0-.89 0-1.34 0-.19-.21-.38-.42-.57-.64-.05.3-.11.59-.15.89-.22-.06-.43-.13-.64-.2-.13.17-.25.35-.37.52-.35.1-.7.21-1.05.31 0 0 1.27-3.1 2.7-3.2s.88-.03 1.27-.01c-.2-.32-.41-.64-.61-.96.11-.21.23-.41.36-.62-.34.02-.67.04-1.01.06-.05-.19-.09-.39-.14-.59-.25-.06-.49-.13-.73-.2-.3-.27-.59-.54-.89-.82 0 0 3.87.36 4.78 1.6.91 1.23.61.89.8 1.28.29-.37.08-.32 1.21-1.19 1.13-.86 4.86.47 4.86.47-.33.14-.66.28-.98.42-.25-.04-.49-.08-.73-.12-.08.18-.15.35-.23.52-.33-.16-.64-.32-.96-.49.08.25.17.5.25.75-.23.21-.45.42-.67.63.45.02.98.09 1.58.21 1.45.31 2.38 1.5 2.89 2.44-.01.32-.01.65-.01.97-.2-.08-.41-.16-.61-.25-.16-.19-.32-.38-.48-.57-.2.04-.41.07-.61.11-.11-.31-.23-.61-.34-.92-.15.19-.3.38-.44.57-.5-.07-.99-.13-1.48-.2 0-.35 0-.7.01-1.06-.3.19-.6.38-.89.57-.51-.32-1.02-.63-1.51-.95 1.43 1.84 2.67 4.3 3.6 6.85s1.58 5.2 1.85 7.43c0 0 .05.18 0 .35-.52-.1-1.02-.18-1.51-.26 0 .01 0 .01 0 0zm-2.6-15.32c-.21-.19-.42-.38-.62-.58 0 .2 0 .41.01.61.18-.01.39-.03.61-.03zm-4 1.04c-.24-.16-.48-.32-.71-.49.07.32.14.64.2.96.16-.17.34-.33.51-.47zm.35-1.63c.02-.09.03-.19.05-.29-.17.08-.33.15-.5.22.16.02.31.05.45.07z" fill="#371b27"/><path d="m52.28 48.93c.47.35-2.17.35-4.23.24-.03-.01-.06-.02-.08-.04-.39-.07-.79-.13-1.17-.2.31.03.62.07.93.1-.32-.07-.64-.14-.95-.22-.28-.04-.56-.08-.83-.12.18.01.36.02.55.03-.19-.03-.38-.07-.57-.11.05-.01.09-.02.14-.02-.15-.04-.3-.09-.45-.14 0 0-1.32.03-.6.21.72.17.03 0 .05.01-.45-.07-.89-.14-1.34-.22-.19-.01-.38-.03-.57-.05-.05-.03-.11-.06-.15-.08-.22-.03-.43-.06-.64-.09-.13-.03-.25-.06-.37-.1-.35-.06-.7-.13-1.05-.19 0 0 1.27.42 2.7.67 1.43.24.88.15 1.27.21-.2-.01-.41-.02-.61-.03.11.03.23.07.36.1-.34-.06-.67-.11-1.01-.17-.05.01-.09.01-.14.01-.25-.03-.49-.07-.73-.1-.3-.03-.59-.06-.89-.09 0 0 3.87.61 4.78.68s.61.04.8.05c.29.07.08.03 1.21.28s4.86.77 4.86.77c-.33-.06-.66-.13-.98-.19-.25-.04-.49-.08-.73-.11-.08-.02-.15-.04-.23-.07-.33-.04-.64-.08-.96-.12.08 0 .17 0 .25-.01-.23-.05-.45-.1-.67-.16.45.08.98.16 1.58.24 1.45.22 2.38.29 2.89.31-.01-.02-.01-.04-.01-.07-.2-.03-.41-.05-.61-.08-.16-.01-.32-.02-.48-.04-.2-.04-.41-.07-.61-.11-.11 0-.23.01-.34.01-.15-.04-.3-.08-.44-.11-.5-.08-.99-.15-1.48-.23 0 .03 0 .05.01.07-.3-.06-.6-.12-.89-.18-.51-.06-1.02-.13-1.51-.19 2.86.22 4.92.14 5.45-.08 0 0 .05 0 0-.02-.52-.1-1.02-.18-1.51-.25zm-2.6.62c-.21-.02-.42-.04-.62-.06 0-.02 0-.03.01-.04.18.03.39.06.61.1zm-4-.73c-.24-.03-.48-.05-.71-.08.07-.01.14-.02.2-.03.16.03.34.07.51.11zm.35.17c.02.01.03.02.05.03-.17-.03-.33-.06-.5-.1.16.02.31.04.45.07z" fill="#2a4a55"/><path d="m59.23 27.34c2.73.42 4.95 2.64 4.95 4.95s-2.22 3.83-4.95 3.41-4.95-2.63-4.95-4.94 2.22-3.84 4.95-3.42z" fill="#f68824"/><path d="m95.01 36.58-3.3 1.64-.96-.1-8.38 5.19 13.68 3.56 14.02.73v-6.94l-1.67-2.01-2.09 1.49-1.95-2.61-1.09.14-2-2.93-5.73 3.7z" fill="#efe2d0"/><path d="m95.01 49.45c-1.11-.52-2.2-1.03-3.3-1.54-.33-.06-.64-.11-.96-.17-2.8-1.47-5.59-2.95-8.38-4.42 4.61.71 9.23 1.43 13.85 2.14 4.61.71 9.23 1.43 13.86 2.14v3.34c-.56.2-1.12.39-1.67.58-.7-.4-1.39-.79-2.09-1.2-.65.27-1.3.54-1.95.81-.36-.1-.73-.2-1.09-.31-.67.32-1.33.64-2 .95-1.92-1.03-3.83-2.06-5.73-3.09-.19.26-.36.51-.54.77z" fill="#6ac7bd"/><path d="m95.01 36.58-2.41 1.93-.88-.09-5.87 5.43 11.98 3.08 12.24.67v-6.94l-1.67-2.01-1.77 1.54-2.27-2.66-.51.22-2.58-3.01-4.51 3.88z" fill="#2a4a55"/><path d="m100.73 36.97c.26.3.52.6.77.9 0 1.81.01 3.62.02 5.42-.91-.5-1.82-1-2.72-1.5-1.98.67-3.96 1.34-5.94 2.01 2.62-2.27 5.24-4.55 7.87-6.83zm7.11 3.94c.68.85 1.36 1.7 2.04 2.55-.52-.27-1.02-.54-1.53-.81-.35.18-.7.35-1.04.53.16.22.32.43.48.65-1.69.56-3.38 1.12-5.07 1.68 1.71-1.53 3.41-3.06 5.12-4.6zm-13.43-2.17c-.38.3-.75.6-1.12.9-.27-.03-.54-.05-.8-.08-.88.81-1.76 1.62-2.63 2.43 1.8-.44 3.61-.88 5.41-1.32-.08-.11-.17-.22-.25-.33.03-.24.07-.48.11-.71-.25-.3-.48-.59-.72-.89z" fill="#707b7a"/><path d="m95.01 48.75c-.81-.43-1.61-.86-2.42-1.3-.3-.05-.59-.1-.88-.16-1.96-1.15-3.92-2.3-5.87-3.45 4.04.62 8.08 1.25 12.11 1.87 4.04.62 8.08 1.25 12.11 1.87v2.78c-.56.15-1.12.29-1.67.44-.59-.33-1.18-.66-1.77-1-.76.19-1.51.38-2.26.57-.17-.07-.35-.14-.52-.2-.86.22-1.72.43-2.58.65-1.51-.84-3.02-1.69-4.52-2.53-.57.17-1.15.32-1.73.46z" fill="#00a192"/><path d="m46.91 7.95v1.97c-.18-.07-.31-.11-.41-.12-.18-.03-.34.01-.47.1s-.2.22-.2.38c0 .14.07.32.21.56.06.1.13.2.19.3.34.54.5 1.05.5 1.5 0 .67-.28 1.19-.85 1.57-.56.37-1.25.5-2.07.37-.39-.06-.77-.2-1.16-.41 0-.66 0-1.33 0-2 .23.16.44.26.62.28.21.03.39.01.53-.07s.21-.2.21-.36c0-.1-.11-.34-.34-.71-.36-.59-.55-1.16-.55-1.7 0-.65.28-1.17.83-1.55s1.2-.52 1.96-.4c.35.06.67.16 1 .29zm1.06 2.13c.74.11 1.48.23 2.23.35v2.84c0 .29.14.46.42.5s.42-.08.42-.37c0-.95 0-1.9 0-2.84.74.11 1.49.23 2.24.35v2.81c0 .65-.26 1.17-.77 1.54-.52.37-1.14.5-1.89.38-.85-.13-1.53-.5-2.05-1.1-.4-.47-.6-1.07-.6-1.79 0-.89 0-1.78 0-2.67zm11.92 6.81c-.75-.12-1.5-.23-2.24-.35 0-.95 0-1.9 0-2.84 0-.29-.14-.45-.42-.5-.27-.04-.42.08-.42.37v2.84c-.75-.12-1.49-.23-2.23-.35 0-.93 0-1.87 0-2.81 0-.65.26-1.17.77-1.54s1.14-.5 1.89-.38c.85.13 1.53.5 2.05 1.1.4.47.61 1.07.61 1.79-.01.9-.01 1.79-.01 2.67zm6.61 1.02c-.75-.12-1.5-.23-2.24-.35 0-.95 0-1.9 0-2.84 0-.29-.14-.45-.42-.5-.27-.04-.42.08-.42.37v2.84c-.75-.12-1.49-.23-2.23-.35 0-.93 0-1.87 0-2.81 0-.65.26-1.17.77-1.54s1.14-.5 1.89-.38c.85.13 1.53.5 2.05 1.1.4.47.61 1.07.61 1.79-.01.9-.01 1.79-.01 2.67zm2.08 2.53c0-.54 0-1.09 0-1.64.3.15.56.24.8.28.72.11 1.19-.16 1.41-.81-.39.14-.77.17-1.15.12-.55-.09-1.01-.33-1.36-.73-.36-.4-.54-.88-.54-1.42 0-1.05 0-2.11 0-3.17.74.11 1.49.23 2.24.35v2.71c0 .3.14.48.43.52.28.04.42-.1.42-.44 0-.89 0-1.77 0-2.66.74.11 1.48.23 2.23.35v4.5c0 .84-.28 1.48-.83 1.9-.66.51-1.47.69-2.42.54-.41-.07-.82-.2-1.23-.4z" fill="#fad02e"/><path d="m42.52 22.84c.36.05.66.26.83.53.15-.1.36-.15.6-.12.09.01.17.04.26.08.17-.38.63-.6 1.16-.52.67.1 1.2.63 1.23 1.18.15-.18.42-.27.72-.22.44.07.8.41.84.78.08-.03.17-.05.28-.03.27.04.5.27.5.5 0 .02 0 .03-.01.05.05-.02.11-.03.17-.02.33.05.36.37.98.57-3.6-.56-7.2-1.11-10.8-1.67.86.01.92-.32 1.39-.25.04.01.08.02.11.04-.02-.04-.02-.07-.02-.11 0-.3.3-.51.65-.45.08.01.14.03.2.06.14-.29.5-.46.91-.4z" fill="#f2e9d6"/><path d="m103.61 58.74c.52-3.93-.7-9.01-2.61-13.94s-4.53-9.74-6.82-13.13c-.07.25-.13.5-.19.74-.88-.01-1.75-.03-2.62-.05.69.54 1.38 1.08 2.08 1.61-.7.56-1.4 1.11-2.1 1.66-.62-.15-1.24-.3-1.86-.46.41.58.82 1.15 1.23 1.72-.42.13-.84.26-1.26.39.1.44.2.88.31 1.32-.33.58-.67 1.16-.99 1.74 0 0-2.93-7.12-1.33-8.66 1.61-1.54.06-.06.09-.09-.99-.02-1.98-.04-2.98-.06-.42-.43-.85-.85-1.27-1.28-.12.58-.23 1.16-.35 1.73-.48-.14-.95-.28-1.43-.42-.27.33-.55.66-.82.99-.78.19-1.56.38-2.33.57 0 0 2.84-6.02 6.03-6.16s1.95-.02 2.8.03c-.45-.64-.91-1.28-1.36-1.92.26-.4.52-.8.79-1.21-.75.03-1.49.06-2.23.09-.11-.39-.21-.78-.31-1.17-.55-.14-1.09-.28-1.63-.42-.67-.55-1.33-1.1-1.98-1.65 0 0 8.63.87 10.65 3.33 2.02 2.45 1.34 1.77 1.8 2.53.63-.71.17-.63 2.69-2.28s10.84 1.12 10.84 1.12c-.73.26-1.46.52-2.19.78-.55-.09-1.11-.17-1.65-.26-.17.33-.33.67-.49 1-.72-.33-1.43-.66-2.14-.99.18.5.37 1 .56 1.49-.51.4-1.02.8-1.52 1.2 1.02.07 2.2.21 3.54.48 3.23.65 5.3 3.04 6.44 4.91-.01.64-.01 1.27-.01 1.9-.45-.17-.89-.34-1.34-.51-.36-.38-.72-.77-1.08-1.15-.45.07-.91.13-1.36.2-.26-.61-.52-1.22-.77-1.83-.33.36-.67.73-.99 1.09-1.1-.15-2.2-.31-3.29-.46 0-.69.01-1.38.02-2.07-.67.36-1.33.72-1.99 1.08-1.13-.64-2.26-1.28-3.39-1.93 3.19 3.67 5.93 8.55 8.01 13.58 2.08 5.04 3.53 10.26 4.13 14.63 0 0 .1.36 0 .68-1.11-.14-2.22-.31-3.33-.49 0 .01 0 .01 0 0zm-5.79-30.13c-.46-.39-.92-.78-1.39-1.17.01.4.02.8.02 1.2.41-.03.87-.04 1.37-.03zm-8.93 1.85c-.53-.33-1.06-.66-1.58-.99.15.64.3 1.27.45 1.91.38-.34.76-.65 1.13-.92zm.8-3.16c.03-.19.07-.37.11-.57-.37.14-.74.27-1.11.41.35.05.68.1 1 .16z" fill="#371b27"/><path d="m16.16 71.74-1.39-3.59-3.98-2.3-1.64-4.23-1.39.29 1.1 2.83-3.44-1.98v1.09l1.39 3.59 9.36 5.4zm20.17 11.65c-.46-1.2-.93-2.39-1.39-3.59-1.33-.77-2.65-1.53-3.98-2.3-.55-1.41-1.09-2.82-1.64-4.23-.46.1-.93.19-1.39.29.37.94.73 1.88 1.1 2.83-1.15-.66-2.29-1.32-3.44-1.98v1.09c.46 1.2.93 2.39 1.39 3.59 3.12 1.8 6.24 3.6 9.36 5.4-.01-.37-.01-.74-.01-1.1zm20.17 11.65c-.46-1.2-.93-2.39-1.39-3.59-1.33-.77-2.65-1.53-3.98-2.3-.55-1.41-1.09-2.82-1.64-4.23-.46.1-.93.19-1.39.29.37.94.73 1.88 1.1 2.83-1.15-.66-2.29-1.32-3.44-1.98v1.09c.46 1.2.93 2.39 1.39 3.59 3.12 1.8 6.24 3.6 9.36 5.4-.01-.38-.01-.74-.01-1.1zm20.17 11.64-1.39-3.59-3.98-2.3-1.64-4.23-1.39.29 1.1 2.83-3.44-1.98v1.09l1.39 3.59 9.36 5.4z" fill="url(#W)"/><path d="m6.81 64.06 2.33-1.35v-1.09l-1.88.13-.45 1.22z" fill="#2c111d"/><path d="m10.09 66.77-9.36-5.41v-1.09l8.1 4.06 2.65.54z" fill="#4d313b"/><path d="m10.09 66.77 1.39-.81v-1.09l-1.39-.07v.87z" fill="#2c111d"/><path d="m.73 60.27 9.36 5.4 1.39-.8-3.98-2.3 1.64-.95-1.39-.8-1.64.95-3.98-2.3z" fill="#593c45"/><path d="m26.98 75.71c.78-.45 1.56-.9 2.34-1.35 0-.36 0-.73 0-1.09-.63.04-1.25.09-1.88.13-.15.41-.31.81-.46 1.22z" fill="#2c111d"/><path d="m30.26 78.41c-3.12-1.8-6.24-3.6-9.36-5.4 0-.36 0-.73 0-1.09l8.1 4.05c.88.18 1.77.36 2.65.54-.46.64-.92 1.27-1.39 1.9z" fill="#4d313b"/><path d="m30.26 78.41c.46-.27.93-.54 1.39-.8 0-.36 0-.73 0-1.09-.46-.02-.93-.05-1.39-.07v.88z" fill="#2c111d"/><path d="m20.91 71.92c3.12 1.8 6.24 3.6 9.36 5.4.46-.27.93-.54 1.39-.8-1.33-.77-2.65-1.53-3.98-2.3.55-.32 1.1-.63 1.64-.95-.46-.27-.93-.54-1.39-.8-.55.32-1.1.63-1.64.95-1.33-.77-2.65-1.53-3.98-2.3-.48.26-.94.53-1.4.8z" fill="#593c45"/><path d="m47.15 87.36c.78-.45 1.56-.9 2.34-1.35 0-.36 0-.73 0-1.09-.63.04-1.25.09-1.88.13-.15.41-.31.81-.46 1.22z" fill="#2c111d"/><path d="m50.43 90.06c-3.12-1.8-6.24-3.6-9.36-5.4 0-.36 0-.73 0-1.09 2.7 1.35 5.4 2.7 8.1 4.05.88.18 1.77.36 2.65.54-.46.63-.92 1.27-1.39 1.9z" fill="#4d313b"/><path d="m50.43 90.06c.46-.27.93-.54 1.39-.8 0-.36 0-.73 0-1.09-.46-.02-.93-.05-1.39-.07v.88z" fill="#2c111d"/><path d="m41.08 83.56c3.12 1.8 6.24 3.6 9.36 5.4.46-.27.93-.54 1.39-.8-1.33-.77-2.65-1.53-3.98-2.3.55-.32 1.1-.63 1.64-.95-.46-.27-.93-.54-1.39-.8-.55.32-1.1.63-1.64.95-1.33-.77-2.65-1.53-3.98-2.3-.47.27-.94.54-1.4.8z" fill="#593c45"/><path d="m67.32 99 2.34-1.35v-1.09l-1.88.13-.46 1.22z" fill="#2c111d"/><path d="m70.61 101.71-9.36-5.41v-1.09l8.09 4.06 2.66.54z" fill="#4d313b"/><path d="m70.61 101.71 1.39-.81v-1.09l-1.39-.07v.87z" fill="#2c111d"/><path d="m61.25 95.21 9.36 5.4 1.39-.8-3.98-2.3 1.64-.95-1.39-.8-1.65.95-3.98-2.3z" fill="#593c45"/><path d="m58.7 17.57c-.37-.06-.76.07-1.06.21.14-.21.23-.34.23-.34-.32-.05-.64-.1-.95-.15 0 0-1.05 1.51-1.5 2.14-2.58-.14-3.05 1.58-1.8 1.77.57.09 1.14.04 1.75-.44.06.38.34.77 1.21.9.67.1 1.56.01 2.23-.74.63-.71.46-1.52-.28-1.77.14-.05.27-.11.39-.19.89-.59.54-1.27-.22-1.39zm-4.98 3.15c-.48-.07.08-.94 1.45-.94-.64.8-1.12.99-1.45.94zm4.25-.36c-.46.51-1.07.72-1.51.65-.4-.06-.74-.42-.51-.83.04-.06.09-.12.14-.19s.14-.2.27-.36c.11-.05.58-.26 1.17-.26.74-.01.91.48.44.99zm.03-1.68c-.42.19-.92.23-1.14.23.13-.18.23-.39.38-.55.16-.17.66-.47 1.07-.4.52.08.25.46-.31.72z" fill="#efe2d0"/><path d="m79.34 22.4c-.79.71-1.46 1.03-2.02 1.15.03-.09.06-.19.08-.3.08-.33.21-.87.21-.87s.98-.55.05-.64c-.53-.05-.77.21-.91.57-.95.92-1.98 1.64-2.81 1.51-.45-.07-.64-.33-.55-.67.08.07.17.13.28.18.46.19.99.06 1.45-.34.76-.69.28-1.38-.49-1.5-.46-.07-1.19.16-1.79.87-.03.03-.04.06-.06.09-.34.22-.63.4-.71.45-.14.08-.26.15-.3.11-.04-.05.1-.27.17-.38.23-.33.35-.49.48-.69.36-.51.04-.79-.37-.85-.26-.04-1.03.03-2.09 1.05.59-.85 1.19-1.69 1.79-2.54-.28-.04-.56-.09-.84-.13-.58.82-1.16 1.65-1.74 2.47-.71.56-1.42.92-2.03.83-.63-.1-.75-.55-.32-1.1.34-.43.84-.75 1.11-.7.28.04-.02.52-.36.71 0 0 .46.52.73.26.73-.71.29-1.38-.48-1.5-.48-.07-1.21.16-1.8.87-.03.04-.05.08-.08.12-.32.21-.59.38-.67.42-.14.08-.26.16-.31.11-.04-.04.11-.27.18-.38.23-.33.99-1.4.99-1.4-.29-.04-.57-.08-.85-.13 0 0-.13.18-.31.45-.07-.27-.29-.55-.59-.59-.47-.07-1.15.15-1.9 1-.13.15-.23.3-.3.44-.52.32-1.03.5-1.48.43s-.64-.33-.55-.67c.07.07.16.13.28.18.46.19.99.06 1.44-.34.77-.69.28-1.38-.48-1.5-.47-.07-1.2.16-1.79.87-.73.87-.46 1.76.83 1.96.54.08 1.08-.07 1.59-.34.01.37.24.63.64.69.37.06.75-.11 1.06-.32-.14.31.02.49.31.53.23.04.52-.03.98-.33.13-.08.37-.25.65-.44-.07.58.35 1.07 1.19 1.2.55.09 1.1-.08 1.62-.36-.13.18-.26.37-.39.55.28.04.56.09.84.13.69-.97 2.11-1.87 2.41-1.83.18.03.12.21-.11.53-.24.34-.4.58-.61.88-.3.42-.14.66.2.72.22.03.51-.03.97-.33.13-.08.38-.25.66-.45-.1.58.29 1.07 1.21 1.21.45.07.9-.03 1.33-.22-.03.34.41.49.71.54.55.08 1.08.02 1.45-.71.69-.18 1.73-.68 2.21-1.21.08-.06.1-.42-.01-.32zm-18.96-1.74c.34-.44.85-.75 1.12-.7.27.04-.02.52-.36.71-.25.14-.55.26-.8.05.02-.02.03-.04.04-.06zm4 .62c-.34.43-.83.75-1.11.71-.26-.04-.22-.43.12-.86s.85-.75 1.12-.7c.27.03.21.42-.13.85zm10.37.73c.26.04-.02.52-.36.71-.25.14-.55.26-.81.05.02-.02.03-.04.05-.06.33-.44.84-.75 1.12-.7zm1.22 2.24c-.14.13-.4.13-.36-.03.02-.09.26-.13.57-.16-.09.08-.15.13-.21.19zm.41-.57c-.26.02-.51.03-.73.06.34-.22.64-.49.92-.77-.02.08-.03.15-.05.22-.04.21-.08.37-.14.49z" fill="#efe2d0"/></g><path d="m74.08 45.14c.08-.09.04-.24-.07-.28-.07-.04-.13-.07-.19-.1-.37-.2-.63-.33-.92-.49-.33-.19-.18-.53-.48-.75-.15-.11-.35-.2-.57-.27-.09-.03-.18-.06-.28-.08-.25-.06-.52-.09-.75-.1-.22 0-.44.08-.61.22l-.59.18c-.29.14-.26.46-.19.77-.48.41-.94.79-1.37 1.1-.14.1-.29.2-.43.28-.05-.01-.09-.02-.14-.03-.36-.07-.74-.09-1.13-.05-.05 0-.11.01-.16.01-.34.01-.68-.05-1.01-.12-.12-.03-.24-.05-.36-.08-.03-.01-.07-.01-.1-.02-.66-.14-1.09-.24-1.5-.31-.07-.01-.15-.02-.22-.03-.23-.03-.46-.05-.75-.05-.01 0-.02 0-.03 0-.02 0-.04-.01-.06-.01-.1-.01-.21-.02-.32-.04-.04-.01-.08-.01-.12-.02-.15-.02-.31-.05-.48-.08-.16-.03-.33-.08-.49-.13-.09-.03-.17-.06-.25-.09s-.16-.07-.24-.11c-.32-.15-.61-.36-.84-.6-.12-.12-.22-.25-.3-.37l-.03-.05-.01-.02-.01-.02c-.02-.03-.04-.07-.06-.1-.03-.07-.07-.13-.09-.19-.06-.12-.1-.24-.14-.35s-.07-.2-.09-.28c-.05-.16-.08-.24-.08-.24s.01.09.04.25c.01.08.03.18.06.29.02.11.05.24.09.37.01.05.03.1.05.16.01.02.01.03.02.05.01.03.03.07.04.11l.01.03.01.03.03.06c.07.15.16.3.27.45.22.29.51.56.83.78.08.05.17.11.25.16.09.05.18.1.26.13.18.08.35.15.52.21.08.03.17.06.25.08-.02.02-.03.04-.05.06-.37.49-.54 1.19-.62 1.59-.06.2-.12.39-.19.56-.03.07-.06.14-.08.2-.01.03-.03.06-.04.09-.15.33-.32.58-.49.79-.47.59-.92.75-.92.75 0 .04-.41 1.02-.68 1.67-.02.05-.04.09-.05.13h-.01s-.09.16-.18.43c-.1.29.05.6.22.62l.33.05c.25.04.37-.22.29-.42s-.2-.29-.09-.53l.8-1.46.8-.25.5-.15c-.04.07-.07.12-.1.18-.04.08-.15.25-.12.33.12.27.36 1.26.48 1.45.02.07.05.16.06.28.06.5.26.55.42.57l.23.04c.24.04.34-.25.21-.42-.11-.15-.3-.28-.45-.58-.16-.41-.21-.91-.27-1.06-.03-.06-.01-.14.04-.19.18-.17.28-.12.58-.33.78-.54 1.25-1.1 1.63-1.57l.1.04c.12.05.24 0 .27-.1.01-.05.01-.11-.01-.17.51.31.94.63 1.22.76.64.31 1.11.54 1.47.69l-.07.39-.34 1.85c-.01.06.05.77.08 1.11-.01.13-.02.84.34.9l.31.07.14.03c.17.03.26-.01.31-.09.05.08.11.13.2.15l.44.09c.41.06.4-.27.3-.5-.07-.18-.26-.26-.37-.38l-.07-.57c-.04-.29-.02-.6.06-.89l.67-2.61c.13-.17.2-.37.36-.69.06-.12.13-.25.22-.4l.17-.25.1-.14.13-.18.07-.11.24-.34.64-.91c.12-.12.31-.15.46-.05.32.2.52.35.8.72.1.07.29.07.43.05.03-.01.06-.01.09-.02l.06-.02c.07-.02.11-.09.11-.15 0 .02.01.05 0 .07-.01.06-.04.12-.06.18-.03.06-.05.12-.05.19 0 .02 0 .04.02.05.02.03.07.02.1.01.02-.01.05-.02.07-.03s.04-.02.05-.04c.01-.01.01-.03.01-.04 0-.06.01-.13.01-.19s0-.11 0-.17c-.02-.1-.07-.19-.14-.27-.02-.03-.05-.05-.08-.08l.02-.03-.03.02c-.04-.04-.09-.08-.14-.11-.11-.09-.22-.19-.33-.29-.04-.04-.08-.08-.13-.11-.04-.03-.09-.05-.14-.05-.02-.02-.03-.05-.04-.07-.02-.06-.02-.11-.01-.16.01-.03.03-.05.04-.07.13-.11.31-.13.47-.07l.87.42c.12.04.25.02.37-.02s.24-.1.34-.18c.05-.03.09-.07.13-.11.03-.03.06-.06.09-.1l.03-.03zm-7.07 7.79-.08-.59c-.04-.28-.01-.56.08-.83l.34-1.01-.16 1.36c-.01.07-.01.14 0 .21l.08.89v.18c-.09-.08-.19-.14-.26-.21z" fill="#371b27"/><g clip-rule="evenodd" fill-rule="evenodd"><path d="m31.04 95.86v4.65l.96 2.49 2.04 1.18v-6.58l1.67.96v-2.04l-.97-2.49-5.38-3.1v2.04l.97 2.49zm9.97 3.12-.01-.03-.05-.12c-.13-.33-.3-.64-.5-.93-.24-.34-.52-.66-.85-.93-.33-.28-.91-.66-1.74-1.14l-2.13-1.23v8.62l.97 2.49 1.91 1.1v-3.37l1.71 4.36 2.19 1.27.1.06 1.92 1.11.39-1.32 2.5 1.44.77 1.99 2.02 1.17-2.58-10.11-.97-2.49-2.55-1.47-2.58 7.13.1.06-.93-2.12.06.02.19.04.17.02h.16l.15-.02.14-.04.13-.06.11-.08.1-.1.09-.12.07-.14.06-.16.05-.18.03-.2.02-.22.01-.24v-.16l-.01-.17-.02-.17-.02-.17-.03-.17-.04-.17-.04-.17-.05-.17-.06-.17-.06-.16zm-1.96 1.28c-.02.01-.05.02-.07.03-.1.03-.22.02-.37-.03v-.26l.41.24zm7.1 4.72.28 1.19-.55-.32.24-.77.02-.06zm4.8-1.59.97 2.49.97 3.7c.03-.1.05-.17.06-.22l1.48-3.96 2.16 1.25.61 1.56v-1.21l4.57 2.64.97 2.49v1.89l-.89-.52.75 1.93v1.84l-.58-.34.73 1.88v1.93l-4.57-2.64-.97-2.49v-5.69l-2.77 6.02-1.55-.89-.97-2.49-3.13-10.42zm14.2 8.2.97 2.49v4.67l1.56.9.97 2.49v2.01l-4.56-2.63-.97-2.49v-8.62z" fill="#735055"/><path d="m28.4 91.48.96-.56 5.38 3.11-.97.56-2.42-.66z" fill="#f5f0da"/><path d="m33.77 94.59.97-.56v2.03l-.97.56-.47-1.15z" fill="url(#Y)"/><path d="m32.1 95.66.97-.56v6.58l-.97.56-.83-4.43z" fill="url(#Z)"/><path d="m38.65 102.54 1.23.65.85 1.33.92 2.12-.97.55-1.92-3.7z" fill="#e3d2c4"/><path d="m38.65 102.54.97-.55 1.11 2.53z" fill="url(#aa)"/><path d="m34.77 95.16.96-.56 2.13 1.23.3.18.28.16.25.16.23.15.21.13.18.13.16.12.13.11.12.1.12.11.11.11.11.12.1.12.1.12.1.12.09.13.1.15.09.15.09.15.08.16.07.16.07.16.06.16.06.17.05.17.04.16.04.17.03.17.03.16.01.17.01.17.01.16-.01.24-.02.22-.03.2-.05.19-.06.16-.07.14-.09.13-.1.1-.11.09-.97.56-.15-.09.1-.1.09-.13.07-.14.06-.17.05-.18.03-.2.02-.22.01-.24v-.17l-.01-.16-.02-.17-.02-.16-.03-.17-.04-.17-.05-.16-.05-.17-.57-.17.19-.16-.07-.16-.07-.16-.08-.16-.09-.15-.09-.15-.1-.15-.09-.13-.09-.12-.1.4.41-.12-.11-.12-.11-.11-.11-.11-.13-.1-.13-.11-.16-.12-.18-.13-.21-.14-.23-.14-.25-.16-.27-.17-.3-.17z" fill="url(#ac)"/><path d="m36.68 101.51.96-.56v3.37l-.96.56-1.1-1.97z" fill="url(#ad)"/><path d="m36.68 98.07.96-.56v2.27l-.26.44-.7.12-.54-1.1z" fill="url(#ae)"/><path d="m36.68 100.34 1.78-.13.13.05.11.03.11.01h.09l.08-.01.07-.03-.97 1.08-.07.03-.08.01h-.09l-.1-.01-.12-.03-.13-.05-.13-.06-.15-.07-.16-.09z" fill="#f5f0da"/><path d="m36.68 100.34.96-.56.38.21.16.09.15.08.13.05.13.05.11.03.11.01h.09l.08-.01.07-.03-.07.08z" fill="url(#af)"/><path d="m43.43 105.56 1.12-.17 1.33.47.54.31-.96.56-1.45.13z" fill="#f5f0da"/><path d="m43.43 105.56.97-.56 1.48.86z" fill="url(#ag)"/><path d="m44.44 102.14.97-.56-.02.07-.01.07-.02.07-.02.07-.01.06-.02.07-.02.06-.01.06-.02.07-.01.06-.02.06-.02.06-.01.06-.02.06-.01.06-.02.05-.75 2.41-.97.56.49-2.41.02-.06.02-.05.01-.06.02-.06.01-.06.02-.06.02-.06.01-.07.02-.06.01-.06.02-.07.02-.07.01-.06.02-.07.02-.07z" fill="url(#ah)"/><path d="m43.16 100 .96-.55 2.55 1.47-.33.84-.63-.28-1.98-.29z" fill="#f5f0da"/><path d="m45.71 101.48.96-.56 2.58 10.1-.97.56-2.58-7.54z" fill="url(#aj)"/><path d="m42.99 106.99.97-.56-.39 1.31-.96.56-.28-1.33z" fill="url(#ak)"/><path d="m47.82 102.7.97-.56 2.16 1.25-.42.59-.55-.04h-.98z" fill="#f5f0da"/><path d="m49.98 103.94.97-.55 1.49 5.68.01.02v.04l.01.04.01.05.01.05.02.07.01.07.02.08.01.08.02.09.02.1.02.11.02.11.02.12.03.13.02.14-.97.55-.28-.13-.02-.13-.03-.12-.02-.11-.02-.11-.02-.1-.01-.09-.02-.09-.02-.07-.01-.08-.01-.06-.01-.05-.01-.05-.01-.04-.01-.04-.01-.02z" fill="url(#al)"/><path d="m53.47 105.96.97-.56 2.16 1.25-.71.63-.26-.08-1.31-.05z" fill="#f5f0da"/><path d="m55.63 107.2.97-.55-3.13 6.81-.97.56 1.32-5.66z" fill="url(#am)"/><path d="m56.23 107.55.97-.55 4.57 2.63-.96.56-2.31-.47z" fill="#f5f0da"/><path d="m60.81 110.19.96-.56v1.9l-.96.56-.48-1.23z" fill="url(#an)"/><path d="m58.22 110.59.96-.56v1.5l-.96.56z" fill="url(#ao)"/><path d="m58.22 112.09.96-.56 2.44 1.41-.96.55z" fill="url(#ap)"/><path d="m58.22 112.09h1.49l1.83 1.05-.88.35-.87.11z" fill="#f5f0da"/><path d="m60.66 113.49.96-.55v1.84l-.96.56-.43-1.39z" fill="url(#aq)"/><path d="m58.22 113.93.96-.56v1.46l-.96.56z" fill="url(#ar)"/><path d="m58.22 115.39.96-.56 2.59 1.49-.96.56z" fill="url(#as)"/><path d="m58.22 115.39h1.45l2.02 1.16-.88.33-2.03-.55z" fill="#f5f0da"/><path d="m60.81 116.88.96-.56v1.93l-.96.56-.41-1.52z" fill="url(#at)"/><path d="m62.15 110.97.97-.56 2.03 1.18-.53 1.06-.43-.51-1.36-.02z" fill="#f5f0da"/><path d="m64.19 112.14.96-.55v6.6l-.96.56-1.21-4.02z" fill="url(#au)"/><path d="m64.19 118.75.96-.28.97.28 1.56.9-.97.56-2.29-.34z" fill="#f5f0da"/><path d="m64.19 118.75.96-.56.97.56z" fill="url(#av)"/><path d="m66.71 120.21.97-.56v2.01l-.97.56-.66-1.43z" fill="url(#aw)"/><path d="m30.07 101.06v-6.58l-1.67-.96v-2.04l5.38 3.1v2.04l-1.67-.96v6.58zm10.55 5.98 2.54-7.03 2.55 1.47 2.58 10.11-2.02-1.17-.38-1.76-2.89-1.67-.39 1.32c-1.41-.81-2.81-1.62-4.22-2.44l-1.71-4.36v3.37l-1.91-1.1v-8.62l2.13 1.23c.83.48 1.41.86 1.74 1.14s.61.59.85.93c.27.39.47.81.62 1.26.14.45.22.89.22 1.33 0 .67-.14 1.13-.43 1.38s-.7.29-1.24.11zm-3.94-6.7.38.22c.44.25.76.35.96.3.2-.06.3-.27.3-.64 0-.43-.09-.79-.28-1.08s-.5-.56-.95-.82l-.41-.24zm6.75 5.22 2.02 1.17-.76-3.28c-.02-.1-.06-.26-.1-.47-.04-.22-.09-.49-.16-.83-.04.19-.09.36-.13.53s-.09.33-.13.48zm7.52 7.56 1.55.89 3.13-6.81-2.16-1.25-1.48 3.96c-.02.07-.06.19-.11.38-.05.18-.1.39-.15.62-.07-.37-.12-.66-.17-.88-.04-.22-.07-.36-.09-.42l-1.49-5.68-2.16-1.25zm5.28 3.05v-8.62l4.57 2.64v1.89l-2.59-1.49v1.49l2.44 1.41v1.84l-2.44-1.41v1.46l2.59 1.49v1.93zm5.92 3.42v-8.62l2.03 1.18v6.6l2.53 1.46v2.01z" fill="#f2e9d6"/><path d="m12.97 92.12-1.89-1.09-1.08-2.78v-8.51l2.1 1.21c.82.47 1.4.85 1.74 1.14.33.28.62.61.85.96.2.31.37.65.5.99l1.08 2.79.06.17.06.17.05.18.04.18.04.18.02.13v-4.33l4.51 2.61.74 1.91v-1.48l5.31 3.07 1.08 2.79v2.01l-1.65-.95v6.5l-2.01-1.16-1.08-2.79v-4.33l-.57-.33-.74-1.91v1.34l-.88-.5.74 1.9v1.82l-.58-.33.72 1.86v1.91l-4.51-2.61-1.08-2.79v-2.7l-.02.11-.04.14-.04.13-.05.12c-.23.46-.54.67-1.06.63l-.1-.01-.1-.02-.1-.03-.11-.04-.13-.05-.14-.06-.16-.08-.18-.09-.19-.1-.21-.11-.22-.13-.34-.2-.36-.21v2.8z" fill="#735055"/><path d="m8.93 80.36 1.08-.63 2.1 1.22.29.18.28.16.25.15.23.15.2.13.18.13.17.13.13.11.13.11.11.11.11.11.11.12.1.12.1.13.09.12.09.15.11.15.09.16.09.16.08.17.07.16.07.18.06.17.06.18.05.17.04.18.04.17.03.19.02.18.02.17.01.18v.17.19l-.01.18-.02.17-.02.15-.03.15-.04.14-.04.12-.05.12-.06.12-.06.1-.07.08-.07.08-.08.07-.09.06-1.08.63-.2-.07.09-.07.07-.08.07-.09.06-.09.05-.11.05-.12.05-.13.03-.13.03-.15.02-.16.02-.17.01-.17v-.19l-.28-.17-.01-.18-.02-.19-.02-.17-.03-.18-.04-.17-.04-.18-.05-.19-.07-.17-.06-.17-.07-.17-.07-.17-.08-.16-.09-.16-.09-.17-.1-.16-.09-.13-.09-.13-.1-.12.47.16-.11-.11-.11-.12-.12-.11-.12-.11-.13-.12-.17-.12-.18-.12-.2-.14-.23-.15-.25-.15-.28.12-.29-.17z" fill="url(#ax)"/><path d="m10.81 87.15 1.09-.62v2.81l-1.09.62z" fill="url(#ay)"/><path d="m10.81 83.28 1.09-.63v2.01l-.38.34-.71.28z" fill="url(#az)"/><path d="m13.29 85.23-.08.01h-.09l-.11-.03-.12-.03-.13-.05-.14-.07-.17-.09-.18-.1-.37-.21-1.09.62.38 1.08.18.1.16.08.15.07.13.05.12.03.11.02.09.01.07-.01.07-.02 1.03-1.41.05-.07z" fill="url(#aA)"/><path d="m15.46 84.13 1.08-.62 4.52 2.61-.59.72-.49-.1-2.51-.76z" fill="#f5f0da"/><path d="m19.98 86.74 1.08-.62v1.86l-1.08.63z" fill="url(#aB)"/><path d="m17.42 87.13 1.08-.62v1.47l-1.08.63z" fill="url(#aC)"/><path d="m17.42 88.61 1.08-.63 2.4 1.4-.5.78-.58-.17-2.05-.37z" fill="url(#aD)"/><path d="m19.82 89.99 1.08-.61v1.81l-1.08.63z" fill="url(#aE)"/><path d="m17.42 90.43 1.08-.63v1.44l-1.08.63z" fill="url(#aF)"/><path d="m17.42 91.87 1.08-.63 2.56 1.48-.48.76-.6-.14-1.87-.54z" fill="url(#aG)"/><path d="m19.98 93.34 1.08-.62v1.91l-1.08.61z" fill="url(#aH)"/><path d="m20.71 87.17 1.08-.63 5.31 3.07-.57.76-.51-.15-3.04-.97z" fill="#f5f0da"/><path d="m26.02 90.22 1.08-.61v2.01l-1.08.62-.56-1.22z" fill="url(#aI)"/><path d="m24.37 91.29 1.09-.62v6.49l-1.09.63-.72-4.21z" fill="url(#aJ)"/><path d="m10.81 89.96-1.89-1.09v-8.51l2.1 1.21c.82.47 1.4.85 1.74 1.14.33.28.62.61.85.96.27.41.47.86.63 1.33.14.47.21.95.21 1.42 0 .5-.07.91-.21 1.22-.14.3-.35.5-.63.59-.21.07-.45.06-.74-.02-.28-.08-.74-.3-1.35-.66l-.34-.2-.36-.21v2.82zm0-4.68.38.22c.48.28.82.39 1.01.35s.28-.24.28-.62c0-.35-.09-.67-.28-.93s-.53-.53-1-.8l-.4-.23v2h.01zm4.65 7.36v-8.51l4.51 2.61v1.87l-2.55-1.47v1.47l2.41 1.39v1.82l-2.41-1.39v1.44l2.55 1.47v1.91zm6.9 3.99v-6.5l-1.65-.95v-2.01l5.31 3.07v2.01l-1.65-.95v6.5z" fill="#f2e9d6"/></g></svg>