<svg enable-background="new 0 0 144 218.4" viewBox="0 0 144 218.4" xmlns="http://www.w3.org/2000/svg" xmlns:xlink="http://www.w3.org/1999/xlink"><linearGradient id="a"><stop offset="0" stop-color="#ce181e"/><stop offset=".5055" stop-color="#d0181f"/><stop offset=".8369" stop-color="#d91921"/><stop offset="1" stop-color="#e11b22"/></linearGradient><linearGradient id="b" gradientUnits="userSpaceOnUse" x1="18.2001" x2="125.7999" xlink:href="#a" y1="206.2481" y2="206.2481"/><linearGradient id="c" gradientUnits="userSpaceOnUse" x1="72" x2="72" xlink:href="#a" y1="185.6241" y2=".000086"/><circle cx="71.7" cy="71.46" fill="#fff" r="64.97"/><path d="m18.2 194.1h107.6v24.3h-107.6z" fill="url(#b)"/><path d="m72 0c-39.76 0-72 32.24-72 72 0 3.01.18 5.97.56 8.88 6.45 49.36 71.44 104.74 71.44 104.74s65.24-54.8 71.35-104.03c.42-3.14.65-6.34.65-9.59 0-39.76-32.24-72-72-72zm-.69 130.7c-33.97 0-61.51-27.54-61.51-61.51s27.54-61.51 61.51-61.51 61.51 27.54 61.51 61.51-27.54 61.51-61.51 61.51z" fill="url(#c)"/><path d="m34.27 200.27h4l-4.03 12h-4.86l-4.03-12h4l2.47 8.25z" fill="#fff"/><path d="m47.11 203.26h-4.24v1.48h3.73v2.83h-3.73v1.69h4.24v3h-8v-12h8z" fill="#fff"/><path d="m47.85 200.27h10.1v2.98h-3.19v9.01h-3.76v-9.01h-3.15z" fill="#fff"/><path d="m67.43 200.15c3.17 0 5.32 1.9 5.81 4.73h-3.97c-.36-.8-1.07-1.26-1.91-1.26-1.27 0-2.05 1.03-2.05 2.63 0 1.59.78 2.63 2.05 2.63.85 0 1.56-.46 1.91-1.25h3.97c-.49 2.83-2.64 4.73-5.81 4.73-3.68 0-5.93-2.53-5.93-6.1 0-3.59 2.25-6.11 5.93-6.11z" fill="#fff"/><path d="m78.35 200.27v9.15h3.63v2.85h-7.39v-12z" fill="#fff"/><path d="m83.16 200.27h3.76v12h-3.76z" fill="#fff"/><path d="m100.12 200.27v12h-3.76l-3.98-6.03v6.03h-3.76v-12h3.76l3.98 6.13v-6.13z" fill="#fff"/><path d="m101.8 200.27h3.76v12h-3.76z" fill="#fff"/><path d="m112.84 200.15c3.17 0 5.32 1.9 5.81 4.73h-3.97c-.36-.8-1.07-1.26-1.91-1.26-1.27 0-2.05 1.03-2.05 2.63 0 1.59.78 2.63 2.05 2.63.85 0 1.56-.46 1.91-1.25h3.97c-.49 2.83-2.64 4.73-5.81 4.73-3.68 0-5.93-2.53-5.93-6.1 0-3.59 2.26-6.11 5.93-6.11z" fill="#fff"/><g clip-rule="evenodd" fill-rule="evenodd"><path d="m106.53 115.48c1.86 9.63-2.88 14.48-10.81 16.26h-14.85c-3.84-1.86-.48-6.57 5.41-8.68-2.02-15.04 16.78-12.61 20.25-7.58z" fill="#cf8d5d"/><path d="m67.5 114.92 1.09 9.17c-4.48 3.34-3.26 6.34.16 7.65h8.86c.63-.3 1.16-.78 1.54-1.56.65-2.3 1.08-4.62 1.46-6.45 4.06-19.38-13.42-23.05-13.11-8.81z" fill="#cf8d5d"/><path d="m93.69 79.46s9.75 21.18 19.36 30.07-1.08 17.97-8.79 20.07c-39.45 10.76-51.05-50.05-44-54.84 1.9-1.28 33.43 4.7 33.43 4.7z" fill="#eab281"/><path d="m103.62 129.76c-19.42 4.96-32.01-7.53-38.87-21.89 2.97 3.07 6.72 5.91 11.41 7.87 16.77 6.98 27.01-1.09 27.01-1.09 5.36 4.03 5.52 10.68.45 15.11z" fill="#e0a470"/><path d="m93.69 79.46s.9 1.95 2.41 4.91c-2.87 3.32-13.13 12.76-35.92 10.86-2.58-10.07-2.42-18.77.07-20.46 1.91-1.29 33.44 4.69 33.44 4.69z" fill="#cf8d5d"/><path d="m107.06 102.61c1.69 2.3 3.44 4.42 5.19 6.17-1.03 1.66-2.58 2.58-4.69 1.04-2.14-1.56-1.89-4.46-.5-7.21z" fill="#a15d3b"/><path d="m120.39 126.94c-.22-3.01-2.27-6.86-6.76-7.64 0 0 2.41-.79 2.82-4.15.01-.12.06-.24.13-.35l.07.27c-.01 0 7.69 4.1 3.74 11.87z" fill="#eab281"/><path d="m101.62 108.63c-7.48 1.96-11.53-14.45-8.19-16.52 6.74-4.16 15.18 14.7 8.19 16.52z" fill="#a15d3b"/><path d="m116.71 115.48c1.59 8.25-2.9 16.26-11.96 16.26h-13.7c-3.84-1.86-.48-6.57 5.41-8.68-2.02-15.04 16.77-12.61 20.25-7.58z" fill="#eab281"/><path d="m78.03 114.92-1.2 9.11c-6.01 3.48-6.34 6.37-3.51 7.71h10.67c.72-.29 1.38-.77 1.95-1.56 1.21-2.3 2.21-4.62 3.04-6.45 8.81-19.38-7.78-23.05-10.95-8.81z" fill="#eab281"/><path d="m62.87 36.69s-4.99-9.85-14.17-7.22c-9.18 2.62-12.8 10.72-9.51 13.25 4.9 3.78 5.88-7.47 10.73-8.91 3.67-1.09 9.66-.38 11.98 5.54 3.31 8.45.97-2.66.97-2.66z" fill="#a15d3b"/><path d="m48.65 52.64c.8-1.8.61-8.83 6.98-13.98 6.38-5.14 25.02-5.14 30.54 4.99 2.6 4.76 4.68 10.99 6.16 16.25 1.67 5.93 1.31 17.69 1.31 17.69-2.64 9.78-10.07 8.87-27.53 9.7 0 0-10.16 2.55-22.57-4.45-6.22-3.51-18.36-13.6-10.33-20.27 4.97-4.1 15.44-9.95 15.44-9.93z" fill="#eab281"/><path d="m40.53 80.92c-3.93-4.53 4.56-3.69 7.74-1.64.91.59 3.66 2.28.94 1.47-1.95-.59-5.44-.79-8.68.17z" fill="#d55e3e"/><path d="m64.75 35.47c7.9-.89 17.68 1.32 21.42 8.19 2.56 4.7 4.62 10.82 6.1 16.04-7.63 8.62-26.15 7.21-30.19-5.67-1.51-4.82-1.16-10.56.73-15.63.42-1.11 1.08-2.09 1.94-2.93z" fill="#a15d3b"/><path d="m39.52 67.81c-1.26 2.5-3.54 5.72-5.52 4.53-2.31-1.39-4.97-3.84-4.76-5.17.46-2.88 12.52-3.79 10.28.64z" fill="#5c291a"/><path d="m31 70.05c-1.11-1.06-1.88-2.14-1.76-2.88.32-1.98 6.13-3.03 8.99-2.04.11.39.06.86-.22 1.41-1.26 2.5-3.54 5.72-5.52 4.53-.49-.31-1-.65-1.49-1.02z" fill="#6b3625"/><path d="m69.86 46.67c-.92-.36-2.35-1.59-3.05-3.06-1.07-2.26-2.57-.51-1.9 1.17s3.27 4.01 5.1 3.82c1.63-.18.65-1.62-.15-1.93z" fill="#5c291a"/><path d="m49.9 44.31c.9-.05 2.25-.39 3.19-1.58 2.67-3.4 2.6 4.08-3.08 2.81-1.01-.23-.89-1.18-.11-1.23z" fill="#5c291a"/><path d="m68.17 52.87c-1.14 4.01-4.81.06-4.07-3.4.55-2.57 2.65-2.03 3.69-.2.53.94.77 2.22.38 3.6z"/><path d="m66.29 48.87c-.31.05-.51.34-.45.65s.36.51.67.46.51-.34.45-.65-.36-.51-.67-.46z" fill="#fff"/><path d="m52.45 51.97c-2.32 2.84-3.99-2.01-2.18-4.57 1.33-1.9 3.1-.54 3.11 1.42 0 .91-.13 2.18-.93 3.15z"/><path d="m52.16 47.61c-.31.06-.5.36-.43.66.07.31.37.5.68.44s.5-.36.43-.66-.38-.5-.68-.44z" fill="#fff"/><path d="m83 43.02c.17-.74 1.27-13.17-4.64-19.29-3.65-3.78-10.19-1.68-12.78 1.8-3.66 4.92 2.74 9.99 4.47 5.03.64-1.84.8-4.71 3.75-4.99 3.98-.38 7.2 10.24 7.26 17.96.07 7.7 1.94-.51 1.94-.51z" fill="#a15d3b"/><path d="m2.72 64.98 1.34-3.05c.48-1.09 1.76-1.59 2.84-1.11 11.91 5.22 26.51 14.63 36.25 18.91l-.86 1.97c-9.74-4.27-26.55-8.65-38.46-13.87-1.09-.49-1.59-1.77-1.11-2.85z" fill="#c2def5"/><path d="m3.03 64.27 1.34-3.05c.48-1.09 1.76-1.59 2.84-1.11 11.91 5.22 28.92 15.74 38.66 20.02l-3.27.86c-9.74-4.27-26.56-8.65-38.46-13.87-1.09-.48-1.59-1.76-1.11-2.85z" fill="#ddeefa"/><path d="m9.01 67.04 1.45-3.3 10.08 4.42-1.45 3.3z" fill="#e31e24"/><path d="m40.86 81.09s4.52-1.84 9.38-.42-2.92 3.15-5.03 2.43c-2.12-.73-4.35-2.01-4.35-2.01z" fill="#eab281"/><path d="m93.92 75.16 3.05 6.73c-9.55 10.96-27.43 13.84-38.13 11.72l-3.08-6.53c0 .01 26.09.71 38.16-11.92z" fill="#8f4a35"/><path d="m93.92 75.16 3.05 6.73c-1.79 2.06-3.88 3.83-6.15 5.33 1.06-3.05.66-6.15-.42-9 1.26-.92 2.44-1.93 3.52-3.06zm-26.47 19.08c-3.14.1-6.08-.12-8.61-.62l-3.08-6.53s2.75.07 6.87-.26c.26 3.48 2.14 5.92 4.82 7.41z" fill="#7a3824"/></g></svg>